<svg xmlns="http://www.w3.org/2000/svg" viewBox="0 0 36 36" fill="none">
  <path fill="var(--icon-secondary)"
    d="M9.905 4.636a2.992 2.992 0 0 1 2.843-2.05h7.675c.816 0 1.572.328 2.121.877l2.828 2.828c.093.093.179.19.259.295h2.955c1.103 0 2.104.448 2.828 1.173l2.827 2.827.001.002a3.987 3.987 0 0 1 1.172 2.826v16c0 2.206-1.794 4-4 4h-24a3.988 3.988 0 0 1-2.828-1.173L1.76 29.414l.013.013-.014-.014a3.987 3.987 0 0 1-1.172-2.827v-16c0-2.206 1.794-4 4-4h4.669l.65-1.95Z" />
  <path fill="var(--icon-primary)" stroke="var(--icon-secondary)" stroke-width="2"
    d="m9.905 4.636-.65 1.95h-4.67c-2.205 0-4 1.794-4 4v16c0 2.206 1.795 4 4 4h24c2.207 0 4-1.794 4-4v-16c0-2.206-1.793-4-4-4h-4.668l-.65-1.95a2.992 2.992 0 0 0-2.844-2.05h-7.675a2.992 2.992 0 0 0-2.843 2.05Zm6.68 19.95c-3.312 0-6-2.688-6-6 0-3.313 2.688-6 6-6 3.313 0 6 2.687 6 6 0 3.312-2.687 6-6 6Z" />
</svg>