<svg version="1.1" id="Layer_1" xmlns="http://www.w3.org/2000/svg" xmlns:xlink="http://www.w3.org/1999/xlink" x="0px" y="0px" viewBox="0 0 512.005 512.005" style="enable-background:new 0 0 512.005 512.005;" xml:space="preserve" fill="currentColor">
	<path d="M4.475,425.637c1.289,0.7,2.679,1.033,4.053,1.033c3.029,0,5.965-1.613,7.509-4.471l111.155-205.235
				c0.239-0.495,5.973-12.16,17.877-12.16c1.69,0,3.593,0.853,5.47,2.005L77.879,337.18c-2.295,4.122-0.811,9.318,3.302,11.614
				c1.314,0.725,2.739,1.075,4.147,1.075c2.995,0,5.897-1.579,7.467-4.378l71.552-128.401l26.803,20.139
				c3.396,2.56,8.149,2.21,11.153-0.794l45.167-45.167l28.1,28.1c3.337,3.337,8.73,3.337,12.066,0l25.6-25.6
				c3.337-3.337,3.337-8.73,0-12.066s-8.73-3.337-12.066,0l-19.567,19.567l-28.1-28.1c-3.337-3.337-8.73-3.337-12.066,0
				l-45.969,45.969l-28.058-21.043l-0.99-0.785c-4.489-3.584-12.006-9.574-21.35-9.574c-22.929,0-32.93,21.129-33.101,21.538
				L1.036,414.074C-1.217,418.213,0.328,423.392,4.475,425.637z" />
	<path d="M110.937,443.736H8.537c-4.71,0-8.533,3.823-8.533,8.533s3.823,8.533,8.533,8.533h102.4c4.71,0,8.533-3.823,8.533-8.533
				S115.647,443.736,110.937,443.736z" />
	<path d="M173.281,182.582c4.147,2.244,9.318,0.691,11.563-3.456l53.282-98.697c0.239-0.495,5.973-12.16,17.877-12.16
				s17.638,11.665,18.108,12.621L418.41,345.449c1.553,2.842,4.48,4.446,7.501,4.446c1.382,0,2.782-0.333,4.079-1.041
				c4.139-2.261,5.666-7.441,3.405-11.58l-38.955-71.407c2.099-0.87,4.318-1.331,6.63-1.331c11.904,0,17.638,11.665,18.057,12.518
				l76.8,145.075c1.536,2.893,4.489,4.54,7.552,4.54c1.348,0,2.714-0.316,3.985-0.99c4.164-2.21,5.751-7.373,3.55-11.537
				l-76.595-144.649c-0.418-0.896-10.419-22.025-33.348-22.025c-5.197,0-10.146,1.271-14.771,3.473L289.352,73.227
				c-0.418-0.896-10.419-22.025-33.348-22.025c-22.938,0-32.93,21.129-33.109,21.547l-53.069,98.27
				C167.59,175.158,169.134,180.337,173.281,182.582z" />
	<path d="M452.27,443.736h-93.867v-17.067h17.067h0.171c4.71,0,8.533-3.823,8.533-8.533c0-1.647-0.469-3.183-1.271-4.48
				l-25.037-66.782c-1.254-3.328-4.437-5.538-7.996-5.538s-6.741,2.21-7.996,5.538l-25.6,68.267
				c-0.973,2.62-0.614,5.555,0.981,7.859c1.596,2.295,4.215,3.669,7.014,3.669h17.067v17.067h-34.133v-25.6
				c0-4.71-3.823-8.533-8.533-8.533h-13.286l13.431-35.823l1.86,4.779c1.715,4.395,6.656,6.562,11.042,4.864
				c4.395-1.707,6.571-6.656,4.864-11.042l-9.958-25.6c-1.28-3.285-4.437-5.444-7.953-5.444h-0.051
				c-3.541,0.017-6.699,2.227-7.945,5.538l-25.6,68.267c-0.973,2.62-0.614,5.555,0.981,7.859c1.596,2.295,4.215,3.669,7.014,3.669
				h17.067v17.067H153.603v-17.067h17.067h0.171c4.71,0,8.533-3.823,8.533-8.533c0-1.647-0.469-3.183-1.271-4.48l-25.037-66.782
				c-1.254-3.328-4.437-5.538-7.996-5.538c-3.558,0-6.741,2.21-7.996,5.538l-25.591,68.267c-0.981,2.62-0.623,5.555,0.973,7.859
				c1.596,2.295,4.215,3.669,7.014,3.669h17.067v25.6c0,4.71,3.823,8.533,8.533,8.533h307.2c4.71,0,8.533-3.823,8.533-8.533
				S456.981,443.736,452.27,443.736z M131.784,409.603l13.286-35.43l13.286,35.43H131.784z M336.584,409.603l13.286-35.43
				l13.286,35.43H336.584z" />
	<path d="M503.47,443.736h-17.067c-4.71,0-8.533,3.823-8.533,8.533s3.823,8.533,8.533,8.533h17.067
				c4.71,0,8.533-3.823,8.533-8.533S508.181,443.736,503.47,443.736z" />
</svg>