<svg width="72" height="72" viewBox="0 0 72 72" fill="none" xmlns="http://www.w3.org/2000/svg" stroke="currentColor">
  <path d="M51.9688 18.0938C53.6257 18.0938 54.9688 16.7506 54.9688 15.0938C54.9688 13.4369 53.6257 12.0938 51.9688 12.0938C50.312 12.0938 48.9688 13.4369 48.9688 15.0938C48.9688 16.7506 50.312 18.0938 51.9688 18.0938Z" stroke="black" stroke-width="2" stroke-miterlimit="10" />
  <path d="M42 33.0001L33.916 30.5743C32.8623 30.2589 31.4238 30.6915 30.7197 31.5362L23.2803 40.464C22.5762 41.3087 22.4502 42.4503 23 43.0001C23.5498 43.5499 24.6367 43.3634 25.4141 42.586L31.5859 36.4142C32.3633 35.6368 33.7871 35.4376 34.748 35.9718L40.252 39.0284C41.2129 39.5626 42.9004 40.0001 44 40.0001H45C46.0996 40.0001 47.6182 39.3468 48.375 38.547L48.832 38.0636C49.5889 37.2638 50.3857 35.798 50.6035 34.8048C50.8213 33.8126 51 33.0001 51 33.0001" stroke="black" stroke-width="2" stroke-miterlimit="10" stroke-linecap="round" stroke-linejoin="round" />
  <path d="M49.1348 38.1406L47.3545 48.0313C47.1592 49.1143 47.2188 50.873 47.4854 51.9404L49.5146 60.0596C49.7813 61.127 49.3252 62.2246 48.5 62.5C47.6748 62.7754 46.6768 62.1602 46.2822 61.1338L42.7178 51.8662C42.3232 50.8398 42 49.0996 42 48V41" stroke="black" stroke-width="2" stroke-miterlimit="10" stroke-linecap="round" stroke-linejoin="round" />
  <path d="M51 33L52.8506 26.8314C53.4824 24.724 52.6504 22.5498 51 22C49.3496 21.4502 46.2139 20.7769 44.0313 20.5039L43.9688 20.496C41.7861 20.223 38.4248 19.5713 36.5 19.0469C34.5752 18.5225 33 18.0938 33 18.0938" stroke="black" stroke-width="2" stroke-miterlimit="10" stroke-linecap="round" stroke-linejoin="round" />
  <path d="M16 56L23 45L21 41L27 28L32 25L34 22" stroke="black" stroke-width="2" stroke-miterlimit="10" stroke-linecap="round" stroke-linejoin="round" />
  <path d="M43 30L51 33" stroke="black" stroke-width="2" stroke-miterlimit="10" stroke-linecap="round" stroke-linejoin="round" />
  <path d="M52.2646 33.5723L54.1621 34.2051L52.8975 38L51 37.3672" stroke="black" stroke-width="2" stroke-miterlimit="10" stroke-linecap="round" stroke-linejoin="round" />
  <path d="M37 16L39 8" stroke="black" stroke-width="2" stroke-miterlimit="10" stroke-linecap="round" stroke-linejoin="round" />
  <path d="M46 25L45 27" stroke="black" stroke-width="2" stroke-miterlimit="10" stroke-linecap="round" stroke-linejoin="round" />
</svg>