<?xml version="1.0" encoding="iso-8859-1"?>
<!-- Generator: Adobe Illustrator 19.0.0, SVG Export Plug-In . SVG Version: 6.00 Build 0)  -->
<svg version="1.1" id="Layer_1" xmlns="http://www.w3.org/2000/svg" xmlns:xlink="http://www.w3.org/1999/xlink" x="0px" y="0px" viewBox="0 0 512 512" style="enable-background:new 0 0 512 512;" xml:space="preserve" fill="currentColor">
	<g>
		<g>
			<path d="M486.881,38.48H264.017v-9.086c0-4.427-3.589-8.017-8.017-8.017s-8.017,3.589-8.017,8.017v9.086H25.119
			C11.268,38.48,0,49.748,0,63.599v384.802c0,13.851,11.268,25.119,25.119,25.119h222.864v9.086c0,4.427,3.589,8.017,8.017,8.017
			s8.017-3.589,8.017-8.017v-9.086h222.864c13.851,0,25.119-11.268,25.119-25.119V63.599C512,49.748,500.732,38.48,486.881,38.48z
			 M16.033,63.599c0-5.01,4.076-9.086,9.086-9.086h17.637v26.722H16.033V63.599z M247.983,378.538l-57.376-153.001h57.376V378.538z
			 M167.471,209.503h-63.14l45.92-45.921L167.471,209.503z M164.954,157.127h69.96l-52.47,46.64L164.954,157.127z M173.484,225.537
			l58.411,155.762L102.093,225.537H173.484z M247.983,209.503h-47.858l47.858-42.541V209.503z M247.983,141.094h-94.597
			c-2.126,0-4.165,0.844-5.668,2.348l-68.409,68.409c-2.932,2.932-3.145,7.616-0.49,10.8l169.164,202.998v31.837H25.119
			c-5.01,0-9.086-4.076-9.086-9.086V97.269h231.95V141.094z M247.983,81.236H58.789V54.514h189.194V81.236z M426.489,54.514h26.722
			v26.722h-26.722V54.514z M383.733,54.514h26.722v26.722h-26.722V54.514z M264.017,54.514h103.683v26.722H264.017V54.514z
			 M495.967,448.401c0,5.01-4.076,9.086-9.086,9.086H264.017V97.269h231.95V448.401z M495.967,81.236h-26.722V54.514h17.637
			c5.01,0,9.086,4.076,9.086,9.086V81.236z" />
		</g>
	</g>
	<g>
		<g>
			<path d="M315.858,149.645h-17.102c-4.427,0-8.017,3.589-8.017,8.017s3.589,8.017,8.017,8.017h17.102
			c4.427,0,8.017-3.589,8.017-8.017S320.285,149.645,315.858,149.645z" />
		</g>
	</g>
	<g>
		<g>
			<path d="M315.858,218.054h-17.102c-4.427,0-8.017,3.589-8.017,8.017s3.589,8.017,8.017,8.017h17.102
			c4.427,0,8.017-3.589,8.017-8.017S320.285,218.054,315.858,218.054z" />
		</g>
	</g>
	<g>
		<g>
			<path d="M341.511,183.85h-17.102c-4.427,0-8.017,3.589-8.017,8.017s3.589,8.017,8.017,8.017h17.102
			c4.427,0,8.017-3.589,8.017-8.017S345.939,183.85,341.511,183.85z" />
		</g>
	</g>
	<g>
		<g>
			<path d="M461.228,149.645H350.063c-4.427,0-8.017,3.589-8.017,8.017s3.589,8.017,8.017,8.017h111.165
			c4.427,0,8.017-3.589,8.017-8.017S465.655,149.645,461.228,149.645z" />
		</g>
	</g>
	<g>
		<g>
			<path d="M461.228,218.054H350.063c-4.427,0-8.017,3.589-8.017,8.017s3.589,8.017,8.017,8.017h111.165
			c4.427,0,8.017-3.589,8.017-8.017S465.655,218.054,461.228,218.054z" />
		</g>
	</g>
	<g>
		<g>
			<path d="M461.228,183.85h-85.511c-4.427,0-8.017,3.589-8.017,8.017s3.589,8.017,8.017,8.017h85.511
			c4.427,0,8.017-3.589,8.017-8.017S465.655,183.85,461.228,183.85z" />
		</g>
	</g>
	<g>
		<g>
			<path d="M341.511,252.259h-17.102c-4.427,0-8.017,3.589-8.017,8.017s3.589,8.017,8.017,8.017h17.102
			c4.427,0,8.017-3.589,8.017-8.017S345.939,252.259,341.511,252.259z" />
		</g>
	</g>
	<g>
		<g>
			<path d="M461.228,252.259h-85.511c-4.427,0-8.017,3.589-8.017,8.017s3.589,8.017,8.017,8.017h85.511
			c4.427,0,8.017-3.589,8.017-8.017S465.655,252.259,461.228,252.259z" />
		</g>
	</g>
	<g>
		<g>
			<path d="M315.858,286.464h-17.102c-4.427,0-8.017,3.589-8.017,8.017s3.589,8.017,8.017,8.017h17.102
			c4.427,0,8.017-3.589,8.017-8.017S320.285,286.464,315.858,286.464z" />
		</g>
	</g>
	<g>
		<g>
			<path d="M315.858,354.873h-17.102c-4.427,0-8.017,3.589-8.017,8.017s3.589,8.017,8.017,8.017h17.102
			c4.427,0,8.017-3.589,8.017-8.017S320.285,354.873,315.858,354.873z" />
		</g>
	</g>
	<g>
		<g>
			<path d="M341.511,320.668h-17.102c-4.427,0-8.017,3.589-8.017,8.017s3.589,8.017,8.017,8.017h17.102
			c4.427,0,8.017-3.589,8.017-8.017S345.939,320.668,341.511,320.668z" />
		</g>
	</g>
	<g>
		<g>
			<path d="M461.228,286.464H350.063c-4.427,0-8.017,3.589-8.017,8.017s3.589,8.017,8.017,8.017h111.165
			c4.427,0,8.017-3.589,8.017-8.017S465.655,286.464,461.228,286.464z" />
		</g>
	</g>
	<g>
		<g>
			<path d="M461.228,354.873H350.063c-4.427,0-8.017,3.589-8.017,8.017s3.589,8.017,8.017,8.017h111.165
			c4.427,0,8.017-3.589,8.017-8.017S465.655,354.873,461.228,354.873z" />
		</g>
	</g>
	<g>
		<g>
			<path d="M461.228,320.668h-85.511c-4.427,0-8.017,3.589-8.017,8.017s3.589,8.017,8.017,8.017h85.511
			c4.427,0,8.017-3.589,8.017-8.017S465.655,320.668,461.228,320.668z" />
		</g>
	</g>
	<g>
		<g>
			<path d="M341.511,389.077h-17.102c-4.427,0-8.017,3.589-8.017,8.017c0,4.427,3.589,8.017,8.017,8.017h17.102
			c4.427,0,8.017-3.589,8.017-8.017C349.528,392.667,345.939,389.077,341.511,389.077z" />
		</g>
	</g>
	<g>
		<g>
			<path d="M461.228,389.077h-85.511c-4.427,0-8.017,3.589-8.017,8.017c0,4.427,3.589,8.017,8.017,8.017h85.511
			c4.427,0,8.017-3.589,8.017-8.017C469.244,392.667,465.655,389.077,461.228,389.077z" />
		</g>
	</g>
</svg>