<svg version="1.1" id="Capa_1" xmlns="http://www.w3.org/2000/svg" xmlns:xlink="http://www.w3.org/1999/xlink" x="0px" y="0px" viewBox="0 0 60.024 60.024" style="enable-background:new 0 0 60.024 60.024;" xml:space="preserve" fill="currentColor">
	<g>
		<path d="M23.517,38.424l-8.374,8.374l-0.707-0.707l8.374-8.374c0.391-0.391,0.391-1.023,0-1.414s-1.023-0.391-1.414,0l-8.374,8.374
		l-0.707-0.707l9.374-9.374c0.391-0.391,0.391-1.023,0-1.414s-1.023-0.391-1.414,0L10.9,42.556l-1.414-1.415
		c-0.192-0.191-0.453-0.299-0.727-0.293c-0.272,0.006-0.53,0.121-0.714,0.321l-2.83,3.06c-0.365,0.394-0.353,1.006,0.027,1.386
		l8.485,8.485c0.188,0.188,0.442,0.293,0.707,0.293c0.006,0,0.013,0,0.02,0c0.272-0.006,0.53-0.121,0.715-0.321l2.83-3.06
		c0.364-0.395,0.353-1.006-0.027-1.386l-1.414-1.414l8.374-8.374c0.391-0.391,0.391-1.023,0-1.414S23.907,38.034,23.517,38.424z
		 M14.406,51.951l-7.07-7.07l1.471-1.59l1.385,1.386c0,0,0,0.001,0.001,0.001c0,0,0.001,0,0.001,0.001l2.119,2.12c0,0,0,0,0,0.001
		l0.001,0l3.562,3.562L14.406,51.951z" />
		<path d="M59.715,2.215L59.715,2.215c-0.521-1.563-1.871-2.368-3.708-2.191c-0.067,0.005-1.549,0.144-3.668,0.809l-0.54-0.54
		c-0.188-0.188-0.442-0.293-0.707-0.293h-2c-0.265,0-0.52,0.105-0.707,0.293l-1,1c-0.188,0.188-0.293,0.441-0.293,0.707v1.242
		c-0.272,0.169-0.544,0.344-0.814,0.529l-0.479-0.479c-0.188-0.188-0.442-0.293-0.707-0.293h-2c-0.265,0-0.52,0.105-0.707,0.293
		l-1,1c-0.188,0.188-0.293,0.441-0.293,0.707v2c0,0.266,0.105,0.52,0.293,0.707l0.366,0.366c-0.299,0.551-0.477,1.147-0.55,1.757
		L25.097,28.653c0.111-0.541,0.256-1.116,0.446-1.72c0.372-1.184,0.187-2.463-0.507-3.51c-0.67-1.012-1.731-1.656-2.91-1.77
		c-1.678-0.16-3.262,0.688-4.699,2.525l-0.115,0.146l-0.054,0.179c-0.732,2.406-3.405,8.859-6.93,9.803
		c-2.819,0.755-4.88,1.786-6.486,3.244c-4.148,3.765-4.864,8.636-2.014,13.718c1.18,2.104,2.815,3.976,4.859,5.562
		c0.632,0.49,1.276,0.943,1.916,1.349c1.94,1.226,4.124,1.845,6.314,1.845c1.763,0,3.531-0.401,5.179-1.212
		c3.572-1.757,5.926-5.166,6.297-9.125l0.021-0.26c0.261-3.463,2.375-6.408,5.384-7.502c0.326-0.119,0.669-0.229,1.028-0.328
		c0.8-0.22,1.485-0.759,1.881-1.479c0.365-0.664,0.448-1.417,0.234-2.119c-0.387-1.268-1.685-2.547-5.702-1.434
		c-0.019,0.005-0.254,0.064-0.621,0.053l18.266-21.16c0.242-0.042,0.484-0.098,0.725-0.177c0.602-0.197,1.173-0.487,1.699-0.859
		c0.807-0.572,1.427-1.44,1.745-2.445c0.042-0.132,0.082-0.273,0.124-0.423c0.205-0.728,0.417-1.48,1.222-2.229
		c0.394-0.366,1.435-0.786,2.195-1.093l0.378-0.152c0.125-0.052,0.359-0.093,0.607-0.138c0.82-0.146,2.06-0.367,3.141-1.536
		C59.806,5.237,60.185,3.631,59.715,2.215z M49.506,2.001h1.16l0.426,0.419v1.167l-0.414,0.414h-1.172l-0.414-0.414V2.415
		L49.506,2.001z M43.506,5.001h1.172l0.414,0.414v1.172l-0.414,0.414h-1.172l-0.414-0.414V5.415L43.506,5.001z M39.215,21.286
		l-2.792-2.793l5.165-6.037c0.136,0.315,0.294,0.625,0.497,0.919c0.611,0.889,1.433,1.52,2.352,1.862L39.215,21.286z M35.284,25.84
		l-2.774-2.774l2.609-3.049l2.786,2.786L35.284,25.84z M31.353,30.394l-2.755-2.755l2.608-3.049l2.768,2.767L31.353,30.394z
		 M26.555,35.866c-0.219-0.162-0.419-0.348-0.602-0.555c-0.031-0.035-0.06-0.07-0.09-0.105c-0.176-0.213-0.334-0.445-0.47-0.695
		c-0.021-0.038-0.039-0.078-0.059-0.117c-0.132-0.261-0.245-0.535-0.328-0.826c-0.008-0.029-0.013-0.059-0.021-0.088
		c-0.083-0.309-0.144-0.629-0.168-0.962c-0.01-0.138-0.018-0.284-0.022-0.437l2.498-2.92l2.749,2.749l-3.441,3.986
		C26.586,35.887,26.57,35.877,26.555,35.866z M29.795,38.488c1.823-0.504,3.063-0.47,3.235,0.096c0.071,0.232,0,0.439-0.073,0.571
		c-0.135,0.245-0.381,0.438-0.659,0.515c-0.414,0.113-0.809,0.24-1.183,0.377c-3.746,1.361-6.374,4.984-6.694,9.229l-0.019,0.229
		c-0.305,3.258-2.245,6.066-5.188,7.514c-3.065,1.509-6.632,1.31-9.542-0.528c-0.586-0.371-1.178-0.787-1.759-1.238
		c-1.832-1.421-3.292-3.09-4.341-4.96C1.157,45.984,1.7,42.196,5.186,39.032c1.361-1.235,3.159-2.123,5.659-2.793
		c4.962-1.328,7.817-9.571,8.267-10.965c0.952-1.171,1.899-1.719,2.822-1.63c0.576,0.056,1.098,0.378,1.434,0.884
		c0.359,0.542,0.457,1.2,0.266,1.806c-0.573,1.828-0.841,3.61-0.833,5.32c-0.002,0.026-0.013,0.051-0.013,0.077
		c0.003,0.331,0.014,0.647,0.035,0.935c0.04,0.548,0.141,1.078,0.298,1.583c0.468,1.513,1.431,2.786,2.732,3.556
		c0.022,0.013,0.042,0.02,0.064,0.033c0.152,0.086,0.3,0.16,0.48,0.245c0.002,0.001,0.004,0,0.007,0.001
		C28.215,38.929,29.655,38.532,29.795,38.488z M57.256,5.048c-0.625,0.676-1.336,0.803-2.023,0.925
		c-0.356,0.063-0.692,0.123-1.014,0.255l-0.368,0.149c-1.006,0.405-2.146,0.864-2.811,1.482c-1.216,1.132-1.559,2.348-1.785,3.153
		c-0.036,0.127-0.069,0.247-0.105,0.36c-0.188,0.592-0.541,1.095-0.996,1.417c-0.363,0.257-0.755,0.456-1.166,0.591
		c-0.186,0.061-0.367,0.103-0.542,0.127c-0.043-0.002-0.085-0.013-0.129-0.009c-0.774,0.063-1.533-0.216-2.128-0.782
		c-0.668-0.637-1.05-1.55-1.023-2.445c0.001-0.022-0.007-0.042-0.008-0.063c0.025-0.4,0.129-0.809,0.355-1.208h1.579h0.414
		l0.293-0.293l1-1l0.293-0.293V7.001V5.634c0.241-0.171,0.483-0.336,0.726-0.494l0.567,0.567l0.293,0.293h0.414h2h0.414l0.293-0.293
		l1-1l0.293-0.293V4.001V2.689c1.817-0.555,3.074-0.672,3.093-0.673c1.157-0.108,1.476,0.358,1.632,0.83
		C58.054,3.559,57.833,4.423,57.256,5.048z" />
	</g>
</svg>