<svg viewBox="0 0 36 36" fill="none" xmlns="http://www.w3.org/2000/svg">
  <path
    d="M23.4597 6.23618C23.4178 6.04645 23.3224 5.87789 23.1907 5.74608L20.3623 2.91761C20.1989 2.75418 19.9797 2.64727 19.7375 2.62651C19.5862 2.6145 19.4349 2.60434 19.2833 2.59637L19.2767 2.59603C19.0379 2.58359 18.7982 2.57662 18.5563 2.5765L18.55 2.57025C18.409 2.57025 18.2685 2.57234 18.1284 2.5765C17.9347 2.58225 17.7421 2.59195 17.5505 2.60551C10.2988 3.11897 4.5813 9.17566 4.5813 16.5703L4.58131 16.5858L4.5813 16.6013C4.5813 20.4721 6.148 23.9763 8.68134 26.5107L11.5097 29.3391C14.0362 31.8667 17.5242 33.4297 21.3784 33.4297C25.1659 33.4297 28.5972 31.9172 31.1159 29.4672C31.3174 29.2697 31.4228 29.0021 31.4186 28.733C31.421 28.5745 31.3857 28.4147 31.3097 28.2674C31.2613 28.1737 31.199 28.0895 31.1268 28.0172L28.2988 25.1891C28.0726 24.9628 27.7457 24.8509 27.4188 24.9077C27.026 24.9759 26.628 25.0235 26.2232 25.0488C25.9969 25.063 25.7684 25.0703 25.5375 25.0703C24.1321 25.0703 22.7883 24.805 21.5531 24.3218L21.5509 24.3209C21.4177 24.2687 21.2856 24.214 21.155 24.1568L21.1507 24.1549C20.5117 23.8749 19.9044 23.5356 19.3358 23.1439C18.9444 22.576 18.6049 21.9692 18.3242 21.3308C18.2319 21.1207 18.1458 20.9071 18.0664 20.6903C17.8609 20.1291 17.6996 19.5464 17.587 18.9465C17.4922 18.4418 17.4318 17.925 17.4083 17.3986C17.4011 17.2373 17.3974 17.0752 17.3972 16.9122C17.4036 12.807 19.6519 9.23329 22.9784 7.34847C23.3003 7.16378 23.4885 6.82317 23.4829 6.4658C23.4841 6.38976 23.4766 6.31277 23.4597 6.23618Z"
    fill="var(--icon-secondary)" />
  <path
    d="M18.55 2.60129C10.8313 2.60129 4.5813 8.87004 4.5813 16.6013C4.5813 24.3325 10.8313 30.6013 18.55 30.6013C22.3375 30.6013 25.7688 29.0888 28.2875 26.6388C28.6 26.3325 28.6813 25.8575 28.4813 25.47C28.2813 25.0825 27.85 24.8638 27.4188 24.9388C26.8063 25.045 26.1813 25.1013 25.5375 25.1013C19.4813 25.1013 14.5688 20.1763 14.5688 14.1013C14.5688 9.98879 16.8188 6.40754 20.15 4.52004C20.5313 4.30129 20.725 3.86379 20.6313 3.43879C20.5375 3.01379 20.175 2.69504 19.7375 2.65754C19.3438 2.62629 18.95 2.60754 18.55 2.60754V2.60129Z"
    fill="var(--icon-primary)" stroke="var(--icon-secondary)" stroke-width="2" />
</svg>