<svg viewBox="0 0 36 36" fill="none" xmlns="http://www.w3.org/2000/svg">
  <path
    d="M10.8906 0.635127C10.6073 0.439965 10.2485 0.402179 9.93374 0.534385C9.61897 0.666592 9.39233 0.949892 9.32937 1.28356L8.07651 8.07648L1.28358 9.32929C0.949912 9.39224 0.666612 9.61888 0.534405 9.93366C0.402199 10.2484 0.440016 10.6073 0.635178 10.8906L4.55736 16.5755L0.635233 22.2604C0.44007 22.5437 0.402243 22.9025 0.534449 23.2173C0.585988 23.34 0.660446 23.4493 0.751941 23.5408L3.60059 26.3894C3.7438 26.5326 3.92902 26.6323 4.1326 26.6707L8.52014 27.4799L9.32934 31.8674C9.36779 32.0711 9.4673 32.2561 9.61062 32.3994L12.4592 35.2481C12.5506 35.3394 12.6601 35.4141 12.7827 35.4656C13.0975 35.5978 13.4563 35.56 13.7396 35.3649L19.4245 31.4427L25.1094 35.3649C25.3927 35.56 25.7515 35.5978 26.0663 35.4656C26.3811 35.3334 26.6077 35.0501 26.6707 34.7164L27.9235 27.9235L34.7164 26.6707C35.0501 26.6077 35.3334 26.3811 35.4656 26.0663C35.5978 25.7516 35.56 25.3927 35.3649 25.1094L31.4427 19.4245L35.3649 13.7333C35.56 13.45 35.5978 13.0912 35.4656 12.7764C35.414 12.6537 35.3395 12.5444 35.248 12.4529L32.3991 9.60388C32.2559 9.46075 32.071 9.36141 31.8674 9.323L27.4795 8.5178L26.6707 4.13262C26.6322 3.92886 26.5328 3.74388 26.3894 3.60063L23.5405 0.751566C23.4491 0.660233 23.3399 0.585871 23.2174 0.534399C22.9026 0.402192 22.5437 0.439958 22.2604 0.635121L16.5755 4.55725L10.8906 0.635127Z"
    fill="var(--icon-secondary)" />
  <path
    d="M22.8228 1.44411C23.1244 1.57075 23.3415 1.84214 23.4018 2.16176L24.6019 8.66891L31.109 9.86299C31.4287 9.9233 31.7 10.1404 31.8267 10.4419C31.9533 10.7435 31.9171 11.0872 31.7302 11.3586L27.9731 16.8104L31.7302 22.2561C31.9171 22.5275 31.9533 22.8713 31.8267 23.1728C31.7 23.4743 31.4287 23.6914 31.109 23.7517L24.6019 24.9519L23.4018 31.459C23.3415 31.7786 23.1244 32.05 22.8228 32.1767C22.5213 32.3033 22.1775 32.2671 21.9062 32.0802L16.4604 28.323L11.0147 32.0802C10.7433 32.2671 10.3995 32.3033 10.098 32.1767C9.79646 32.05 9.57936 31.7786 9.51905 31.459L8.31894 24.9519L1.81179 23.7517C1.49216 23.6914 1.22078 23.4743 1.09413 23.1728C0.967488 22.8713 1.00367 22.5275 1.19062 22.2561L4.94776 16.8104L1.19062 11.3646C1.00367 11.0933 0.967488 10.7495 1.09413 10.448C1.22078 10.1464 1.49216 9.92933 1.81179 9.86903L8.31894 8.66891L9.51905 2.16176C9.57936 1.84214 9.79646 1.57075 10.098 1.44411C10.3995 1.31746 10.7433 1.35365 11.0147 1.5406L16.4604 5.29774L21.9062 1.5406C22.1775 1.35365 22.5213 1.31746 22.8228 1.44411ZM22.2499 16.8104C22.2499 20.0067 19.6567 22.5999 16.4604 22.5999C13.2641 22.5999 10.6709 20.0067 10.6709 16.8104C10.6709 13.6141 13.2641 11.0209 16.4604 11.0209C19.6567 11.0209 22.2499 13.6141 22.2499 16.8104ZM24.1797 16.8104C24.1797 12.5467 20.7241 9.09106 16.4604 9.09106C12.1967 9.09106 8.74109 12.5467 8.74109 16.8104C8.74109 21.0741 12.1967 24.5297 16.4604 24.5297C20.7241 24.5297 24.1797 21.0741 24.1797 16.8104Z"
    fill="var(--icon-primary)" stroke="var(--icon-secondary)" stroke-width="1.5" />
</svg>