<svg width="256" height="256" viewBox="0 0 256 256" fill="none" xmlns="http://www.w3.org/2000/svg">
  <path d="M80.688 114.54c0 2.694.29 4.878.8 6.48a38.948 38.948 0 0 0 2.33 5.242c.364.582.51 1.165.51 1.674 0 .728-.437 1.456-1.383 2.184l-4.587 3.058c-.655.437-1.31.655-1.893.655-.728 0-1.456-.364-2.184-1.019a22.51 22.51 0 0 1-2.62-3.422c-.729-1.237-1.457-2.621-2.258-4.295-5.679 6.698-12.813 10.047-21.404 10.047-6.115 0-10.993-1.748-14.56-5.242-3.568-3.495-5.388-8.154-5.388-13.978 0-6.189 2.184-11.212 6.625-14.998 4.441-3.785 10.338-5.678 17.837-5.678 2.475 0 5.023.218 7.717.582s5.46.947 8.372 1.602v-5.315c0-5.533-1.165-9.392-3.421-11.648-2.33-2.257-6.261-3.35-11.867-3.35a33.12 33.12 0 0 0-7.863.947c-2.694.655-5.315 1.456-7.863 2.475-1.165.51-2.038.801-2.548.947-.51.145-.873.218-1.165.218-1.019 0-1.529-.728-1.529-2.257v-3.567c0-1.165.146-2.038.51-2.548.364-.51 1.02-1.02 2.038-1.529 2.549-1.31 5.606-2.403 9.174-3.276 3.567-.947 7.353-1.383 11.357-1.383 8.663 0 14.997 1.965 19.074 5.897 4.005 3.931 6.043 9.9 6.043 17.91v23.587h.146ZM51.13 125.606c2.402 0 4.877-.436 7.498-1.31 2.621-.874 4.95-2.475 6.917-4.659 1.165-1.384 2.038-2.913 2.475-4.66.437-1.747.728-3.858.728-6.334v-3.057a60.654 60.654 0 0 0-6.698-1.238 54.9 54.9 0 0 0-6.843-.437c-4.878 0-8.446.947-10.848 2.912-2.403 1.966-3.567 4.732-3.567 8.373 0 3.421.873 5.969 2.693 7.717 1.748 1.82 4.296 2.693 7.645 2.693Zm58.46 7.863c-1.31 0-2.184-.218-2.766-.728-.582-.437-1.092-1.456-1.529-2.839L88.186 73.625c-.437-1.456-.655-2.402-.655-2.912 0-1.165.583-1.82 1.747-1.82h7.135c1.383 0 2.33.218 2.84.728.582.437 1.019 1.456 1.455 2.84l12.231 48.195 11.358-48.196c.364-1.456.801-2.402 1.383-2.84.582-.436 1.602-.727 2.912-.727h5.824c1.384 0 2.33.218 2.912.728.583.437 1.092 1.456 1.384 2.84l11.503 48.777 12.594-48.778c.437-1.456.947-2.402 1.457-2.84.582-.436 1.528-.727 2.839-.727h6.771c1.164 0 1.82.582 1.82 1.82 0 .364-.073.728-.146 1.165-.073.437-.218 1.019-.51 1.82l-17.545 56.277c-.437 1.456-.947 2.402-1.529 2.839-.582.437-1.529.728-2.767.728h-6.261c-1.383 0-2.329-.218-2.912-.728-.582-.51-1.092-1.456-1.383-2.912l-11.284-46.958-11.212 46.885c-.364 1.456-.801 2.403-1.383 2.912-.583.51-1.602.728-2.912.728h-6.262Zm93.552 1.966c-3.785 0-7.571-.437-11.211-1.311-3.64-.873-6.48-1.82-8.373-2.912-1.164-.655-1.965-1.383-2.257-2.038a5.14 5.14 0 0 1-.436-2.039v-3.713c0-1.528.582-2.257 1.674-2.257.437 0 .874.073 1.311.219.436.146 1.092.437 1.82.728a39.573 39.573 0 0 0 8.008 2.548 43.75 43.75 0 0 0 8.664.874c4.586 0 8.154-.801 10.629-2.403 2.475-1.602 3.786-3.931 3.786-6.916 0-2.039-.656-3.713-1.966-5.096-1.311-1.384-3.786-2.621-7.353-3.786l-10.557-3.276c-5.314-1.675-9.246-4.15-11.648-7.426-2.403-3.204-3.64-6.77-3.64-10.557 0-3.057.655-5.751 1.965-8.08 1.311-2.33 3.058-4.369 5.242-5.97 2.184-1.675 4.66-2.913 7.572-3.786 2.912-.874 5.97-1.238 9.173-1.238 1.602 0 3.276.073 4.878.291 1.674.219 3.203.51 4.732.801 1.456.364 2.839.728 4.15 1.165 1.31.437 2.329.873 3.057 1.31 1.02.583 1.748 1.165 2.185 1.82.436.583.655 1.384.655 2.403v3.422c0 1.528-.583 2.33-1.675 2.33-.582 0-1.529-.292-2.766-.874-4.15-1.893-8.809-2.84-13.978-2.84-4.15 0-7.426.656-9.683 2.039-2.257 1.383-3.422 3.494-3.422 6.48 0 2.038.728 3.785 2.184 5.168 1.456 1.384 4.15 2.767 8.008 4.005l10.338 3.276c5.242 1.674 9.028 4.004 11.285 6.989 2.257 2.985 3.349 6.406 3.349 10.192 0 3.131-.655 5.97-1.893 8.445-1.31 2.476-3.058 4.66-5.315 6.407-2.257 1.82-4.95 3.131-8.081 4.077-3.276 1.019-6.698 1.529-10.411 1.529Z" fill="#252F3E"/>
  <path fill-rule="evenodd" clip-rule="evenodd" d="M216.902 170.817C192.95 188.508 158.15 197.9 128.228 197.9c-41.935 0-79.72-15.507-108.258-41.279-2.257-2.039-.219-4.805 2.475-3.204 30.869 17.91 68.945 28.758 108.331 28.758 26.573 0 55.767-5.534 82.632-16.891 4.004-1.82 7.425 2.621 3.494 5.533Z" fill="#F90"/>
  <path fill-rule="evenodd" clip-rule="evenodd" d="M226.876 159.46c-3.058-3.931-20.239-1.893-28.029-.946-2.33.291-2.694-1.748-.583-3.277 13.687-9.61 36.183-6.843 38.804-3.64 2.621 3.276-.728 25.773-13.541 36.547-1.966 1.675-3.859.801-2.985-1.383 2.912-7.207 9.392-23.442 6.334-27.301Z" fill="#F90"/>
</svg>
