<svg width="256" height="256" viewBox="0 0 256 256" fill="none" xmlns="http://www.w3.org/2000/svg">
<rect x="112.845" y="96.0769" width="100.638" height="93.9531" fill="white"/>
<path d="M132.839 139.712C133.276 131.917 137.093 125.049 142.852 120.18C148.5 115.399 156.102 112.476 164.396 112.476C172.682 112.476 180.284 115.399 185.936 120.18C191.69 125.049 195.508 131.917 195.949 139.704C196.386 147.714 193.166 155.154 187.519 160.67C181.76 166.281 173.568 169.801 164.396 169.801C155.224 169.801 147.016 166.281 141.261 160.67C135.609 155.154 132.398 147.714 132.839 139.712V139.712Z" fill="#265787"/>
<path d="M82.5871 155.501C82.6406 158.551 83.6135 164.479 85.0729 169.108C88.1399 178.907 93.3424 187.972 100.581 195.961C108.01 204.173 117.158 210.769 127.723 215.452C138.829 220.37 150.862 222.876 163.361 222.856C175.84 222.839 187.873 220.283 198.979 215.328C209.545 210.6 218.684 203.975 226.1 195.759C233.335 187.737 238.529 178.656 241.604 168.857C243.15 163.906 244.127 158.881 244.519 153.839C244.902 148.872 244.742 143.896 244.037 138.925C242.66 129.237 239.308 120.147 234.147 111.861C229.427 104.247 223.342 97.5817 216.107 91.9712L216.124 91.9588L143.112 35.899C143.046 35.8495 142.993 35.796 142.922 35.7506C138.132 32.0735 130.077 32.0859 124.809 35.7713C119.483 39.4979 118.872 45.6607 123.613 49.5481L123.593 49.5687L154.045 74.3317L61.2289 74.4306H61.1053C53.4335 74.4388 46.0585 79.4722 44.5992 85.8329C43.0986 92.3133 48.3093 97.6888 56.2861 97.7176L56.2738 97.7466L103.319 97.6559L19.3701 162.092C19.2629 162.171 19.1474 162.253 19.0485 162.331C11.1294 168.395 8.56943 178.479 13.5575 184.86C18.6198 191.348 29.3834 191.361 37.385 184.897L83.2013 147.4C83.2013 147.4 82.5335 152.462 82.5871 155.501V155.501ZM200.319 172.452C190.878 182.069 177.662 187.523 163.361 187.552C149.04 187.577 135.824 182.172 126.383 172.571C121.77 167.892 118.382 162.509 116.292 156.774C114.243 151.139 113.447 145.158 113.975 139.122C114.474 133.223 116.23 127.596 119.033 122.505C121.787 117.501 125.58 112.979 130.263 109.153C139.439 101.675 151.122 97.6269 163.341 97.6105C175.572 97.594 187.246 101.605 196.431 109.058C201.106 112.867 204.895 117.373 207.648 122.369C210.464 127.456 212.208 133.063 212.727 138.978C213.246 145.005 212.451 150.978 210.402 156.618C208.308 162.368 204.932 167.752 200.319 172.452V172.452Z" fill="#EA7600"/>
</svg>
