<svg width="256" height="256" viewBox="0 0 256 256" fill="none" xmlns="http://www.w3.org/2000/svg">
  <path d="M173.543 175.936C174.355 173.787 174.641 171.475 174.378 169.193C174.115 166.91 173.309 164.724 172.029 162.817C170.715 161.24 169.102 159.939 167.284 158.986C165.466 158.034 163.478 157.449 161.433 157.266L73.635 156.257C73.1304 156.257 72.6258 155.752 72.1213 155.752C72.0038 155.664 71.9084 155.55 71.8427 155.419C71.777 155.287 71.7428 155.142 71.7428 154.995C71.7428 154.849 71.777 154.704 71.8427 154.572C71.9084 154.441 72.0038 154.327 72.1213 154.239C72.6258 153.229 73.1304 152.725 74.1396 152.725L162.442 151.716C168.048 151.093 173.387 148.989 177.91 145.619C182.433 142.249 185.977 137.735 188.176 132.541L193.222 119.422C193.222 118.917 193.727 118.413 193.222 117.908C190.479 105.689 183.822 94.6999 174.263 86.6098C164.703 78.5197 152.764 73.7713 140.26 73.0862C127.756 72.401 115.369 75.8165 104.983 82.8137C94.5974 89.8108 86.7795 100.007 82.7176 111.853C77.4444 108.087 71.0125 106.301 64.5524 106.807C58.6239 107.468 53.0966 110.126 48.8785 114.344C44.6604 118.562 42.0025 124.09 41.3415 130.018C41.0055 133.053 41.176 136.122 41.846 139.101C32.2535 139.366 23.143 143.363 16.4524 150.242C9.76175 157.122 6.01905 166.34 6.02038 175.936C5.93758 177.8 6.1073 179.667 6.52496 181.486C6.54813 181.88 6.71507 182.252 6.99409 182.531C7.27311 182.81 7.64483 182.977 8.03874 183H170.011C171.02 183 172.029 182.495 172.029 181.486L173.543 175.936Z" fill="currentColor" />
  <path d="M201.294 119.422H198.771C198.266 119.422 197.762 119.926 197.257 120.431L193.725 132.541C192.913 134.69 192.627 137.002 192.89 139.284C193.154 141.567 193.959 143.753 195.239 145.66C196.553 147.237 198.166 148.538 199.984 149.491C201.802 150.443 203.791 151.028 205.835 151.211L224.505 152.22C225.009 152.22 225.514 152.725 226.018 152.725C226.136 152.813 226.231 152.927 226.297 153.058C226.363 153.19 226.397 153.335 226.397 153.481C226.397 153.628 226.363 153.773 226.297 153.905C226.231 154.036 226.136 154.15 226.018 154.238C225.514 155.248 225.009 155.752 224 155.752L204.826 156.761C199.22 157.383 193.881 159.488 189.358 162.858C184.835 166.228 181.292 170.742 179.092 175.936L178.083 180.477C177.578 180.981 178.083 181.991 179.092 181.991H245.697C245.903 182.02 246.113 182.001 246.31 181.935C246.507 181.87 246.686 181.759 246.833 181.612C246.98 181.465 247.09 181.286 247.156 181.089C247.222 180.892 247.241 180.683 247.211 180.477C248.412 176.202 249.09 171.796 249.229 167.358C249.149 154.669 244.073 142.523 235.101 133.55C226.129 124.578 213.982 119.502 201.294 119.422" fill="currentColor" />
</svg>