<svg width="256" height="256" viewBox="0 0 256 256" fill="none" xmlns="http://www.w3.org/2000/svg">
  <path d="m226.524 126.486-28.257-6.56-5.046-2.018-129.679 1.009v62.569l162.982.504v-55.504Z" fill="#fff"/>
  <path d="M173.543 175.936a14.41 14.41 0 0 0-1.514-13.119 15.606 15.606 0 0 0-10.596-5.551l-87.798-1.009c-.505 0-1.01-.505-1.514-.505a.946.946 0 0 1 0-1.513c.505-1.01 1.01-1.514 2.019-1.514l88.302-1.009a31.76 31.76 0 0 0 25.734-19.175l5.046-13.119c0-.505.505-1.009 0-1.514a57.503 57.503 0 0 0-110.504-6.055 27.553 27.553 0 0 0-18.166-5.046 26.286 26.286 0 0 0-23.21 23.211 27.567 27.567 0 0 0 .504 9.083A36.843 36.843 0 0 0 6.02 175.936a20.697 20.697 0 0 0 .505 5.55A1.612 1.612 0 0 0 8.039 183H170.01c1.009 0 2.018-.505 2.018-1.514l1.514-5.55Z" fill="#F48120"/>
  <path d="M201.294 119.422h-2.523c-.505 0-1.009.504-1.514 1.009l-3.532 12.11a14.41 14.41 0 0 0 1.514 13.119 15.603 15.603 0 0 0 10.596 5.551l18.67 1.009c.504 0 1.009.504 1.513.504a.948.948 0 0 1 .279 1.18.94.94 0 0 1-.279.334c-.504 1.009-1.009 1.514-2.018 1.514l-19.174 1.009a31.749 31.749 0 0 0-25.734 19.174l-1.009 4.542c-.505.504 0 1.513 1.009 1.513h66.605a1.328 1.328 0 0 0 1.136-.378 1.341 1.341 0 0 0 .378-1.135 54.868 54.868 0 0 0 2.018-13.12 48.242 48.242 0 0 0-47.935-47.935" fill="#FAAD3F"/>
</svg>
