<svg width="105" height="75" viewBox="0 0 105 75" fill="none" xmlns="http://www.w3.org/2000/svg">
<g clip-path="url(#clip0_101_15)">
<path d="M102.464 32.5472C100.371 32.5472 98.9767 31.3202 98.9767 28.8017V14.3362C98.9767 5.10163 95.1722 0 85.3443 0H80.779V9.75122H82.1741C86.0417 9.75122 87.8805 11.8823 87.8805 15.6924V28.4788C87.8805 34.0324 89.529 36.2927 93.1432 37.4551C89.529 38.553 87.8805 40.8777 87.8805 46.4313C87.8805 49.5957 87.8805 52.7599 87.8805 55.9244C87.8805 58.572 87.8805 61.1551 87.1831 63.8027C86.4856 66.2568 85.3443 68.5815 83.7592 70.5833C82.8715 71.7459 81.857 72.7145 80.7158 73.6187V74.9101H85.2808C95.1088 74.9101 98.9132 69.8085 98.9132 60.5738V46.1084C98.9132 43.5253 100.245 42.3629 102.401 42.3629H105V32.6116H102.464V32.5472Z" fill="black"/>
<path d="M71.3947 14.7257H57.3186C57.0015 14.7257 56.748 14.4674 56.748 14.1445V13.0467C56.748 12.7238 57.0015 12.4655 57.3186 12.4655H71.4581C71.775 12.4655 72.0287 12.7238 72.0287 13.0467V14.1445C72.0287 14.4674 71.7116 14.7257 71.3947 14.7257Z" fill="black"/>
<path d="M73.8044 28.6738H63.5327C63.2156 28.6738 62.9619 28.4154 62.9619 28.0925V26.9948C62.9619 26.672 63.2156 26.4135 63.5327 26.4135H73.8044C74.1215 26.4135 74.375 26.672 74.375 26.9948V28.0925C74.375 28.3509 74.1215 28.6738 73.8044 28.6738Z" fill="black"/>
<path d="M77.862 21.6998H57.3186C57.0015 21.6998 56.748 21.4415 56.748 21.1186V20.0208C56.748 19.6979 57.0015 19.4396 57.3186 19.4396H77.7985C78.1157 19.4396 78.3694 19.6979 78.3694 20.0208V21.1186C78.3694 21.3769 78.1791 21.6998 77.862 21.6998Z" fill="black"/>
<path d="M41.0235 17.888C42.4183 17.888 43.8134 18.0172 45.1448 18.3401V15.6924C45.1448 11.9469 47.047 9.75122 50.8514 9.75122H52.2462V0H47.681C37.853 0 34.0488 5.10163 34.0488 14.3362V19.115C36.2679 18.3401 38.6141 17.888 41.0235 17.888Z" fill="black"/>
<path d="M82.1739 53.0168C81.1594 44.8154 74.9456 37.9701 66.9564 36.4202C64.7373 35.9683 62.518 35.9036 60.3623 36.2911C60.2989 36.2911 60.2989 36.2264 60.2355 36.2264C56.7482 28.8001 49.2664 23.8922 41.1504 23.8922C33.0344 23.8922 25.616 28.671 22.0652 36.0974C22.0018 36.0974 22.0018 36.162 21.9384 36.162C19.6558 35.9036 17.3732 36.0327 15.0906 36.614C7.22825 38.5512 1.26813 45.2674 0.190222 53.4041C0.0633989 54.2436 0 55.0831 0 55.8581C0 58.3119 1.64855 60.5722 4.05796 60.8951C7.03803 61.3473 9.63766 59.0223 9.57426 56.0519C9.57426 55.5997 9.57426 55.0831 9.63766 54.6311C10.1449 50.4981 13.2518 47.011 17.3098 46.0422C18.5779 45.7193 19.846 45.6549 21.0507 45.8487C24.9185 46.3653 28.7228 44.3632 30.3713 40.8761C31.5761 38.293 33.4783 36.0327 36.0145 34.8057C38.8042 33.4495 41.9746 33.256 44.8914 34.2893C47.9347 35.387 50.2172 37.7117 51.6123 40.6177C53.0706 43.4593 53.768 45.4611 56.875 45.8487C58.143 46.0422 61.6937 45.9777 63.0254 45.9131C65.625 45.9131 68.2246 46.8172 70.0634 48.69C71.268 49.9814 72.1557 51.596 72.5362 53.4041C73.1068 56.3101 72.4094 59.2161 70.6974 61.4117C69.4926 62.9616 67.8441 64.124 66.0053 64.6406C65.1176 64.899 64.2299 64.9635 63.3422 64.9635C62.8351 64.9635 62.1377 64.9635 61.3134 64.9635C58.7772 64.9635 53.3877 64.9635 49.3296 64.9635C46.5399 64.9635 44.3206 62.7034 44.3206 59.8618V50.3043V40.9405C44.3206 40.1657 43.6866 39.52 42.9257 39.52H40.9601C37.0922 39.5844 33.9855 43.9759 33.9855 48.6253C33.9855 53.275 33.9855 65.6094 33.9855 65.6094C33.9855 70.6464 37.9799 74.7148 42.9257 74.7148C42.9257 74.7148 64.9276 74.6501 65.2445 74.6501C70.3169 74.1335 75.009 71.4859 78.1792 67.4175C81.3496 63.4782 82.8079 58.3119 82.1739 53.0168Z" fill="black"/>
</g>
<defs>
<clipPath id="clip0_101_15">
<rect width="105" height="75" fill="white"/>
</clipPath>
</defs>
</svg>
