<svg width="90" height="90" viewBox="0 0 90 90" fill="none" xmlns="http://www.w3.org/2000/svg">
  <path d="M86.016 41.504c-1.638 0-2.729-1-2.729-3.05v-11.78c0-7.52-2.976-11.674-10.666-11.674H69.05v7.94h1.092c3.026 0 4.465 1.736 4.465 4.838v10.413c0 4.522 1.29 6.362 4.117 7.309-2.828.894-4.117 2.787-4.117 7.31v7.73c0 2.156 0 4.26-.546 6.415-.546 1.999-1.439 3.892-2.679 5.522-.694.946-1.488 1.735-2.381 2.471V76h3.572c7.69 0 10.666-4.154 10.666-11.674v-11.78c0-2.103 1.042-3.05 2.728-3.05H88v-7.94h-1.984v-.052ZM60.502 27H49.448c-.249 0-.448-.229-.448-.514v-.972c0-.285.2-.514.448-.514h11.104c.249 0 .448.229.448.514v.972a.523.523 0 0 1-.498.514ZM63.5 38h-9a.505.505 0 0 1-.5-.514v-.972c0-.285.222-.514.5-.514h9c.278 0 .5.229.5.514v.972c0 .228-.222.514-.5.514ZM66.578 32H49.475c-.264 0-.475-.114-.475-.257v-.486c0-.143.211-.257.475-.257h17.05c.264 0 .475.114.475.257v.486c0 .114-.158.257-.422.257ZM36.75 29.037c1.149 0 2.299.102 3.396.355v-2.078c0-2.939 1.568-4.662 4.704-4.662H46V15h-3.763C34.136 15 31 19.003 31 26.25V30c1.83-.608 3.763-.963 5.75-.963Z" fill="#fff"/>
  <path d="M69.882 58.496c-.826-6.617-5.884-12.139-12.386-13.39-1.806-.364-3.612-.416-5.367-.104-.051 0-.051-.052-.103-.052C49.188 38.96 43.098 35 36.492 35c-6.605 0-12.643 3.855-15.533 9.846-.052 0-.052.052-.103.052a15.51 15.51 0 0 0-5.574.365c-6.399 1.563-11.25 6.981-12.127 13.545A13.308 13.308 0 0 0 3 60.788c0 1.98 1.342 3.803 3.303 4.063 2.425.365 4.541-1.51 4.49-3.907 0-.365 0-.781.051-1.146.413-3.334 2.942-6.147 6.245-6.929a7.566 7.566 0 0 1 3.044-.156c3.148.417 6.245-1.199 7.586-4.012.98-2.084 2.53-3.907 4.593-4.897a9.405 9.405 0 0 1 7.225-.416c2.477.885 4.335 2.76 5.47 5.105 1.187 2.292 1.755 3.907 4.284 4.22 1.032.156 3.922.104 5.006.052 2.115 0 4.231.73 5.728 2.24a7.98 7.98 0 0 1 2.013 3.803c.464 2.344-.104 4.689-1.497 6.46-.98 1.25-2.322 2.188-3.819 2.605-.723.208-1.445.26-2.168.26H43.15c-2.27 0-4.076-1.823-4.076-4.115V48.753a1.15 1.15 0 0 0-1.136-1.146h-1.6c-3.148.052-5.676 3.595-5.676 7.346v13.701c0 4.064 3.251 7.346 7.276 7.346l18.166-.052c4.128-.417 7.947-2.553 10.527-5.835 2.58-3.178 3.768-7.346 3.252-11.617Z" fill="#fff"/>
</svg>
