<svg width="256" height="256" viewBox="0 0 256 256" fill="none" xmlns="http://www.w3.org/2000/svg">
<path d="M71.3456 172.029C65.6265 172.029 60.4273 167.367 60.4273 161.669C60.4273 155.971 65.1066 151.309 71.3456 151.309C77.5846 151.309 82.2638 155.971 82.2638 161.669C82.2638 167.367 77.0647 172.029 71.3456 172.029ZM205.484 115.568C204.444 107.281 199.245 100.547 192.486 95.3669L189.887 93.295L187.807 95.8849C183.648 100.547 182.088 108.835 182.608 115.05C183.128 119.712 184.688 124.374 187.287 128C185.207 129.036 182.608 130.072 180.528 131.108C175.849 132.662 171.17 133.18 166.49 133.18H31.8319L31.312 136.288C30.2721 146.129 31.8319 156.489 35.9912 165.813L38.0709 169.439V169.957C50.5489 190.676 72.9053 200 97.3414 200C144.134 200 182.608 179.799 200.805 136.288C212.763 136.806 224.721 133.698 230.44 122.302L232 119.712L229.4 118.158C222.641 114.014 213.283 113.496 205.484 115.568V115.568ZM138.415 107.281H118.138V127.482H138.415V107.281ZM138.415 81.8993H118.138V102.101H138.415V81.8993ZM138.415 56H118.138V76.2014H138.415V56V56ZM163.371 107.281H143.094V127.482H163.371V107.281ZM87.9829 107.281H67.7062V127.482H87.9829V107.281V107.281ZM113.459 107.281H93.1821V127.482H113.459V107.281ZM63.0269 107.281H42.7501V127.482H63.0269V107.281V107.281ZM113.459 81.8993H93.1821V102.101H113.459V81.8993ZM87.9829 81.8993H67.7062V102.101H87.9829V81.8993V81.8993Z" fill="#0DB7ED"/>
</svg>
