<svg width="256" height="256" viewBox="0 0 256 256" fill="none" xmlns="http://www.w3.org/2000/svg">
  <path fill-rule="evenodd" clip-rule="evenodd" d="M230 128c0 56.333-45.667 102-102 102S26 184.333 26 128 71.667 26 128 26s102 45.667 102 102ZM127.695 69.385a10.17 10.17 0 0 0 9.04-5.506c14.669 8.382 25.406 36.177 25.406 68.478 0 13.688-1.911 26.799-5.451 38.114a2.129 2.129 0 0 0 .65 2.29 2.133 2.133 0 0 0 2.368.25 2.137 2.137 0 0 0 1.038-1.27h-.001c3.674-11.737 5.646-25.276 5.646-39.384 0-34.304-11.699-63.997-28.535-72.704.006-.145.009-.291.009-.438 0-5.618-4.553-10.171-10.17-10.171s-10.171 4.553-10.171 10.17c0 5.618 4.554 10.171 10.171 10.171Zm0-4.25a5.923 5.923 0 0 1-5.921-5.92 5.922 5.922 0 0 1 5.921-5.921 5.92 5.92 0 0 1 4.186 10.107 5.92 5.92 0 0 1-4.186 1.734Zm1.553 74.414a7.358 7.358 0 1 1-3.107-14.385 7.358 7.358 0 0 1 3.107 14.385Zm-1.553 68.075c-13.051 0-24.658-12.198-31.753-32.008a2.126 2.126 0 1 1 4.002-1.432c6.557 18.31 16.909 29.189 27.751 29.189 7.797 0 15.378-5.585 21.55-15.851a2.115 2.115 0 0 1 2.144-1.035 2.136 2.136 0 0 1 1.406.846 2.118 2.118 0 0 1 .385 1.595 2.13 2.13 0 0 1-.293.784c-6.867 11.423-15.674 17.912-25.192 17.912Zm62.902-48.135c5.617 0 10.17 4.553 10.17 10.17s-4.553 10.171-10.17 10.171c-2.214 0-4.262-.707-5.932-1.908-16.225 9.545-47.217 4.676-76.381-12.162-12.415-7.167-23.301-15.804-31.68-25.012a2.124 2.124 0 0 1 .848-3.437 2.13 2.13 0 0 1 1.629.08c.252.12.48.288.667.496 8.076 8.876 18.618 17.24 30.662 24.193 27.523 15.891 56.508 20.62 71.344 12.607a10.124 10.124 0 0 1-1.328-5.028c0-5.617 4.554-10.17 10.171-10.17Zm-3.768 14.737a2.116 2.116 0 0 0-.852-.864 5.91 5.91 0 0 1-1.301-3.703 5.92 5.92 0 1 1 2.153 4.567Zm-112.012-4.567c0 5.617-4.553 10.171-10.171 10.171-5.616 0-10.17-4.554-10.17-10.171 0-3.824 2.11-7.155 5.23-8.892-1.532-19.009 18.447-44.49 48.641-61.922 12.541-7.24 25.6-12.38 37.869-15.01a2.122 2.122 0 0 1 2.224.858 2.124 2.124 0 0 1-.56 2.977 2.123 2.123 0 0 1-.774.321c-11.823 2.534-24.468 7.51-36.634 14.534-28.435 16.417-47.237 40.079-46.585 56.992.25-.019.504-.028.759-.028 5.617 0 10.171 4.553 10.171 10.17Zm-14.358 4.187a5.922 5.922 0 0 0 10.108-4.187 5.92 5.92 0 0 0-10.108-4.186 5.92 5.92 0 0 0 0 8.373Zm45.628-90.718c-20.722-3.774-37.108.176-43.638 11.487-4.873 8.441-3.48 19.631 3.379 31.593a2.137 2.137 0 0 0 1.288 1.028 2.117 2.117 0 0 0 1.635-.202 2.114 2.114 0 0 0 1-1.309 2.13 2.13 0 0 0-.237-1.631c-6.177-10.776-7.38-20.433-3.384-27.354 5.425-9.396 20.04-12.92 39.196-9.43a2.124 2.124 0 0 0 .761-4.182Zm75.001 55.035c13.569-16.03 18.306-32.153 11.79-43.44-4.795-8.306-14.932-12.69-28.405-12.866a2.126 2.126 0 0 0-.055 4.25c12.116.157 20.85 3.935 24.78 10.742 5.412 9.375 1.187 23.752-11.354 38.568a2.12 2.12 0 0 0-.286 2.359 2.14 2.14 0 0 0 1.25 1.058 2.121 2.121 0 0 0 2.28-.671Z" fill="currentColor"/>
</svg>
