<svg width="256" height="256" viewBox="0 0 256 256" fill="none" xmlns="http://www.w3.org/2000/svg">
  <path d="M128 230c56.333 0 102-45.667 102-102S184.333 26 128 26 26 71.667 26 128s45.667 102 102 102Z" fill="#2B2E3A"/>
  <path d="M106.087 83.128c-20.722-3.774-37.108.176-43.638 11.487-4.873 8.44-3.48 19.631 3.379 31.593a2.137 2.137 0 0 0 1.288 1.028 2.136 2.136 0 0 0 1.635-.202 2.128 2.128 0 0 0 .763-2.94c-6.177-10.776-7.38-20.433-3.384-27.354 5.425-9.396 20.04-12.92 39.196-9.431a2.124 2.124 0 0 0 .761-4.181Zm-29.483 57.619c8.379 9.208 19.265 17.846 31.68 25.013 30.061 17.356 62.063 21.994 77.835 11.24.236-.154.439-.355.596-.589a2.13 2.13 0 0 0-.007-2.384 2.12 2.12 0 0 0-2.983-.538c-14.116 9.625-44.515 5.218-73.315-11.409-12.044-6.954-22.586-15.318-30.662-24.193a2.129 2.129 0 0 0-2.296-.576 2.12 2.12 0 0 0-1.405 1.904 2.123 2.123 0 0 0 .557 1.532Z" fill="#9FEAF9"/>
  <path d="M181.088 138.163c13.569-16.03 18.306-32.153 11.79-43.44-4.795-8.306-14.932-12.69-28.405-12.866a2.126 2.126 0 0 0-.055 4.25c12.116.157 20.85 3.935 24.78 10.742 5.412 9.375 1.187 23.752-11.354 38.568a2.12 2.12 0 0 0-.286 2.359 2.14 2.14 0 0 0 1.25 1.058 2.121 2.121 0 0 0 2.28-.671Zm-34.872-54.327c-12.269 2.629-25.328 7.768-37.869 15.009-31.032 17.916-51.275 44.335-48.464 63.491a2.132 2.132 0 0 0 .828 1.414 2.134 2.134 0 0 0 2.374.124 2.135 2.135 0 0 0 .97-1.321c.066-.273.077-.557.033-.835-2.496-17.008 16.692-42.05 46.384-59.193 12.166-7.024 24.811-12 36.634-14.534a2.123 2.123 0 0 0 1.667-2.53 2.124 2.124 0 0 0-2.557-1.625Z" fill="#9FEAF9"/>
  <path d="M95.942 175.616c7.095 19.81 18.702 32.008 31.753 32.008 9.518 0 18.325-6.489 25.192-17.912a2.13 2.13 0 0 0-.092-2.379 2.133 2.133 0 0 0-1.406-.846 2.115 2.115 0 0 0-2.144 1.035c-6.172 10.266-13.753 15.851-21.55 15.851-10.842 0-21.194-10.879-27.751-29.189a2.122 2.122 0 0 0-1.9-1.447 2.117 2.117 0 0 0-1.551.555 2.123 2.123 0 0 0-.55 2.324h-.001Zm64.803-3.875c3.674-11.737 5.646-25.276 5.646-39.384 0-35.206-12.322-65.554-29.872-73.346a2.126 2.126 0 0 0-1.725 3.884c15.653 6.95 27.347 35.752 27.347 69.462 0 13.688-1.911 26.799-5.451 38.114a2.129 2.129 0 0 0 .65 2.29 2.133 2.133 0 0 0 2.368.25 2.137 2.137 0 0 0 1.038-1.27h-.001Zm40.022-2.082c0-5.617-4.553-10.17-10.17-10.17s-10.171 4.553-10.171 10.17 4.554 10.171 10.171 10.171c5.617 0 10.17-4.554 10.17-10.171Zm-4.249 0a5.91 5.91 0 0 1-1.734 4.187 5.914 5.914 0 0 1-4.187 1.734 5.91 5.91 0 0 1-4.187-1.734 5.914 5.914 0 0 1-1.734-4.187 5.92 5.92 0 0 1 11.842 0ZM64.646 179.83c5.618 0 10.171-4.554 10.171-10.171 0-5.617-4.554-10.17-10.171-10.17-5.616 0-10.17 4.553-10.17 10.17s4.554 10.171 10.17 10.171Zm0-4.25a5.922 5.922 0 0 1-5.92-5.921 5.92 5.92 0 0 1 10.107-4.186 5.92 5.92 0 0 1-4.187 10.107Z" fill="#9FEAF9"/>
  <path d="M127.695 69.385c5.617 0 10.17-4.553 10.17-10.17 0-5.618-4.553-10.171-10.17-10.171s-10.171 4.553-10.171 10.17c0 5.618 4.554 10.171 10.171 10.171Zm0-4.25a5.923 5.923 0 0 1-5.921-5.92 5.922 5.922 0 0 1 5.921-5.921 5.92 5.92 0 0 1 4.186 10.107 5.92 5.92 0 0 1-4.186 1.734Zm1.553 74.414a7.358 7.358 0 1 1-3.107-14.385 7.358 7.358 0 0 1 3.107 14.385Z" fill="#9FEAF9"/>
</svg>
