<svg width="256" height="256" viewBox="0 0 256 256" fill="none" xmlns="http://www.w3.org/2000/svg">
  <path d="M189.608 110.675C188.264 108.786 186.456 107.276 184.358 106.292C182.255 105.304 179.933 104.872 177.616 105.038C175.298 105.204 173.061 105.962 171.12 107.24C169.187 108.514 167.617 110.267 166.563 112.328C165.526 114.541 165.192 117.019 165.607 119.428C166.022 121.836 167.165 124.06 168.883 125.797C173.586 126.169 178.266 124.845 182.08 122.066C185.878 119.301 188.55 115.256 189.602 110.675H189.608ZM149.548 58.6987L140.967 54.0312L103.624 74.65L106.6 76.2493L112.264 79.1991L122.514 73.5483L149.554 58.6039L149.548 58.6987V58.6987ZM153.004 57.2771C153.225 57.3321 153.428 57.4425 153.593 57.5981C153.759 57.7536 153.882 57.9489 153.951 58.1656L166.462 94.7832C166.591 95.0734 166.602 95.4029 166.491 95.7008C166.381 95.9987 166.158 96.2413 165.87 96.3765C161.109 98.9629 157.359 103.083 155.23 108.069C153.109 113.041 152.744 118.588 154.194 123.795C155.933 129.475 159.609 134.363 164.58 137.608C169.563 140.866 175.54 142.288 181.47 141.636C181.795 141.617 182.117 141.697 182.394 141.867C182.671 142.036 182.89 142.286 183.021 142.584L195.946 180.167C196.029 180.469 196.016 180.79 195.909 181.085C195.802 181.38 195.606 181.635 195.348 181.814L155.626 204.855C155.437 204.935 155.234 204.975 155.028 204.973C154.661 205.041 154.283 204.978 153.957 204.796L140.02 196.118C139.766 195.987 139.56 195.78 139.428 195.526L112.205 133.432L70.7484 156.829C70.5001 156.954 70.2278 157.024 69.95 157.034C69.6723 157.045 69.3955 156.995 69.1387 156.888L59.7171 151.569C59.4116 151.405 59.1803 151.13 59.0703 150.801C58.9603 150.472 58.98 150.113 59.1253 149.798L99.398 73.9807C99.5488 73.7222 99.7764 73.5172 100.049 73.3943L140.203 51.1761C140.423 51.0605 140.668 51 140.917 51C141.165 51 141.41 51.0605 141.63 51.1761L153.01 57.2771H153.004ZM103.209 77.6472L101.256 76.6461L62.4335 149.976L69.5175 153.933L102.996 110.486C103.161 110.285 103.37 110.127 103.608 110.024C103.846 109.921 104.105 109.876 104.363 109.893C104.616 109.939 104.855 110.042 105.061 110.195C105.268 110.348 105.436 110.547 105.553 110.776L142.008 194.092L151.75 200.057L112.619 86.5676L110.956 81.8408L103.156 77.5879L103.215 77.6472H103.209ZM163.249 121.373C162.357 118.104 162.608 114.629 163.959 111.522C165.316 108.401 167.69 105.833 170.694 104.237C173.749 102.544 177.261 101.862 180.727 102.288C184.193 102.713 187.436 104.225 189.993 106.606C191.415 107.961 192.555 109.584 193.347 111.383C194.139 113.181 194.567 115.118 194.608 117.083C194.648 119.048 194.299 121.001 193.581 122.83C192.863 124.659 191.79 126.328 190.425 127.74L189.993 128.173C186.962 131.03 182.959 132.626 178.795 132.637C174.632 132.648 170.62 131.073 167.575 128.232C165.572 126.352 164.082 123.991 163.249 121.373V121.373Z" fill="currentColor" />
</svg>