<svg width="256" height="256" viewBox="0 0 256 256" fill="none" xmlns="http://www.w3.org/2000/svg">
  <path d="M29.282 111.04c-.446 0-.558-.224-.334-.561l2.34-3.026c.224-.336.781-.56 1.227-.56H72.32c.446 0 .557.336.334.673l-1.895 2.913c-.223.337-.78.673-1.115.673l-40.362-.112ZM12.446 121.351c-.446 0-.557-.224-.335-.561l2.342-3.026c.223-.336.78-.56 1.226-.56h50.843c.446 0 .669.336.557.672l-.892 2.69c-.111.449-.557.673-1.003.673l-52.738.112ZM39.428 131.662c-.446 0-.557-.337-.334-.673l1.56-2.802c.224-.336.67-.672 1.116-.672h22.299c.446 0 .669.336.669.784l-.223 2.69c0 .449-.446.785-.78.785l-24.307-.112ZM155.161 109.023c-7.024 1.793-11.818 3.138-18.731 4.931-1.672.448-1.784.56-3.233-1.121-1.673-1.905-2.899-3.138-5.241-4.259-7.024-3.474-13.825-2.465-20.181 1.681-7.581 4.932-11.484 12.217-11.372 21.295.111 8.966 6.244 16.363 15.052 17.595 7.582 1.009 13.937-1.681 18.954-7.397 1.004-1.232 1.896-2.577 3.011-4.146h-21.519c-2.342 0-2.899-1.457-2.119-3.363 1.45-3.474 4.126-9.302 5.687-12.216.334-.672 1.115-1.793 2.787-1.793h40.585c-.223 3.026-.223 6.052-.669 9.078-1.227 8.069-4.237 15.466-9.143 21.967-8.028 10.647-18.508 17.259-31.776 19.053-10.927 1.457-21.073-.673-29.993-7.397-8.25-6.277-12.934-14.57-14.16-24.881-1.45-12.216 2.119-23.2 9.477-32.838 7.916-10.423 18.397-17.035 31.219-19.389 10.481-1.905 20.516-.672 29.547 5.492 5.909 3.922 10.146 9.302 12.933 15.802.669 1.009.223 1.569-1.115 1.906Z" fill="#00ACD7"/>
  <path d="M192.067 171c-10.146-.224-19.401-3.138-27.205-9.863-6.579-5.715-10.704-13-12.042-21.63-2.007-12.665 1.449-23.872 9.031-33.847 8.139-10.759 17.951-16.363 31.219-18.716 11.373-2.018 22.077-.897 31.777 5.716 8.808 6.052 14.271 14.233 15.721 24.992 1.895 15.13-2.453 27.459-12.822 37.994-7.359 7.509-16.39 12.216-26.76 14.345-3.01.561-6.02.673-8.919 1.009Zm26.536-45.278c-.112-1.457-.112-2.578-.335-3.699-2.007-11.095-12.153-17.371-22.745-14.906-10.369 2.354-17.059 8.966-19.512 19.501-2.007 8.742 2.23 17.596 10.258 21.182 6.132 2.69 12.265 2.354 18.174-.672 8.808-4.595 13.602-11.768 14.16-21.406Z" fill="#00ACD7"/>
</svg>
