<svg width="90" height="90" viewBox="0 0 90 90" fill="none" xmlns="http://www.w3.org/2000/svg">
  <path fill-rule="evenodd" clip-rule="evenodd" d="M44.9998 24.0155C33.4104 24.0155 24.0154 33.4106 24.0154 45C24.0154 56.5894 33.4104 65.9845 44.9998 65.9845C55.5707 65.9845 64.3159 58.1683 65.7715 48H47.2933C45.6365 48 44.2933 46.6569 44.2933 45C44.2933 43.3431 45.6365 42 47.2933 42H67.9272C68.1076 42 68.2842 42.0159 68.4558 42.0464C68.6273 42.0159 68.804 42 68.9843 42C70.6412 42 71.9843 43.3431 71.9843 45C71.9843 59.9032 59.903 71.9845 44.9998 71.9845C30.0967 71.9845 18.0154 59.9032 18.0154 45C18.0154 30.0968 30.0967 18.0155 44.9998 18.0155C46.6567 18.0155 47.9998 19.3587 47.9998 21.0155C47.9998 22.6724 46.6567 24.0155 44.9998 24.0155Z" fill="#FFF" />
  <path d="M78.1708 30.987C79.9925 35.2946 81 40.0296 81 45C81 49.9704 79.9925 54.7062 78.1708 59.013C76.3491 63.3199 73.7125 67.1987 70.456 70.456C67.1979 73.7141 63.3199 76.3499 59.0123 78.1716C54.7054 79.9925 49.9704 81.0008 45 81.0008C40.0288 81.0008 35.2938 79.9925 30.987 78.1716C26.6801 76.3499 22.8013 73.7141 19.544 70.456C16.2867 67.1987 13.6509 63.3199 11.8284 59.013C10.0075 54.7062 9 49.9704 9 45C9 40.0296 10.0075 35.2946 11.8284 30.987C13.6509 26.6801 16.2867 22.8013 19.544 19.544C22.8013 16.2875 26.6801 13.6509 30.987 11.8284C35.2938 10.0075 40.0288 9 45 9C49.9704 9 54.7054 10.0075 59.0123 11.8284" stroke="#FFF" stroke-width="6" stroke-linecap="round" />
  <path d="M78.1708 30.987C79.9925 35.2946 81 40.0296 81 45C81 49.9704 79.9925 54.7062 78.1708 59.013C76.3491 63.3199 73.7125 67.1987 70.456 70.456C67.1979 73.7141 63.3199 76.3499 59.0123 78.1716C54.7054 79.9925 49.9704 81.0008 45 81.0008C40.0288 81.0008 35.2938 79.9925 30.987 78.1716C26.6801 76.3499 22.8013 73.7141 19.544 70.456C16.2867 67.1987 13.6509 63.3199 11.8284 59.013C10.0075 54.7062 9 49.9704 9 45C9 40.0296 10.0075 35.2946 11.8284 30.987C13.6509 26.6801 16.2867 22.8013 19.544 19.544C22.8013 16.2875 26.6801 13.6509 30.987 11.8284C35.2938 10.0075 40.0288 9 45 9C49.9704 9 54.7054 10.0075 59.0123 11.8284" stroke="#FFF" stroke-width="6" stroke-linecap="round" />
  <path fill-rule="evenodd" clip-rule="evenodd" d="M70.2226 12.7403C74.0555 12.7403 77.1729 15.8584 77.1729 19.6906C77.1729 23.5235 74.0555 26.6417 70.2226 26.6417C66.3897 26.6417 63.2715 23.5235 63.2715 19.6906C63.2715 15.8584 66.3897 12.7403 70.2226 12.7403ZM70.2226 22.5855C71.8187 22.5855 73.1175 21.2875 73.1175 19.6905C73.1175 18.0951 71.8187 16.7971 70.2226 16.7971C68.6264 16.7971 67.3276 18.0951 67.3276 19.6905C67.3276 21.2875 68.6264 22.5855 70.2226 22.5855Z" fill="#FFF" />
</svg>