<svg width="101" height="101" viewBox="0 0 101 101" fill="none" xmlns="http://www.w3.org/2000/svg">
<g clip-path="url(#clip0_101_5)">
<path d="M80.0851 50.093H53.0931M81.4679 50.093C81.4679 67.421 67.4209 81.468 50.0929 81.468C32.7649 81.468 18.7179 67.421 18.7179 50.093C18.7179 32.765 32.7649 18.718 50.0929 18.718" stroke="#3805A9" stroke-width="6" stroke-linecap="round"/>
<path d="M93.485 31.762C95.868 37.397 97.186 43.591 97.186 50.093C97.186 56.595 95.868 62.79 93.485 68.424C91.102 74.058 87.653 79.132 83.393 83.393C79.131 87.655 74.058 91.103 68.423 93.486C62.789 95.868 56.595 97.187 50.093 97.187C43.59 97.187 37.396 95.868 31.762 93.486C26.128 91.103 21.054 87.655 16.793 83.393C12.532 79.132 9.084 74.058 6.7 68.424C4.318 62.79 3 56.595 3 50.093C3 43.591 4.318 37.397 6.7 31.762C9.084 26.128 12.532 21.054 16.793 16.793C21.054 12.533 26.128 9.084 31.762 6.7C37.396 4.318 43.59 3 50.093 3C56.595 3 62.789 4.318 68.423 6.7" stroke="#3805A9" stroke-width="6" stroke-linecap="round"/>
<path d="M93.485 31.762C95.868 37.397 97.186 43.591 97.186 50.093C97.186 56.595 95.868 62.79 93.485 68.424C91.102 74.058 87.653 79.132 83.393 83.393C79.131 87.655 74.058 91.103 68.423 93.486C62.789 95.868 56.595 97.187 50.093 97.187C43.59 97.187 37.396 95.868 31.762 93.486C26.128 91.103 21.054 87.655 16.793 83.393C12.532 79.132 9.084 74.058 6.7 68.424C4.318 62.79 3 56.595 3 50.093C3 43.591 4.318 37.397 6.7 31.762C9.084 26.128 12.532 21.054 16.793 16.793C21.054 12.533 26.128 9.084 31.762 6.7C37.396 4.318 43.59 3 50.093 3C56.595 3 62.789 4.318 68.423 6.7" stroke="#3805A9" stroke-width="6" stroke-linecap="round"/>
<path fill-rule="evenodd" clip-rule="evenodd" d="M83.0876 7.89282C88.1016 7.89282 92.1796 11.9718 92.1796 16.9848C92.1796 21.9988 88.1016 26.0778 83.0876 26.0778C78.0736 26.0778 73.9946 21.9988 73.9946 16.9848C73.9946 11.9718 78.0736 7.89282 83.0876 7.89282ZM83.0876 20.7717C85.1756 20.7717 86.8746 19.0737 86.8746 16.9847C86.8746 14.8977 85.1756 13.1997 83.0876 13.1997C80.9996 13.1997 79.3006 14.8977 79.3006 16.9847C79.3006 19.0737 80.9996 20.7717 83.0876 20.7717Z" fill="#3805A9"/>
</g>
<defs>
<clipPath id="clip0_101_5">
<rect width="101" height="101" fill="white"/>
</clipPath>
</defs>
</svg>
