<svg width="242" height="243" viewBox="0 0 242 243" fill="none" xmlns="http://www.w3.org/2000/svg">
<g clip-path="url(#clip0_101_27)">
<path d="M120.68 241.88C187.054 241.88 240.86 188.073 240.86 121.7C240.86 55.3263 187.054 1.5199 120.68 1.5199C54.3064 1.5199 0.5 55.3263 0.5 121.7C0.5 188.073 54.3064 241.88 120.68 241.88Z" fill="#007896"/>
<path d="M133.2 151.96C129.961 155.254 125.535 157.109 120.915 157.109C116.295 157.109 111.869 155.254 108.63 151.96L92.9701 136.13C90.9547 134.08 88.2001 132.925 85.3251 132.925C82.45 132.925 79.6955 134.08 77.6801 136.13C70.8964 143.032 70.8964 154.098 77.6801 161L108.68 192.29C111.919 195.584 116.345 197.439 120.965 197.439C125.585 197.439 130.011 195.584 133.25 192.29L164.17 160.96C170.954 154.058 170.954 142.992 164.17 136.09C162.155 134.04 159.4 132.885 156.525 132.885C153.65 132.885 150.895 134.04 148.88 136.09L133.2 151.96Z" fill="white"/>
<path d="M74.4401 96.86C77.5291 93.6502 81.7781 91.8158 86.2326 91.7688C90.6872 91.7218 94.9739 93.4661 98.1301 96.61L113.07 111.7C115.032 113.655 117.697 114.74 120.466 114.712C123.236 114.684 125.878 113.544 127.8 111.55C134.418 104.954 134.516 94.2664 128.02 87.55L98.5001 57.7C95.3439 54.5561 91.0572 52.8118 86.6026 52.8588C82.1481 52.9058 77.8991 54.7402 74.8101 57.95L44.7201 88.44C38.1018 95.0362 38.0038 105.724 44.5001 112.44C46.4621 114.395 49.1269 115.48 51.8965 115.452C54.666 115.424 57.3083 114.284 59.2301 112.29L74.4401 96.86Z" fill="white"/>
<path d="M143.3 96.1799C146.389 92.9702 150.638 91.1358 155.093 91.0888C159.547 91.0418 163.834 92.7861 166.99 95.9299L181.93 111.04C183.892 112.995 186.557 114.08 189.326 114.052C192.096 114.024 194.738 112.884 196.66 110.89C203.278 104.294 203.376 93.6064 196.88 86.8899L167.34 57.0199C164.184 53.8761 159.897 52.1318 155.443 52.1788C150.988 52.2258 146.739 54.0602 143.65 57.2699L113.56 87.7599C106.942 94.3562 106.844 105.044 113.34 111.76C115.302 113.715 117.967 114.8 120.736 114.772C123.506 114.744 126.148 113.604 128.07 111.61L143.3 96.1799Z" fill="white"/>
</g>
<defs>
<clipPath id="clip0_101_27">
<rect width="241" height="242" fill="white" transform="translate(0.5 0.699951)"/>
</clipPath>
</defs>
</svg>
