<svg width="90" height="90" viewBox="0 0 90 90" fill="none" xmlns="http://www.w3.org/2000/svg">
<path d="M45.2401 83.4801C66.3595 83.4801 83.4801 66.3595 83.4801 45.2401C83.4801 24.1207 66.3595 7 45.2401 7C24.1207 7 7 24.1207 7 45.2401C7 66.3595 24.1207 83.4801 45.2401 83.4801Z" fill="#007896"/>
<path d="M49.2239 54.8685C48.1932 55.9165 46.7848 56.5068 45.3149 56.5068C43.845 56.5068 42.4366 55.9165 41.4059 54.8685L36.4231 49.8315C35.7818 49.1791 34.9053 48.8117 33.9905 48.8117C33.0757 48.8117 32.1993 49.1791 31.558 49.8315C29.3995 52.0277 29.3995 55.5487 31.558 57.7449L41.4219 67.7011C42.4525 68.7491 43.8609 69.3394 45.3308 69.3394C46.8007 69.3394 48.2091 68.7491 49.2398 67.7011L59.0782 57.7322C61.2367 55.536 61.2367 52.015 59.0782 49.8188C58.4369 49.1664 57.5605 48.7989 56.6456 48.7989C55.7308 48.7989 54.8544 49.1664 54.2131 49.8188L49.2239 54.8685Z" fill="white"/>
<path d="M30.527 37.3362C31.5099 36.3149 32.8619 35.7312 34.2793 35.7163C35.6967 35.7013 37.0607 36.2563 38.0649 37.2567L42.8187 42.0582C43.443 42.6802 44.2909 43.0255 45.1721 43.0165C46.0534 43.0075 46.8941 42.6451 47.5056 42.0104C49.6115 39.9116 49.6426 36.511 47.5756 34.3739L38.1827 24.8759C37.1784 23.8756 35.8144 23.3205 34.397 23.3355C32.9796 23.3504 31.6277 23.9341 30.6447 24.9554L21.0704 34.6571C18.9645 36.7559 18.9334 40.1565 21.0004 42.2936C21.6247 42.9157 22.4726 43.2609 23.3539 43.252C24.2351 43.243 25.0758 42.8805 25.6873 42.2459L30.527 37.3362Z" fill="white"/>
<path d="M52.4375 37.1198C53.4205 36.0985 54.7724 35.5148 56.1898 35.4999C57.6072 35.4849 58.9712 36.04 59.9755 37.0403L64.7292 41.8481C65.3535 42.4702 66.2014 42.8155 67.0827 42.8065C67.9639 42.7975 68.8047 42.435 69.4162 41.8004C71.522 39.7016 71.5532 36.301 69.4862 34.1639L60.0868 24.6595C59.0826 23.6592 57.7186 23.1042 56.3012 23.1191C54.8838 23.1341 53.5318 23.7178 52.5489 24.7391L42.9746 34.4407C40.8687 36.5395 40.8375 39.9401 42.9046 42.0772C43.5289 42.6993 44.3768 43.0446 45.258 43.0356C46.1393 43.0266 46.98 42.6641 47.5915 42.0295L52.4375 37.1198Z" fill="white"/>
</svg>
