<svg width="256" height="256" viewBox="0 0 256 256" fill="none" xmlns="http://www.w3.org/2000/svg">
  <path d="M119.336 23.283c5.306-3.037 12.218-3.05 17.519 0 26.672 15.071 53.353 30.119 80.02 45.199 5.016 2.825 8.371 8.407 8.32 14.187v90.674c.037 6.018-3.649 11.734-8.941 14.495-26.584 14.988-53.155 29.995-79.735 44.983-5.416 3.096-12.466 2.858-17.713-.493-7.97-4.62-15.953-9.217-23.924-13.833-1.629-.971-3.465-1.744-4.615-3.323 1.017-1.37 2.834-1.541 4.312-2.139 3.326-1.058 6.382-2.756 9.438-4.404.773-.529 1.717-.326 2.457.147 6.816 3.907 13.571 7.929 20.409 11.799 1.459.842 2.936-.276 4.183-.971 26.087-14.744 52.207-29.433 78.29-44.181.966-.465 1.5-1.491 1.422-2.55.018-29.911.004-59.828.009-89.74.111-1.2-.585-2.305-1.671-2.796-26.492-14.92-52.97-29.862-79.458-44.785a2.76 2.76 0 0 0-3.12-.005C100.05 50.475 73.576 65.431 47.088 80.35c-1.082.492-1.808 1.578-1.68 2.784.005 29.911 0 59.828 0 89.744a2.54 2.54 0 0 0 1.441 2.517c7.069 4.008 14.146 7.988 21.219 11.983 3.985 2.145 8.877 3.419 13.267 1.776 3.874-1.39 6.59-5.343 6.516-9.456.036-29.737-.019-59.479.027-89.21-.097-1.32 1.156-2.412 2.44-2.287 3.395-.023 6.796-.046 10.192.009 1.418-.032 2.394 1.39 2.218 2.72-.013 29.924.037 59.85-.023 89.775.01 7.976-3.267 16.654-10.644 20.556-9.088 4.708-20.32 3.709-29.3-.805-7.772-3.879-15.19-8.458-22.824-12.614-5.305-2.746-8.974-8.484-8.936-14.499V82.669c-.056-5.9 3.433-11.583 8.604-14.367 26.58-15 53.156-30.012 79.731-45.019Z" fill="currentColor"/>
  <path d="M142.524 86.093c11.593-.746 24.003-.442 34.435 5.27 8.077 4.376 12.554 13.561 12.697 22.534-.226 1.21-1.491 1.878-2.646 1.794-3.364-.004-6.728.046-10.091-.022-1.427.054-2.256-1.261-2.436-2.522-.966-4.294-3.307-8.546-7.348-10.617-6.204-3.106-13.396-2.95-20.161-2.885-4.938.263-10.248.69-14.431 3.594-3.212 2.2-4.188 6.64-3.041 10.216 1.08 2.568 4.045 3.396 6.47 4.16 13.97 3.654 28.775 3.29 42.478 8.099 5.674 1.96 11.224 5.771 13.166 11.711 2.541 7.962 1.427 17.479-4.237 23.87-4.594 5.26-11.284 8.122-17.957 9.677-8.877 1.98-18.089 2.03-27.104 1.151-8.477-.966-17.299-3.193-23.843-8.969-5.595-4.859-8.329-12.429-8.057-19.736.065-1.234 1.293-2.095 2.475-1.993 3.387-.028 6.774-.037 10.162.004 1.352-.097 2.355 1.073 2.425 2.348.625 4.09 2.162 8.383 5.729 10.809 6.884 4.441 15.522 4.137 23.404 4.261 6.53-.29 13.861-.377 19.19-4.693 2.811-2.462 3.644-6.581 2.885-10.124-.824-2.992-3.953-4.386-6.64-5.297-13.792-4.363-28.762-2.78-42.42-7.714-5.544-1.959-10.906-5.664-13.037-11.36-2.972-8.063-1.61-18.035 4.648-24.21 6.102-6.144 14.91-8.51 23.285-9.356Z" fill="currentColor"/>
</svg>
