<?xml version="1.0" encoding="UTF-8" standalone="no"?>
<svg
   xmlns:dc="http://purl.org/dc/elements/1.1/"
   xmlns:cc="http://creativecommons.org/ns#"
   xmlns:rdf="http://www.w3.org/1999/02/22-rdf-syntax-ns#"
   xmlns:svg="http://www.w3.org/2000/svg"
   xmlns="http://www.w3.org/2000/svg"
   viewBox="0 0 513.17334 284.97333"
   height="284.97333"
   width="513.17334"
   xml:space="preserve"
   id="svg2"
   version="1.1"><metadata
     id="metadata8"><rdf:RDF><cc:Work
         rdf:about=""><dc:format>image/svg+xml</dc:format><dc:type
           rdf:resource="http://purl.org/dc/dcmitype/StillImage" /></cc:Work></rdf:RDF></metadata><defs
     id="defs6" /><g
     transform="matrix(1.3333333,0,0,-1.3333333,0,284.97333)"
     id="g10"><g
       transform="scale(0.1)"
       id="g12"><path
         id="path14"
         style="fill:#100f0d;fill-opacity:1;fill-rule:nonzero;stroke:none"
         d="m 874.406,1120 c -160.738,0 -250.371,-163.41 -250.371,-382.141 0,-158.168 44.817,-229.328 173.942,-229.328 144.878,0 255.693,139.699 255.693,379.489 0,155.44 -42.21,231.98 -179.264,231.98" /><path
         id="path16"
         style="fill:#100f0d;fill-opacity:1;fill-rule:nonzero;stroke:none"
         d="m 3187.13,526.988 c 79.13,0 171.38,18.473 271.59,55.313 36.89,-18.469 55.31,-71.172 55.31,-110.711 0,-134.391 -121.25,-213.481 -419.04,-213.481 -318.92,0 -490.25,129.18 -490.25,463.903 0,416.448 253.03,650.958 650.99,650.958 250.42,0 310.99,-76.43 310.99,-176.55 0,-55.35 -18.47,-87.02 -52.69,-113.31 -60.57,18.41 -123.86,28.96 -221.36,28.96 -189.81,0 -297.84,-110.71 -297.84,-347.91 0,-173.93 52.69,-237.172 192.3,-237.172 z M 2233.78,263.43 c -102.77,0 -139.66,36.929 -195.06,155.468 L 1862.17,780.02 1796.28,284.512 c -50.03,-18.473 -131.73,-21.082 -187.13,-21.082 -115.92,0 -168.62,47.371 -168.62,147.648 0,28.902 5.22,78.981 15.76,150.141 l 147.59,1122.741 c 21.12,166.01 76.43,205.6 208.26,205.6 73.72,0 147.59,-18.47 192.36,-52.79 L 1880.64,909.059 c 313.65,434.901 342.61,461.301 500.74,461.301 166,0 224.01,-47.48 224.01,-142.32 0,-55.35 -15.8,-92.24 -42.19,-121.25 -39.5,2.61 -79.05,2.61 -110.67,2.61 -55.35,0 -86.91,-13.2 -242.48,-226.599 l 179.2,-324.192 c 13.2,-21.078 26.35,-39.55 55.41,-39.55 23.68,0 63.28,2.722 94.85,10.543 26.34,-18.473 36.88,-55.403 36.88,-89.622 0,-123.761 -123.86,-176.55 -342.61,-176.55 z M 747.895,258.109 c -300.403,0 -498.125,131.879 -498.125,466.512 0,390.099 237.214,651.059 645.765,651.059 382.095,0 516.545,-189.8 516.545,-471.828 0,-398.043 -242.49,-645.743 -664.185,-645.743 z m 2994.875,433.45 c -62.07,86.492 -183.95,56.011 -212.24,112.55 -14.51,29.012 -2.67,79.172 94.52,74.7 174.89,-8.028 223.79,224.311 223.79,348.241 0,153.08 -71.98,409.9 -554.11,409.9 -183.44,0 -344.97,-39.65 -479.95,-111.75 -12.87,-6.24 -26.01,-12.14 -38.69,-18.6 -15.6,-7.94 -34.5,-5.94 -47.72,5.54 -69.8,60.65 -178.77,105.93 -349.11,105.93 -36.17,0 -69.32,-1.98 -100.23,-6.24 -29.22,-4.03 -54.05,20.36 -50.15,49.6 l 19,142.57 15.61,116.55 c 2.11,15.79 -4.38,31.5 -17.01,41.18 l -93.39,71.61 c -117.93,90.43 -265.57,103.93 -343.06,103.93 -265.57,0 -418.33,-142.02 -453.96,-422.05 l -16.97,-128.95 c -3.84,-29.13 -34.3,-46.68 -61.22,-34.89 -107.53,47.14 -236.12,72.01 -384.454,72.01 C 359.016,1623.39 0,1262.21 0,724.621 0,277.48 278.773,10.3984 745.781,10.3984 c 194.43,0 364.709,43.293 503.789,122.8396 17.09,9.782 37.67,6.383 51.79,-7.316 72.56,-70.4415 177.64,-110.2032 305.68,-110.2032 118.78,0 205.5,11.5507 272.9,36.4296 l 78.45,28.9336 c 13.3,4.9063 27.82,2.7774 39.81,-4.7929 59.5,-37.5703 134.83,-60.5703 233.47,-60.5703 182.51,0 309.08,34.8906 396.8,85.7812 13.61,7.91 29.66,8.27 43.53,0.828 30.47,-16.3085 63.23,-30.2889 97.78,-42.3592 C 2869.75,20.8086 2987.16,0 3122.3,0 c 582.97,0 702.59,287.16 702.59,455.039 0,82.672 -20.45,166.789 -75.9,230.191 -1.76,2.008 -4.33,3.7 -6.22,6.329" /></g></g></svg>