<svg width="90" height="90" viewBox="0 0 90 90" fill="none" xmlns="http://www.w3.org/2000/svg">
  <path d="M11.928 25.978c0-7.72 6.258-13.978 13.978-13.978h38.605c7.72 0 13.978 6.258 13.978 13.978V45.28h-66.56V25.978Z" fill="#FE80BF"/>
  <path d="M11.928 45.28h66.56v19.302c0 7.72-6.257 13.978-13.977 13.978H25.906c-7.72 0-13.977-6.258-13.977-13.978V45.28Z" fill="#FF2681"/>
  <path d="M71.567 43.683h6.922v6.656h-6.922v-6.656Z" fill="#fff"/>
  <path d="m36.364 37.753-11.088-3.838-12.722 6.61-.64 14.926 12.296 4.62 11.515-4.264.64-18.054Z" fill="#039"/>
  <path d="m70.908 34.484-9.667 2.843-3.056 4.122-.64 9.24 1.635 7.321 15.14 1.706 4.122-6.894-8.245-6.042 7.036-2.843 1.209-6.61-7.534-2.843Z" fill="#4074D9"/>
  <path d="m39.136 24.746-3.838 32.482h-.355l19.19 2.488 4.834-3.625-1.635-10.093 2.346-9.31-10.875-1.565.426-9.026-10.093-1.35Z" fill="#039"/>
  <path d="M25.573 41.398c-3.047 0-4.745 3.097-4.745 7.243 0 2.998.85 4.347 3.297 4.347 2.745 0 4.846-2.648 4.846-7.193 0-2.946-.8-4.397-3.398-4.397Z" fill="#fff"/>
  <path d="M69.408 52.638c1.5 0 3.248-.35 5.148-1.048.699.35 1.048 1.349 1.048 2.098 0 2.547-2.298 4.046-7.942 4.046-6.045 0-9.293-2.448-9.293-8.792 0-7.894 4.797-12.339 12.34-12.339 4.746 0 5.894 1.45 5.894 3.347 0 1.049-.35 1.65-.999 2.147-1.148-.349-2.348-.548-4.196-.548-3.597 0-5.645 2.098-5.645 6.594 0 3.296.999 4.495 3.645 4.495Zm-18.07 4.995c-1.947 0-2.647-.7-3.697-2.946l-3.346-6.845-1.249 9.392c-.948.35-2.496.4-3.547.4-2.197 0-3.196-.898-3.196-2.8 0-.547.1-1.496.3-2.845L39.4 30.71c.4-3.146 1.448-3.897 3.947-3.897 1.397 0 2.797.35 3.646 1l-2.348 17.584c5.945-8.243 6.494-8.743 9.491-8.743 3.146 0 4.246.9 4.246 2.697 0 1.05-.3 1.749-.8 2.299-.748-.05-1.498-.05-2.097-.05-1.05 0-1.648.25-4.596 4.295l3.396 6.145c.25.4.5.75 1.05.75.45 0 1.2-.052 1.798-.2.5.35.7 1.05.7 1.698 0 2.346-2.348 3.346-6.494 3.346Zm-28.163.101c-5.693 0-9.441-2.5-9.441-8.842 0-7.394 4.496-12.34 12.24-12.34 7.242 0 9.79 3.598 9.79 8.943 0 7.544-4.596 12.24-12.589 12.24ZM79.94 49.52c-1.177-1.64-3.487-1.062-4.023-2.133-.275-.55-.05-1.501 1.791-1.416 3.315.152 4.242-4.252 4.242-6.6 0-2.902-1.364-7.77-10.502-7.77-3.477 0-6.54.752-9.097 2.118-.244.118-.493.23-.734.353a.815.815 0 0 1-.904-.105c-1.323-1.15-3.389-2.008-6.617-2.008-.686 0-1.314.038-1.9.118a.836.836 0 0 1-.95-.94l.656-4.911a.843.843 0 0 0-.323-.78l-1.77-1.358c-2.235-1.714-5.033-1.97-6.502-1.97-5.034 0-7.93 2.692-8.604 8l-.322 2.444a.835.835 0 0 1-1.16.66c-2.038-.892-4.476-1.364-7.287-1.364C15.804 31.857 9 38.703 9 48.892c0 8.475 5.284 13.537 14.135 13.537 3.686 0 6.913-.82 9.549-2.328a.814.814 0 0 1 .982.139c1.375 1.335 3.367 2.088 5.793 2.088 2.252 0 3.895-.218 5.173-.69l1.487-.548a.855.855 0 0 1 .754.09c1.128.713 2.556 1.148 4.425 1.148 3.46 0 5.859-.66 7.521-1.625a.835.835 0 0 1 .825-.016c.578.309 1.199.574 1.854.803 1.895.742 4.12 1.136 6.681 1.136 11.05 0 13.317-5.442 13.317-8.624 0-1.567-.388-3.162-1.439-4.363-.033-.038-.082-.07-.117-.12Z" fill="#fff"/>
</svg>
