<svg width="90" height="90" viewBox="0 0 90 90" fill="none" xmlns="http://www.w3.org/2000/svg">
  <path d="M69.8904 56.8345H64.115L83 45.8609C81.6659 43.536 78.7102 42.7365 76.4025 44.0795L69.5211 48.1068L81.5196 27.1851C79.2118 25.8439 76.258 26.6381 74.9238 28.9629L69.8904 37.7485V11.4689C67.2221 11.4689 65.0607 13.6429 65.0607 16.3289L65.0502 28.607L50.9374 4C48.6279 5.343 47.8372 8.31653 49.1713 10.6413L56.3471 23.1561L30.032 7.86243C28.6979 10.189 29.4886 13.1625 31.7981 14.5038L46.0764 22.809H13.5557C13.5557 25.4932 15.7171 27.669 18.3836 27.669H37.037L7 45.1262C8.33587 47.4528 11.2845 48.2488 13.5975 46.9075L31.6065 36.4406L13.1934 68.5445C15.5029 69.8875 18.455 69.0898 19.7892 66.765L31.2599 46.7708L31.2616 86C33.9281 86 36.0913 83.8207 36.0896 81.1382V42.2544H36.0948C36.0948 34.2034 42.5808 27.6725 50.5821 27.6725C55.8176 27.6725 60.4017 30.469 62.9463 34.6558L63.326 35.3167C64.4058 37.326 65.0311 39.6175 65.0624 42.0598L65.0642 42.449C65.0328 44.872 64.4163 47.1512 63.3486 49.1517L62.9219 49.8951C61.7256 51.8466 60.0918 53.4888 58.1514 54.6903L57.4548 55.0953C55.4344 56.1946 53.1215 56.8222 50.6674 56.8363H45.7454C45.7454 59.5205 47.9086 61.6963 50.5769 61.6963H50.5821V61.6998C50.61 61.6998 50.6361 61.6963 50.6639 61.6963H74.7201C74.7183 59.0103 72.5569 56.8345 69.8904 56.8345Z" fill="#FF7901" />
</svg>