<svg width="437" height="468" viewBox="0 0 437 468" fill="none" xmlns="http://www.w3.org/2000/svg">
<g clip-path="url(#clip0_101_47)">
<path d="M361.73 301.65H328.57L437 239.06C429.34 225.8 412.37 221.24 399.12 228.9L359.61 251.87L428.5 132.54C415.25 124.89 398.29 129.42 390.63 142.68L361.73 192.79V42.9C346.41 42.9 334 55.3 334 70.62L333.94 140.65L252.91 0.299988C239.65 7.95999 235.11 24.92 242.77 38.18L283.97 109.56L132.88 22.33C125.22 35.6 129.76 52.56 143.02 60.21L225 107.58H38.2799C38.2799 122.89 50.6899 135.3 65.9999 135.3H173.1L0.639893 234.87C8.30989 248.14 25.2399 252.68 38.5199 245.03L141.92 185.33L36.1999 368.44C49.4599 376.1 66.4099 371.55 74.0699 358.29L139.93 244.25L139.94 468C155.25 468 167.67 455.57 167.66 440.27V218.49H167.69C167.69 172.57 204.93 135.32 250.87 135.32C280.93 135.32 307.25 151.27 321.86 175.15L324.04 178.92C330.24 190.38 333.83 203.45 334.01 217.38L334.02 219.6C333.84 233.42 330.3 246.42 324.17 257.83L321.72 262.07C314.851 273.201 305.471 282.567 294.33 289.42L290.33 291.73C278.73 298 265.45 301.58 251.36 301.66H223.1C223.1 316.97 235.52 329.38 250.84 329.38H250.87V329.4C251.03 329.4 251.18 329.38 251.34 329.38H389.46C389.45 314.06 377.04 301.65 361.73 301.65Z" fill="black"/>
</g>
<defs>
<clipPath id="clip0_101_47">
<rect width="437" height="468" fill="white"/>
</clipPath>
</defs>
</svg>
