<svg width="256" height="256" viewBox="0 0 256 256" fill="none" xmlns="http://www.w3.org/2000/svg">
  <path d="M221.5 146.809c-1.136-3.443-4.112-5.841-7.96-6.416-1.815-.271-3.893-.156-6.352.351-4.286.885-7.467 1.222-9.787 1.288 8.76-14.801 15.883-31.68 19.983-47.568 6.631-25.69 3.088-37.395-1.053-42.688-10.958-14.013-26.945-21.54-46.232-21.77-10.289-.126-19.322 1.907-24.034 3.369-4.387-.775-9.104-1.208-14.053-1.288-9.278-.148-17.476 1.876-24.481 6.036-3.877-1.312-10.101-3.162-17.289-4.343-16.904-2.777-30.528-.613-40.494 6.433-12.067 8.53-17.661 23.35-16.627 44.05.329 6.573 4.002 26.569 9.787 45.533 3.324 10.9 6.869 19.952 10.536 26.906 5.2 9.861 10.765 15.668 17.011 17.754 3.502 1.167 9.863 1.985 16.554-3.592.848 1.028 1.98 2.049 3.481 2.998 1.907 1.204 4.24 2.187 6.568 2.77 8.393 2.099 16.255 1.574 22.962-1.369.041 1.194.073 2.335.1 3.32.044 1.597.089 3.163.147 4.628.397 9.905 1.071 17.607 3.066 22.995.11.297.257.748.412 1.228.996 3.049 2.66 8.155 6.895 12.154 4.384 4.142 9.688 5.412 14.546 5.412 2.436 0 4.761-.32 6.8-.757 7.267-1.559 15.521-3.933 21.492-12.441 5.645-8.043 8.389-20.157 8.886-39.245.064-.54.123-1.055.18-1.546l.119-1.009 1.329.117.343.023c7.402.338 16.453-1.233 22.011-3.817 4.393-2.04 18.468-9.476 15.154-19.516" fill="#000"/>
  <path d="M209.044 148.545c-22.059 4.501-23.576-2.886-23.576-2.886 23.29-34.186 33.027-77.58 24.625-88.2-22.922-28.97-62.601-15.27-63.263-14.914l-.213.038c-4.358-.895-9.235-1.428-14.717-1.517-9.981-.161-17.553 2.589-23.298 6.899 0 0-70.783-28.845-67.49 36.277.7 13.854 20.073 104.827 43.181 77.349 8.446-10.048 16.608-18.544 16.608-18.544 4.052 2.664 8.905 4.023 13.992 3.535l.395-.332c-.123 1.247-.067 2.468.158 3.912-5.953 6.579-4.203 7.734-16.104 10.158-12.042 2.455-4.968 6.825-.35 7.968 5.6 1.384 18.554 3.346 27.306-8.774l-.348 1.383c2.332 1.848 3.969 12.02 3.695 21.242-.275 9.222-.458 15.553 1.379 20.498 1.839 4.945 3.67 16.072 19.315 12.756 13.072-2.771 19.846-9.952 20.788-21.93.669-8.516 2.183-7.257 2.278-14.87l1.214-3.604c1.399-11.544.222-15.268 8.275-13.536l1.958.17c5.927.267 13.685-.943 18.239-3.036 9.804-4.501 15.619-12.016 5.951-10.042h.002" fill="#336791"/>
  <path d="M112.405 90.298c-1.98-.243-3.773-.018-4.68.588-.509.342-.667.737-.71 1.009-.114.72.458 1.517.809 1.928.995 1.164 2.447 1.963 3.884 2.14.209.025.416.037.622.037 2.398 0 4.577-1.648 4.769-2.864.241-1.524-2.264-2.539-4.694-2.837m65.585.047c-.189-1.194-2.596-1.534-4.88-1.254-2.281.28-4.493 1.19-4.308 2.387.148.93 2.051 2.519 4.304 2.519.191 0 .383-.011.577-.035 1.504-.184 2.607-1.027 3.132-1.513.798-.741 1.26-1.567 1.175-2.103" fill="#fff"/>
  <path d="M215.806 148.214c-.839-2.543-3.539-3.361-8.025-2.433-13.32 2.756-18.09.847-19.656-.309 10.353-15.811 18.87-34.924 23.465-52.757 2.177-8.447 3.379-16.291 3.477-22.686.109-7.017-1.084-12.175-3.543-15.325-9.914-12.7-24.466-19.513-42.08-19.7-12.11-.136-22.341 2.97-24.324 3.844-4.177-1.041-8.73-1.68-13.688-1.762-9.09-.148-16.948 2.034-23.454 6.482-2.826-1.055-10.129-3.568-19.06-5.01-15.441-2.492-27.711-.604-36.467 5.614-10.448 7.42-15.272 20.685-14.337 39.425.314 6.304 3.898 25.699 9.553 44.273 7.443 24.446 15.535 38.286 24.049 41.133.996.333 2.145.566 3.412.566 3.106 0 6.913-1.404 10.875-6.178a392.024 392.024 0 0 1 14.989-17.002c3.347 1.8 7.023 2.806 10.784 2.907.007.098.017.197.025.295a87.674 87.674 0 0 0-1.901 2.355c-2.605 3.315-3.148 4.006-11.535 5.737-2.385.494-8.721 1.803-8.815 6.255-.1 4.865 7.49 6.908 8.355 7.125 3.014.756 5.918 1.129 8.687 1.129 6.734 0 12.661-2.219 17.397-6.512-.146 17.344.575 34.434 2.653 39.64 1.701 4.263 5.857 14.681 18.985 14.68 1.927 0 4.047-.225 6.38-.726 13.701-2.944 19.651-9.015 21.953-22.399 1.231-7.153 3.345-24.233 4.339-33.395 2.098.656 4.799.957 7.719.956 6.09 0 13.117-1.297 17.524-3.348 4.951-2.305 13.884-7.96 12.264-12.874Zm-32.629-61.91c-.045 2.704-.416 5.16-.81 7.723-.424 2.756-.862 5.606-.972 9.066-.108 3.367.311 6.867.716 10.253.82 6.838 1.661 13.877-1.595 20.823a27.33 27.33 0 0 1-1.442-2.973c-.405-.984-1.284-2.563-2.501-4.75-4.734-8.51-15.819-28.44-10.144-36.573 1.69-2.42 5.98-4.91 16.748-3.57ZM170.125 40.48c15.782.35 28.267 6.268 37.106 17.591 6.779 8.685-.686 48.204-22.297 82.297a170.19 170.19 0 0 0-.656-.829l-.274-.342c5.585-9.246 4.493-18.394 3.521-26.504-.399-3.328-.777-6.472-.681-9.425.1-3.13.512-5.815.912-8.41.49-3.199.99-6.509.852-10.41.103-.41.144-.893.09-1.467-.351-3.742-4.612-14.94-13.297-25.074-4.751-5.544-11.679-11.748-21.139-15.932 4.069-.845 9.633-1.633 15.863-1.495ZM81.811 159.896c-4.365 5.261-7.379 4.253-8.37 3.922-6.459-2.16-13.953-15.844-20.56-37.544-5.717-18.776-9.058-37.657-9.322-42.951-.835-16.744 3.214-28.414 12.034-34.685 14.355-10.204 37.956-4.096 47.439-.999-.136.135-.278.261-.413.398C87.057 63.793 87.426 90.71 87.465 92.357c-.002.635.052 1.534.124 2.77.268 4.527.767 12.954-.565 22.496-1.237 8.868 1.49 17.547 7.48 23.813.615.641 1.26 1.252 1.936 1.83a401.397 401.397 0 0 0-14.63 16.631Zm16.63-22.243c-4.829-5.05-7.021-12.075-6.017-19.275 1.405-10.08.887-18.859.608-23.576-.04-.66-.074-1.238-.094-1.694 2.273-2.021 12.808-7.68 20.322-5.954 3.428.787 5.517 3.127 6.385 7.153 4.495 20.842.595 29.528-2.539 36.509-.645 1.438-1.256 2.797-1.776 4.204l-.404 1.087c-1.023 2.748-1.974 5.304-2.564 7.73-5.132-.014-10.125-2.213-13.922-6.185v.001Zm.787 28.107c-1.499-.375-2.847-1.027-3.637-1.567.66-.312 1.836-.736 3.875-1.157 9.866-2.036 11.39-3.473 14.718-7.709.762-.971 1.627-2.072 2.825-3.413l.001-.001c1.784-2.002 2.6-1.663 4.079-1.047 1.2.497 2.368 2.004 2.841 3.662.224.783.476 2.269-.347 3.426-6.951 9.757-17.081 9.631-24.355 7.806Zm51.636 48.17c-12.07 2.593-16.344-3.581-19.16-10.639-1.818-4.557-2.711-25.104-2.077-47.795a2.74 2.74 0 0 0-.118-.868 11.5 11.5 0 0 0-.337-1.603c-.943-3.302-3.24-6.064-5.996-7.209-1.094-.455-3.104-1.289-5.518-.67.515-2.127 1.407-4.529 2.376-7.13l.406-1.093c.457-1.234 1.031-2.512 1.638-3.864 3.279-7.304 7.771-17.307 2.896-39.907-1.826-8.465-7.923-12.598-17.166-11.638-5.541.575-10.61 2.816-13.14 4.101-.543.276-1.04.543-1.505.803.706-8.529 3.372-24.468 13.346-34.552 6.28-6.349 14.643-9.484 24.833-9.315 20.078.33 32.953 10.659 40.219 19.267 6.262 7.416 9.652 14.888 11.005 18.918-10.175-1.037-17.096.976-20.604 6.004-7.633 10.938 4.175 32.166 9.85 42.368 1.041 1.87 1.939 3.486 2.222 4.172 1.848 4.49 4.24 7.488 5.987 9.676.535.67 1.055 1.32 1.45 1.889-3.082.89-8.618 2.948-8.114 13.235-.406 5.162-3.3 29.328-4.77 37.866-1.94 11.28-6.081 15.482-17.723 17.985v-.001Zm50.383-57.799c-3.152 1.466-8.426 2.566-13.436 2.803-5.533.259-8.35-.622-9.013-1.164-.311-6.41 2.069-7.08 4.588-7.789.396-.111.782-.22 1.155-.351.231.189.485.377.763.561 4.448 2.943 12.381 3.26 23.58.942l.123-.024c-1.511 1.416-4.095 3.316-7.76 5.022Z" fill="#fff"/>
</svg>
