<svg width="256" height="256" viewBox="0 0 256 256" fill="none" xmlns="http://www.w3.org/2000/svg">
  <path fill-rule="evenodd" clip-rule="evenodd" d="M182.367 94.027c.394-2.563.765-5.019.81-7.723-10.768-1.34-15.058 1.148-16.748 3.569-5.675 8.132 5.41 28.063 10.144 36.573v.001c1.217 2.186 2.096 3.766 2.501 4.749a27.33 27.33 0 0 0 1.442 2.973c3.256-6.946 2.415-13.985 1.595-20.823v-.006c-.405-3.384-.824-6.882-.716-10.247.111-3.46.548-6.31.972-9.066Zm24.864-35.955c-8.839-11.323-21.324-17.241-37.106-17.59-6.23-.14-11.794.649-15.863 1.494 9.46 4.185 16.388 10.388 21.139 15.932 8.685 10.135 12.946 21.332 13.297 25.074a4.321 4.321 0 0 1-.09 1.467c.138 3.901-.362 7.211-.852 10.41-.399 2.596-.812 5.28-.911 8.41-.097 2.953.281 6.097.68 9.425.972 8.11 2.064 17.258-3.52 26.504l.273.343c.22.275.438.551.656.828 21.611-34.093 29.076-73.612 22.297-82.297ZM73.442 163.82c.993.331 4.006 1.336 8.369-3.923a401.32 401.32 0 0 1 14.629-16.631 27.124 27.124 0 0 1-1.936-1.83c-5.99-6.266-8.717-14.945-7.48-23.813 1.331-9.541.833-17.967.565-22.495v-.001l-.003-.052c-.07-1.21-.123-2.092-.121-2.718-.039-1.646-.408-28.563 15.154-44.318.075-.077.152-.15.229-.222.062-.058.124-.117.184-.177-9.483-3.097-33.084-9.205-47.438 1-8.821 6.27-12.87 17.94-12.035 34.684.265 5.294 3.605 24.175 9.322 42.952 6.608 21.699 14.102 35.384 20.56 37.543l.001.001Zm18.982-45.44c-1.004 7.199 1.188 14.224 6.016 19.274v-.001c3.797 3.973 8.79 6.171 13.922 6.185.589-2.421 1.537-4.97 2.557-7.711l.007-.019.404-1.087c.52-1.406 1.131-2.766 1.777-4.204v-.001c3.134-6.981 7.033-15.667 2.539-36.508-.869-4.025-2.958-6.366-6.386-7.153-7.514-1.725-18.049 3.933-20.322 5.954.019.432.051.974.088 1.591l.006.103c.279 4.717.797 13.496-.608 23.577Zm3.167 45.814c.79.54 2.138 1.192 3.637 1.567 7.275 1.826 17.404 1.951 24.355-7.806.823-1.157.572-2.643.347-3.426-.473-1.658-1.641-3.165-2.84-3.662h-.001c-1.479-.616-2.295-.955-4.079 1.047l-.001.001c-1.198 1.341-2.063 2.442-2.825 3.413-3.328 4.236-4.852 5.673-14.718 7.709-2.04.421-3.215.845-3.875 1.157Zm36.113 39.098c2.816 7.058 7.09 13.232 19.16 10.639v.001c11.642-2.503 15.783-6.705 17.723-17.985 1.47-8.538 4.364-32.704 4.771-37.866-.505-10.287 5.031-12.345 8.113-13.235-.395-.568-.915-1.219-1.45-1.889-1.747-2.188-4.139-5.186-5.987-9.675-.283-.687-1.181-2.303-2.222-4.173-5.675-10.202-17.482-31.43-9.85-42.368 3.508-5.028 10.429-7.041 20.604-6.004-1.353-4.03-4.743-11.502-11.005-18.918-7.266-8.608-20.141-18.938-40.219-19.267-10.19-.169-18.553 2.967-24.833 9.315-9.974 10.084-12.64 26.023-13.346 34.552.465-.26.962-.527 1.506-.803 2.529-1.285 7.598-3.526 13.139-4.1 9.243-.961 15.34 3.173 17.166 11.637 4.875 22.6.383 32.603-2.896 39.907l-.019.043c-.6 1.337-1.167 2.601-1.619 3.821l-.406 1.094c-.968 2.6-1.861 5.002-2.376 7.129 2.414-.619 4.424.215 5.518.67 2.756 1.145 5.053 3.907 5.996 7.209a11.5 11.5 0 0 1 .337 1.603c.083.274.126.566.118.868a503.792 503.792 0 0 0-.182 18.783c.202 2.556.278 5.246.2 7.861l-.023.771c.331 10.206 1.06 17.819 2.082 20.38Zm56.107-44.357c5.01-.237 10.284-1.337 13.436-2.803 3.665-1.706 6.249-3.606 7.76-5.022l-.123.025c-11.199 2.317-19.132 2-23.58-.943a9.38 9.38 0 0 1-.763-.561c-.373.131-.759.24-1.155.351-2.519.709-4.899 1.379-4.588 7.789.663.542 3.48 1.423 9.013 1.164Zm-75.406-68.636c-1.98-.243-3.772-.018-4.68.589-.509.34-.667.736-.71 1.008-.114.72.458 1.517.809 1.928.995 1.164 2.447 1.963 3.885 2.14.208.025.415.037.622.037 2.397 0 4.577-1.648 4.769-2.864.24-1.524-2.265-2.539-4.695-2.837Zm65.585.049c-.189-1.194-2.596-1.535-4.88-1.254-2.281.28-4.493 1.19-4.308 2.386.148.93 2.051 2.519 4.305 2.519.19 0 .382-.011.576-.035 1.504-.184 2.607-1.027 3.132-1.513.798-.741 1.26-1.567 1.175-2.103Z" fill="currentColor"/>
  <path fill-rule="evenodd" clip-rule="evenodd" d="M221.5 146.809c-1.136-3.443-4.112-5.841-7.96-6.416-1.815-.271-3.893-.156-6.352.351-4.286.885-7.467 1.222-9.787 1.288 8.76-14.801 15.883-31.68 19.983-47.568 6.631-25.69 3.088-37.395-1.053-42.688-10.958-14.013-26.945-21.54-46.232-21.77-10.289-.126-19.322 1.907-24.034 3.369-4.387-.775-9.104-1.208-14.053-1.288-9.278-.148-17.476 1.876-24.481 6.036-3.877-1.312-10.101-3.162-17.289-4.343-16.904-2.777-30.528-.613-40.494 6.433-12.067 8.53-17.661 23.35-16.627 44.05.329 6.573 4.002 26.569 9.787 45.533 3.324 10.9 6.869 19.952 10.536 26.906 5.2 9.861 10.765 15.668 17.011 17.754 3.502 1.167 9.863 1.985 16.554-3.592.848 1.028 1.98 2.049 3.481 2.998 1.907 1.204 4.24 2.187 6.568 2.77 8.393 2.099 16.255 1.574 22.962-1.369.041 1.194.073 2.335.1 3.32.044 1.597.089 3.164.147 4.628.397 9.905 1.071 17.607 3.066 22.995.11.297.257.748.412 1.228l.002.006c.996 3.05 2.661 8.152 6.893 12.148 4.384 4.142 9.688 5.412 14.546 5.412 2.436 0 4.761-.32 6.8-.757 7.267-1.559 15.521-3.933 21.492-12.441 5.645-8.043 8.389-20.157 8.886-39.245l.08-.687.064-.551.036-.308.119-1.009 1.329.117.343.023c7.402.338 16.453-1.233 22.011-3.817 4.393-2.04 18.468-9.476 15.154-19.516Zm-109.095-56.51c-1.98-.244-3.773-.019-4.68.587-.509.342-.667.737-.71 1.009-.114.72.458 1.517.809 1.928.995 1.164 2.447 1.963 3.884 2.14.209.025.416.037.622.037 2.398 0 4.577-1.648 4.769-2.864.241-1.524-2.264-2.539-4.694-2.837Zm65.585.047c-.189-1.194-2.596-1.534-4.88-1.254-2.281.28-4.493 1.19-4.308 2.387.148.93 2.051 2.519 4.304 2.519.191 0 .383-.011.577-.035 1.504-.184 2.607-1.027 3.132-1.513.798-.741 1.26-1.567 1.175-2.103Zm29.791 55.435c4.486-.928 7.186-.11 8.025 2.433 1.62 4.914-7.313 10.569-12.264 12.874-4.407 2.051-11.434 3.348-17.524 3.348-2.92.001-5.621-.3-7.719-.956-.994 9.162-3.108 26.242-4.339 33.395-2.302 13.384-8.252 19.455-21.953 22.399-2.333.501-4.453.726-6.38.726-13.126.001-17.283-10.414-18.985-14.678v-.002c-2.078-5.206-2.799-22.296-2.653-39.64-4.736 4.293-10.663 6.512-17.397 6.512-2.769 0-5.673-.373-8.687-1.129-.864-.217-8.455-2.26-8.355-7.125.093-4.45 6.422-5.76 8.811-6.254l.004-.001c8.387-1.731 8.93-2.422 11.535-5.737a87.674 87.674 0 0 1 1.901-2.355l-.006-.069a8.603 8.603 0 0 1-.019-.226c-3.761-.101-7.437-1.107-10.784-2.907a392.024 392.024 0 0 0-14.989 17.002c-3.962 4.774-7.77 6.178-10.875 6.178-1.267 0-2.416-.233-3.412-.566-8.514-2.847-16.606-16.687-24.05-41.133-5.654-18.574-9.238-37.969-9.552-44.273-.935-18.74 3.889-32.004 14.337-39.425 8.756-6.218 21.026-8.106 36.467-5.615 8.931 1.443 16.234 3.956 19.06 5.01 6.506-4.447 14.364-6.629 23.454-6.48 4.958.08 9.511.72 13.688 1.761 1.983-.873 12.215-3.98 24.324-3.844 17.614.187 32.166 7 42.08 19.7 2.46 3.15 3.652 8.307 3.543 15.325-.098 6.395-1.3 14.24-3.477 22.687-4.595 17.832-13.112 36.945-23.465 52.756 1.566 1.156 6.336 3.065 19.656.309Zm-25.414-51.754c.394-2.563.765-5.019.81-7.724-10.768-1.34-15.058 1.15-16.748 3.57-5.675 8.132 5.41 28.062 10.144 36.573 1.217 2.187 2.096 3.766 2.501 4.75a27.33 27.33 0 0 0 1.442 2.973c3.256-6.946 2.415-13.985 1.595-20.823v-.006c-.406-3.384-.824-6.882-.716-10.247.11-3.46.548-6.31.972-9.066Zm24.864-35.955c-8.839-11.323-21.324-17.242-37.106-17.59-6.23-.14-11.794.649-15.863 1.494 9.46 4.184 16.388 10.388 21.139 15.932 8.685 10.135 12.946 21.332 13.297 25.074a4.321 4.321 0 0 1-.09 1.467c.138 3.901-.362 7.211-.852 10.41-.4 2.596-.812 5.28-.912 8.41-.096 2.953.282 6.097.681 9.425.972 8.11 2.064 17.258-3.521 26.504l.274.342c.22.276.438.552.656.829 21.611-34.093 29.076-73.612 22.297-82.297ZM73.442 163.82c.993.331 4.006 1.336 8.369-3.923a401.397 401.397 0 0 1 14.629-16.631 27.101 27.101 0 0 1-1.936-1.83c-5.99-6.266-8.717-14.945-7.48-23.813 1.331-9.541.833-17.967.565-22.495v-.001l-.003-.052c-.07-1.21-.123-2.092-.121-2.718-.039-1.646-.408-28.563 15.154-44.318.075-.077.152-.15.229-.222.062-.059.124-.117.184-.177-9.483-3.097-33.084-9.205-47.439 1-8.82 6.27-12.869 17.94-12.034 34.684.264 5.294 3.605 24.175 9.322 42.951 6.607 21.7 14.101 35.384 20.56 37.544l.001.001Zm18.982-45.441c-1.004 7.2 1.188 14.225 6.016 19.275v-.001c3.797 3.972 8.79 6.171 13.922 6.185.589-2.421 1.537-4.97 2.557-7.712l.007-.018.404-1.087c.52-1.407 1.131-2.766 1.776-4.204l.001-.001c3.134-6.981 7.033-15.667 2.538-36.508-.868-4.026-2.957-6.366-6.385-7.153-7.514-1.726-18.049 3.933-20.322 5.954.019.432.05.974.088 1.591l.006.103c.279 4.717.797 13.496-.608 23.576Zm3.167 45.815c.79.54 2.138 1.192 3.637 1.567 7.274 1.825 17.404 1.951 24.355-7.806.823-1.157.571-2.643.347-3.426-.473-1.658-1.641-3.165-2.841-3.662-1.479-.616-2.295-.955-4.079 1.047l-.001.001c-1.198 1.341-2.063 2.442-2.825 3.413-3.328 4.236-4.852 5.673-14.718 7.709-2.04.421-3.215.845-3.875 1.157Zm36.113 39.098c2.816 7.058 7.09 13.232 19.16 10.639v.001c11.642-2.503 15.783-6.705 17.723-17.985 1.47-8.538 4.364-32.704 4.77-37.866-.504-10.287 5.032-12.345 8.114-13.235-.395-.569-.915-1.219-1.45-1.889-1.747-2.188-4.139-5.186-5.987-9.675-.283-.687-1.181-2.303-2.222-4.173-5.675-10.202-17.483-31.43-9.85-42.368 3.508-5.028 10.429-7.041 20.604-6.004-1.353-4.03-4.743-11.502-11.005-18.919-7.266-8.607-20.141-18.937-40.219-19.266-10.19-.169-18.553 2.966-24.833 9.315-9.974 10.084-12.64 26.023-13.346 34.552.465-.26.962-.527 1.506-.803 2.528-1.285 7.598-3.526 13.139-4.1 9.243-.961 15.34 3.172 17.166 11.637 4.875 22.6.383 32.603-2.896 39.907l-.02.043c-.599 1.337-1.166 2.6-1.618 3.821l-.406 1.093c-.969 2.601-1.861 5.003-2.376 7.13 2.414-.619 4.423.215 5.518.67 2.756 1.145 5.053 3.907 5.996 7.209a11.5 11.5 0 0 1 .337 1.603c.083.274.126.566.118.868-.634 22.691.259 43.238 2.077 47.795Zm56.107-44.357c5.01-.237 10.284-1.337 13.436-2.803 3.665-1.706 6.249-3.606 7.76-5.022l-.123.024c-11.199 2.318-19.132 2.001-23.58-.942a9.38 9.38 0 0 1-.763-.561c-.373.131-.759.24-1.155.351-2.519.709-4.899 1.379-4.588 7.789.663.542 3.48 1.423 9.013 1.164Z" fill="currentColor"/>
</svg>
