<svg width="90" height="90" viewBox="0 0 90 90" fill="none" xmlns="http://www.w3.org/2000/svg">
  <path fill-rule="evenodd" clip-rule="evenodd" d="M34.2 78.0736V38.5396C34.2 36.679 36.1446 35.2963 38.0685 36.3838C39.6085 37.2551 70.338 54.6071 72.9663 56.1094C74.6922 57.0986 74.6634 59.4541 72.9663 60.4434C71.0737 61.5479 40.2271 78.988 37.9881 80.216C36.35 81.1178 34.2 80.1235 34.2 78.0735V78.0736Z" fill="white" />
  <path fill-rule="evenodd" clip-rule="evenodd" d="M31.7701 37.9399C31.7701 34.5685 36.0393 32.1598 39.6514 34.0854C40.5495 34.5634 42.9553 35.9921 45.45 37.3587V24.8832C45.45 23.8171 44.583 22.95 43.5114 22.95L11.3859 22.9697C10.3168 22.9697 9.44995 23.8342 9.44995 24.9029V57.0168C9.44995 58.0829 10.3169 58.95 11.3885 58.95H31.7728C31.7703 50.6719 31.7703 42.4022 31.7703 37.9399L31.7701 37.9399Z" fill="white" />
  <path fill-rule="evenodd" clip-rule="evenodd" d="M47.5955 38.438C47.5955 38.438 64.6056 48.0404 70.5209 51.3C76.8354 47.2144 81.0001 40.2172 81.0001 32.2668C81.0001 19.6653 70.5374 9.45 57.6319 9.45C49.0207 9.45 41.4026 14.1099 37.3501 20.8816H43.9028C45.9424 20.8816 47.596 22.5281 47.596 24.5591L47.5955 38.438Z" fill="white" />
</svg>