<svg width="256" height="256" viewBox="0 0 256 256" fill="none" xmlns="http://www.w3.org/2000/svg">
  <path d="M126.76 34.0015C119.185 34.0369 111.951 34.6861 105.586 35.818C86.8346 39.147 83.4301 46.1148 83.4301 58.9648V75.9356H127.741V81.5926H83.4301H66.8007C53.9227 81.5926 42.6465 89.3711 39.1194 104.168C35.0509 121.13 34.8705 131.714 39.1194 149.424C42.2691 162.607 49.7912 172 62.6691 172H77.9042V151.656C77.9042 136.958 90.5585 123.994 105.586 123.994H149.845C162.165 123.994 172 113.8 172 101.366V58.9648C172 46.8972 161.869 37.832 149.845 35.818C142.233 34.5446 134.335 33.9662 126.76 34.0015ZM102.797 47.6509C107.374 47.6509 111.111 51.4684 111.111 56.1622C111.111 60.8395 107.374 64.6217 102.797 64.6217C98.2033 64.6217 94.482 60.8395 94.482 56.1622C94.482 51.4684 98.2033 47.6509 102.797 47.6509Z" fill="currentColor" />
  <path d="M177.905 83V102.765C177.905 118.089 164.998 130.986 150.28 130.986H106.11C94.0117 130.986 84 141.409 84 153.604V195.988C84 208.051 94.421 215.146 106.11 218.606C120.108 222.749 133.531 223.498 150.28 218.606C161.412 215.362 172.39 208.832 172.39 195.988V179.024H128.221V173.37H172.39H194.5C207.352 173.37 212.141 164.346 216.611 150.803C221.227 136.86 221.031 123.452 216.611 105.566C213.435 92.6886 207.368 83 194.5 83H177.905ZM153.063 190.333C157.647 190.333 161.361 194.114 161.361 198.789C161.361 203.481 157.647 207.297 153.063 207.297C148.495 207.297 144.765 203.481 144.765 198.789C144.765 194.114 148.495 190.333 153.063 190.333Z" fill="currentColor" />
</svg>