<svg width="256" height="256" viewBox="0 0 256 256" fill="none" xmlns="http://www.w3.org/2000/svg">
<path d="M126.76 35.0015C119.185 35.0369 111.951 35.6861 105.586 36.818C86.8346 40.147 83.4301 47.1148 83.4301 59.9648V76.9356H127.741V82.5926H83.4301H66.8007C53.9227 82.5926 42.6465 90.3711 39.1194 105.168C35.0509 122.13 34.8705 132.714 39.1194 150.424C42.2691 163.607 49.7912 173 62.6691 173H77.9042V152.656C77.9042 137.958 90.5585 124.994 105.586 124.994H149.845C162.165 124.994 172 114.8 172 102.366V59.9648C172 47.8972 161.869 38.832 149.845 36.818C142.233 35.5446 134.335 34.9662 126.76 35.0015ZM102.797 48.6509C107.374 48.6509 111.111 52.4684 111.111 57.1622C111.111 61.8395 107.374 65.6217 102.797 65.6217C98.2033 65.6217 94.482 61.8395 94.482 57.1622C94.482 52.4684 98.2033 48.6509 102.797 48.6509Z" fill="url(#paint0_linear_166_116)"/>
<path d="M177.905 82V101.765C177.905 117.089 164.998 129.986 150.28 129.986H106.11C94.0117 129.986 84 140.409 84 152.604V194.988C84 207.051 94.421 214.146 106.11 217.606C120.108 221.749 133.531 222.498 150.28 217.606C161.412 214.362 172.39 207.832 172.39 194.988V178.024H128.221V172.37H172.39H194.5C207.352 172.37 212.141 163.346 216.611 149.803C221.227 135.86 221.031 122.452 216.611 104.566C213.435 91.6886 207.368 82 194.5 82H177.905ZM153.063 189.333C157.647 189.333 161.361 193.114 161.361 197.789C161.361 202.481 157.647 206.297 153.063 206.297C148.495 206.297 144.765 202.481 144.765 197.789C144.765 193.114 148.495 189.333 153.063 189.333Z" fill="url(#paint1_linear_166_116)"/>
<defs>
<linearGradient id="paint0_linear_166_116" x1="36" y1="35" x2="138.598" y2="121.999" gradientUnits="userSpaceOnUse">
<stop stop-color="#5A9FD4"/>
<stop offset="1" stop-color="#306998"/>
</linearGradient>
<linearGradient id="paint1_linear_166_116" x1="152" y1="196.363" x2="115.101" y2="144.992" gradientUnits="userSpaceOnUse">
<stop stop-color="#FFD43B"/>
<stop offset="1" stop-color="#FFE873"/>
</linearGradient>
</defs>
</svg>
