<svg width="256" height="256" viewBox="0 0 256 256" fill="none" xmlns="http://www.w3.org/2000/svg">
  <path d="M127.5 144.988c9.697 0 17.559-7.83 17.559-17.488s-7.862-17.488-17.559-17.488c-9.697 0-17.559 7.83-17.559 17.488s7.862 17.488 17.559 17.488Z" fill="#61DAFB"/>
  <path fill-rule="evenodd" clip-rule="evenodd" d="M109.585 96.595a239.008 239.008 0 0 0-9.53 15.123A238.676 238.676 0 0 0 91.67 127.5a238.676 238.676 0 0 0 8.385 15.782 238.946 238.946 0 0 0 9.53 15.123c5.785.432 11.775.659 17.915.659 6.14 0 12.13-.227 17.915-.659a238.946 238.946 0 0 0 9.53-15.123 238.196 238.196 0 0 0 8.385-15.782 238.196 238.196 0 0 0-8.385-15.782 239.008 239.008 0 0 0-9.53-15.123 241.23 241.23 0 0 0-17.915-.659c-6.14 0-12.13.227-17.915.659Zm-10.987 1.091a250.552 250.552 0 0 0-5.961 9.767 250.38 250.38 0 0 0-5.512 10.025c-2.436-5.759-4.508-11.375-6.203-16.762 5.532-1.23 11.45-2.252 17.676-3.03Zm17.429-10.022c3.766-.17 7.595-.258 11.473-.258 3.878 0 7.707.087 11.473.258-3.79-4.981-7.637-9.575-11.473-13.732-3.836 4.157-7.683 8.75-11.473 13.732Zm5.497-19.862c-5.64 6.076-11.257 13.004-16.673 20.627-9.336.86-18.168 2.241-26.272 4.068a120.332 120.332 0 0 1-2.19-10.468c-1.396-8.673-1.429-15.983-.234-21.544 1.194-5.56 3.491-8.898 6.378-10.557 2.886-1.66 6.936-1.973 12.369-.223 5.432 1.75 11.772 5.434 18.615 10.974 2.63 2.128 5.307 4.509 8.007 7.123Zm11.952 0c5.64 6.076 11.257 13.004 16.673 20.627 9.336.86 18.168 2.241 26.272 4.068a120.445 120.445 0 0 0 2.191-10.468c1.395-8.673 1.428-15.983.233-21.544-1.194-5.56-3.491-8.898-6.378-10.557-2.886-1.66-6.936-1.973-12.369-.223-5.432 1.75-11.772 5.434-18.615 10.974a120.892 120.892 0 0 0-8.007 7.123Zm51.247 26.793a129.132 129.132 0 0 0 2.346-11.217c1.492-9.275 1.645-17.726.152-24.677-1.492-6.95-4.754-12.874-10.471-16.161-5.717-3.287-12.499-3.14-19.288-.951-6.791 2.188-14.063 6.545-21.382 12.47a129.98 129.98 0 0 0-8.58 7.632 129.98 129.98 0 0 0-8.58-7.633c-7.319-5.924-14.592-10.282-21.382-12.47-6.79-2.187-13.571-2.335-19.288.952-5.717 3.287-8.979 9.21-10.471 16.161-1.493 6.95-1.34 15.402.152 24.677a128.84 128.84 0 0 0 2.346 11.217 130.224 130.224 0 0 0-10.926 3.585c-8.811 3.351-16.236 7.445-21.534 12.208C32.52 115.15 29 120.926 29 127.5c0 6.574 3.52 12.35 8.817 17.112 5.298 4.763 12.723 8.857 21.534 12.208a130.626 130.626 0 0 0 10.926 3.585 128.73 128.73 0 0 0-2.346 11.217c-1.492 9.275-1.645 17.726-.152 24.677 1.492 6.95 4.754 12.874 10.471 16.161 5.717 3.287 12.499 3.139 19.288.951 6.79-2.187 14.063-6.545 21.382-12.47a129.543 129.543 0 0 0 8.58-7.632 129.543 129.543 0 0 0 8.58 7.632c7.319 5.925 14.591 10.283 21.382 12.47 6.789 2.188 13.571 2.336 19.288-.951 5.717-3.287 8.979-9.211 10.471-16.161 1.493-6.951 1.34-15.402-.152-24.677a129.022 129.022 0 0 0-2.346-11.217 130.548 130.548 0 0 0 10.926-3.585c8.811-3.351 16.236-7.445 21.534-12.208C222.48 139.85 226 134.074 226 127.5c0-6.574-3.52-12.35-8.817-17.112-5.298-4.763-12.723-8.857-21.534-12.208a130.146 130.146 0 0 0-10.926-3.585Zm-10.645 6.121c-5.532-1.23-11.45-2.252-17.676-3.03a251.532 251.532 0 0 1 11.473 19.792c2.436-5.759 4.508-11.375 6.203-16.762Zm-1.28 26.784c3.92-8.483 7.135-16.792 9.598-24.695a121.484 121.484 0 0 1 10.198 3.345c8.239 3.133 14.612 6.76 18.85 10.57 4.238 3.81 5.991 7.46 5.991 10.78 0 3.32-1.753 6.97-5.991 10.78-4.238 3.81-10.611 7.437-18.85 10.57a121.484 121.484 0 0 1-10.198 3.345c-2.463-7.903-5.678-16.212-9.598-24.695Zm-4.923 10.022a251.532 251.532 0 0 1-5.512 10.025 251.034 251.034 0 0 1-5.961 9.767c6.226-.778 12.144-1.799 17.676-3.03-1.695-5.387-3.767-11.003-6.203-16.762Zm8.546 24.981c-8.104 1.827-16.936 3.208-26.272 4.068-5.416 7.623-11.033 14.551-16.673 20.627a120.9 120.9 0 0 0 8.007 7.123c6.843 5.54 13.183 9.224 18.615 10.974 5.433 1.75 9.483 1.437 12.369-.223 2.887-1.659 5.184-4.996 6.378-10.557 1.195-5.561 1.162-12.871-.233-21.544a120.433 120.433 0 0 0-2.191-10.468ZM127.5 181.068c3.836-4.157 7.683-8.751 11.473-13.732a253.063 253.063 0 0 1-22.946 0c3.79 4.981 7.637 9.575 11.473 13.732Zm-28.902-23.754a250.79 250.79 0 0 1-5.961-9.767 250.38 250.38 0 0 1-5.512-10.025c-2.436 5.759-4.508 11.375-6.203 16.762 5.532 1.231 11.45 2.252 17.676 3.03Zm-20.019 5.189c8.104 1.827 16.936 3.208 26.272 4.068 5.416 7.623 11.033 14.551 16.673 20.627a120.9 120.9 0 0 1-8.007 7.123c-6.843 5.54-13.183 9.224-18.615 10.974-5.433 1.75-9.483 1.437-12.37-.223-2.886-1.659-5.183-4.996-6.377-10.557-1.195-5.561-1.162-12.871.233-21.544a120.32 120.32 0 0 1 2.191-10.468Zm-5.975-10.308a121.575 121.575 0 0 1-10.198-3.345c-8.24-3.133-14.612-6.76-18.85-10.57-4.238-3.81-5.99-7.46-5.99-10.78 0-3.32 1.752-6.97 5.99-10.78 4.238-3.81 10.61-7.437 18.85-10.57a121.575 121.575 0 0 1 10.198-3.345c2.463 7.903 5.678 16.212 9.598 24.695-3.92 8.483-7.135 16.792-9.598 24.695Z" fill="#61DAFB"/>
</svg>
