<svg width="90" height="90" viewBox="0 0 90 90" fill="none" xmlns="http://www.w3.org/2000/svg">
<path d="M49.2762 10H41.8476C39.8667 10 39 11.4516 39 13.2661C39 15.0806 39.8667 16.5323 41.7238 16.5323C41.7888 16.5323 41.8532 16.5448 41.9133 16.5691C41.9734 16.5934 42.028 16.629 42.074 16.674C42.12 16.7189 42.1565 16.7723 42.1813 16.831C42.2062 16.8897 42.219 16.9526 42.219 17.0161V25H48.781V17.0161C48.781 16.8878 48.8331 16.7647 48.926 16.674C49.0189 16.5832 49.1448 16.5323 49.2762 16.5323C51.1333 16.5323 52 15.0806 52 13.2661C52 11.4516 51.1333 10 49.2762 10Z" fill="url(#paint0_linear_107_146)"/>
<path d="M11 56.1751C11 47.1113 14.6348 38.4187 21.1048 32.0096C27.5748 25.6006 36.35 22 45.5 22C54.65 22 63.4252 25.6006 69.8952 32.0096C76.3652 38.4187 80 47.1113 80 56.1751V57H11V56.1751Z" fill="url(#paint1_linear_107_146)"/>
<path d="M74.9862 63H16.0138C14.7045 62.9996 13.447 63.5018 12.5101 64.3991C11.5731 65.2964 11.0312 66.5176 11 67.8018V76H80V67.8018C79.9688 66.5176 79.4269 65.2964 78.4899 64.3991C77.553 63.5018 76.2955 62.9996 74.9862 63V63Z" fill="url(#paint2_linear_107_146)"/>
<path d="M38 57H52V62H38V57Z" fill="url(#paint3_linear_107_146)"/>
<path d="M18 50C21.9053 35.8833 29.8343 29.8167 38 29C38 29 28.1775 34.6 28.1775 50H18Z" fill="#F8F5ED"/>
<path opacity="0.4" d="M11 56.1751C11 47.1113 14.6348 38.4187 21.1048 32.0096C27.5748 25.6006 36.35 22 45.5 22C54.65 22 63.4252 25.6006 69.8952 32.0096C76.3652 38.4187 80 47.1113 80 56.1751V57H11V56.1751Z" fill="url(#paint4_linear_107_146)"/>
<defs>
<linearGradient id="paint0_linear_107_146" x1="39.619" y1="29.8387" x2="45.7994" y2="12.93" gradientUnits="userSpaceOnUse">
<stop stop-color="#666666"/>
<stop offset="1" stop-color="#AEB0B3"/>
</linearGradient>
<linearGradient id="paint1_linear_107_146" x1="21.469" y1="59.2391" x2="55.9395" y2="40.4648" gradientUnits="userSpaceOnUse">
<stop stop-color="#E77709"/>
<stop offset="1" stop-color="#E6A700"/>
</linearGradient>
<linearGradient id="paint2_linear_107_146" x1="30.1003" y1="95.7928" x2="55.9891" y2="52.8379" gradientUnits="userSpaceOnUse">
<stop offset="0.1" stop-color="#6F6F6F"/>
<stop offset="1" stop-color="#B5B7BA"/>
</linearGradient>
<linearGradient id="paint3_linear_107_146" x1="40.2353" y1="59.5532" x2="60.4706" y2="59.5532" gradientUnits="userSpaceOnUse">
<stop stop-color="#5C5C5C"/>
<stop offset="1" stop-color="#A2A4A7"/>
</linearGradient>
<linearGradient id="paint4_linear_107_146" x1="21.469" y1="59.2391" x2="55.9395" y2="40.4648" gradientUnits="userSpaceOnUse">
<stop stop-color="#E77709"/>
<stop offset="1" stop-color="#E6A700"/>
</linearGradient>
</defs>
</svg>
