<svg width="256" height="256" viewBox="0 0 256 256" fill="none" xmlns="http://www.w3.org/2000/svg">
<path d="M77.9562 227.7L27.5187 27.7619L227.008 83.604" fill="white"/>
<path fill-rule="evenodd" clip-rule="evenodd" d="M26 26L229 83.301L116.005 192.607L116.005 192.608L77.3854 230L26 26ZM67.04 179.386L78.6599 225.532L112.937 192.343L67.04 179.386ZM115.831 189.542L150.108 156.386L104.212 143.428L115.831 189.542ZM104.851 141.198L150.749 154.155L139.159 108.009L104.851 141.198ZM141.415 107.437L153.004 153.583L187.312 120.395L141.415 107.437ZM190.208 117.594L224.484 84.4371L178.588 71.48L190.208 117.594ZM174.711 70.3855L128.816 57.4283L140.435 103.542L174.711 70.3855ZM137.538 106.344L91.6103 93.4173L103.23 139.533L137.538 106.344ZM100.974 140.103L89.3548 93.9893L55.0787 127.146L100.974 140.103ZM53.4578 125.481L87.7339 92.3246L41.8382 79.3674L53.4578 125.481ZM42.4766 77.1366L88.3823 90.0965L76.754 43.9479L42.4766 77.1366ZM79.0096 43.3763L90.6295 89.4916L124.937 56.3338L79.0096 43.3763ZM126.559 57.9975L92.2259 91.18L138.18 104.114L126.559 57.9975ZM75.1338 42.2824L40.8567 75.4708L29.2368 29.3249L75.1338 42.2824ZM54.4393 129.377L100.335 142.334L66.0588 175.491L54.4393 129.377ZM67.6797 177.155L113.575 190.113L101.956 143.999L67.6797 177.155ZM142.056 105.207L187.952 118.164L176.332 72.0502L142.056 105.207Z" fill="black"/>
</svg>
