<svg width="256" height="256" viewBox="0 0 256 256" fill="none" xmlns="http://www.w3.org/2000/svg">
  <path fill-rule="evenodd" clip-rule="evenodd" d="m114.066 192.596-12.602-50.171 2.258-.567 12.601 50.171-2.257.567Z" fill="currentColor"/>
  <path fill-rule="evenodd" clip-rule="evenodd" d="m102.91 141.022 49.773 14.097-.634 2.239-49.773-14.097.634-2.239Z" fill="currentColor"/>
  <path fill-rule="evenodd" clip-rule="evenodd" d="m153.176 157.074-37.171 36.074-1.621-1.67 37.171-36.074 1.621 1.67Z" fill="currentColor"/>
  <path fill-rule="evenodd" clip-rule="evenodd" d="m65.739 177.096 49.772 14.097-.634 2.24-49.772-14.098.634-2.239Z" fill="currentColor"/>
  <path fill-rule="evenodd" clip-rule="evenodd" d="m64.293 178.499 2.257-.567 12.11 48.247 35.723-34.701 1.622 1.67-38.62 37.514-13.092-52.163Z" fill="currentColor"/>
  <path fill-rule="evenodd" clip-rule="evenodd" d="m103.404 142.976-37.172 36.075-1.62-1.67 37.171-36.075 1.621 1.67Z" fill="currentColor"/>
  <path fill-rule="evenodd" clip-rule="evenodd" d="m140.608 106.869-37.204 36.107-1.621-1.67 37.204-36.107 1.621 1.67ZM177.78 70.795l-37.172 36.074-1.621-1.67 37.172-36.075 1.621 1.67Z" fill="currentColor"/>
  <path fill-rule="evenodd" clip-rule="evenodd" d="m138.669 106.317-12.601-50.171 2.257-.567 12.601 50.171-2.257.567Z" fill="currentColor"/>
  <path fill-rule="evenodd" clip-rule="evenodd" d="m90.308 90.85 49.806 14.064-.632 2.24L89.676 93.09l.632-2.24Z" fill="currentColor"/>
  <path fill-rule="evenodd" clip-rule="evenodd" d="m101.464 142.425-12.6-50.172 2.257-.567 12.601 50.172-2.258.567Z" fill="currentColor"/>
  <path fill-rule="evenodd" clip-rule="evenodd" d="m53.138 126.925 49.772 14.097-.634 2.239-49.773-14.097.635-2.239Z" fill="currentColor"/>
  <path fill-rule="evenodd" clip-rule="evenodd" d="m64.293 178.499-12.601-50.171 2.257-.567 12.601 50.171-2.257.567ZM51.692 128.328 39.09 78.156l2.257-.567 12.601 50.172-2.257.567Z" fill="currentColor"/>
  <path fill-rule="evenodd" clip-rule="evenodd" d="M40.537 76.753 90.309 90.85l-.634 2.24-49.773-14.098.635-2.239Z" fill="currentColor"/>
  <path fill-rule="evenodd" clip-rule="evenodd" d="m90.802 92.805-37.171 36.074-1.62-1.67 37.17-36.074 1.621 1.67ZM128.007 56.698 90.802 92.772l-1.62-1.67 37.205-36.075 1.62 1.67Z" fill="currentColor"/>
  <path fill-rule="evenodd" clip-rule="evenodd" d="m77.708 40.645 49.806 14.098-.634 2.239-49.806-14.097.634-2.24Z" fill="currentColor"/>
  <path fill-rule="evenodd" clip-rule="evenodd" d="m88.863 92.22-12.6-50.172 2.257-.566 12.6 50.171-2.257.567Z" fill="currentColor"/>
  <path fill-rule="evenodd" clip-rule="evenodd" d="m26 26 51.708 14.645-.634 2.24-47.837-13.55L41.348 77.59l-2.257.567L26 26Z" fill="currentColor"/>
  <path fill-rule="evenodd" clip-rule="evenodd" d="M78.202 42.6 41.03 78.707l-1.621-1.67L76.58 40.93l1.622 1.67ZM177.286 68.84 229 83.487l-38.619 37.479-1.621-1.67 35.724-34.67-47.832-13.547.634-2.24Z" fill="currentColor"/>
  <path fill-rule="evenodd" clip-rule="evenodd" d="m188.442 120.415-12.601-50.172 2.257-.567 12.601 50.172-2.257.567Z" fill="currentColor"/>
  <path fill-rule="evenodd" clip-rule="evenodd" d="m140.115 104.914 49.772 14.097-.634 2.24-49.772-14.098.634-2.239Z" fill="currentColor"/>
  <path fill-rule="evenodd" clip-rule="evenodd" d="m151.237 156.521-12.568-50.205 2.258-.565 12.567 50.205-2.257.565Z" fill="currentColor"/>
  <path fill-rule="evenodd" clip-rule="evenodd" d="m190.381 120.966-37.205 36.108-1.621-1.67 37.205-36.108 1.621 1.67ZM127.514 54.743l49.772 14.097-.634 2.24-49.772-14.098.634-2.24Z" fill="currentColor"/>
</svg>
