<?xml version="1.0" encoding="iso-8859-1"?>
<!-- Generator: Adobe Illustrator 18.0.0, SVG Export Plug-In . SVG Version: 6.00 Build 0)  -->
<!DOCTYPE svg PUBLIC "-//W3C//DTD SVG 1.1//EN" "http://www.w3.org/Graphics/SVG/1.1/DTD/svg11.dtd">
<svg version="1.1" id="Capa_1" xmlns="http://www.w3.org/2000/svg" xmlns:xlink="http://www.w3.org/1999/xlink" x="0px" y="0px"
	 viewBox="0 0 468.651 468.651" style="enable-background:new 0 0 468.651 468.651;" xml:space="preserve">
<g>
	<path d="M69.103,272.658l-7.658,1.537c-4.062,0.815-6.692,4.768-5.878,8.83c0.715,3.563,3.846,6.025,7.346,6.025
		c0.489,0,0.985-0.048,1.483-0.148l327.768-65.785c4.062-0.815,6.692-4.768,5.878-8.83c-0.814-4.061-4.765-6.691-8.829-5.877
		l-163.961,32.908l8.09-45.422c0.435-2.442-0.365-4.941-2.139-6.676c-1.772-1.734-4.288-2.479-6.721-1.993l-18.793,3.772
		l-11.156-20.47c-1.573-2.885-4.843-4.413-8.062-3.765l-17.789,3.57l-2.262-11.27c-0.816-4.061-4.776-6.689-8.829-5.877
		c-4.062,0.815-6.693,4.769-5.878,8.83l2.262,11.27l-21.608,4.337l-2.262-11.27c-0.814-4.062-4.767-6.688-8.829-5.878
		c-4.062,0.815-6.692,4.768-5.878,8.829l2.262,11.27l-21.608,4.337l-2.262-11.27c-0.814-4.062-4.769-6.691-8.829-5.878
		c-4.062,0.815-6.692,4.768-5.878,8.829l2.262,11.27l-14.063,2.822c-1.95,0.392-3.665,1.542-4.768,3.198
		c-1.103,1.656-1.502,3.682-1.11,5.632l3.944,19.649l-5.683,1.141c-2.132,0.428-3.973,1.76-5.047,3.65
		c-1.073,1.891-1.273,4.154-0.548,6.204L69.103,272.658z M209.45,244.489L83.958,269.676l-12.862-36.365l4.551-0.913
		c0.002,0,0.005-0.001,0.007-0.001s0.005-0.001,0.007-0.002L216.644,204.1L209.45,244.489z M77.588,203.918l106.418-21.359
		l6.284,11.531L80.056,216.214L77.588,203.918z"/>
	<circle cx="195.616" cy="221.981" r="7.802"/>
	<path d="M282.891,152.168c5.892-1.181,11.922,1.701,14.668,7.012c1.332,2.579,3.953,4.058,6.668,4.058
		c0.75,0,1.504-0.126,2.243-0.359c3.601-0.29,6.563-3.149,6.865-6.866c0.482-5.958,4.935-10.946,10.824-12.128
		c4.062-0.815,6.692-4.768,5.878-8.829c-0.814-4.062-4.769-6.691-8.829-5.878c-8.013,1.608-14.747,6.577-18.802,13.275
		c-6.326-4.614-14.456-6.599-22.467-4.993c-4.062,0.815-6.692,4.768-5.878,8.829C274.877,150.352,278.83,152.981,282.891,152.168z"
		/>
	<path d="M212.271,137.772c5.89-1.183,11.922,1.7,14.668,7.012c1.332,2.579,3.953,4.058,6.668,4.058c0.75,0,1.504-0.126,2.243-0.359
		c3.6-0.29,6.564-3.149,6.865-6.865c0.483-5.959,4.936-10.947,10.825-12.129c4.062-0.815,6.693-4.769,5.878-8.83
		s-4.774-6.691-8.829-5.877c-8.013,1.609-14.747,6.577-18.802,13.276c-6.327-4.615-14.457-6.599-22.468-4.993
		c-4.062,0.815-6.693,4.769-5.878,8.83C204.258,135.956,208.21,138.585,212.271,137.772z"/>
	<path d="M467.545,226.722c-1.04-1.696-2.711-2.909-4.645-3.373l-38.07-9.127L394.153,61.365c-0.392-1.951-1.542-3.666-3.197-4.768
		c-1.655-1.103-3.684-1.5-5.632-1.11L6.025,131.614c-1.95,0.392-3.665,1.542-4.768,3.198s-1.502,3.682-1.11,5.632l35.448,176.618
		c0.592,2.948,2.839,5.138,5.579,5.808c0.009,0.002,0.016,0.007,0.025,0.009l376.196,90.225c0.577,0.139,1.164,0.207,1.749,0.207
		c1.372,0,2.73-0.377,3.92-1.106c1.696-1.04,2.909-2.711,3.373-4.645l42.007-175.168
		C468.908,230.457,468.585,228.418,467.545,226.722z M16.329,144.845L380.921,71.67l32.496,161.912L48.826,306.756L16.329,144.845z
		 M413.601,396.768L77.82,316.236l28.165-5.653l88.57,21.244c0.588,0.141,1.176,0.209,1.755,0.209c3.389,0,6.462-2.313,7.287-5.752
		c0.966-4.028-1.516-8.077-5.544-9.042l-57.056-13.685l29.005-5.821l94.483,22.661c0.588,0.141,1.176,0.209,1.755,0.209
		c3.389,0,6.462-2.313,7.287-5.753c0.966-4.028-1.516-8.076-5.544-9.042l-62.967-15.102l92.993-18.664l69.707,16.718
		c0.588,0.141,1.176,0.208,1.755,0.208c3.389,0,6.462-2.313,7.287-5.752c0.966-4.028-1.516-8.076-5.544-9.042l-38.191-9.16
		l29.013-5.823l65.722,15.762c0.588,0.141,1.176,0.209,1.755,0.209c3.389,0,6.462-2.313,7.287-5.753
		c0.966-4.028-1.516-8.076-5.544-9.042l-34.206-8.204l26.673-5.353c4.062-0.815,6.692-4.768,5.878-8.829l-1.517-7.556l24.026,5.76
		L413.601,396.768z"/>
	<path d="M345.589,352.628l-116.394-27.917c-4.026-0.966-8.075,1.516-9.042,5.543c-0.966,4.028,1.516,8.077,5.544,9.042
		l116.394,27.917c0.588,0.141,1.176,0.209,1.755,0.209c3.389,0,6.462-2.313,7.287-5.752
		C352.099,357.642,349.617,353.594,345.589,352.628z"/>
	<path d="M412.071,340.367l-111.2-26.67c-4.027-0.966-8.075,1.516-9.042,5.544c-0.966,4.028,1.516,8.076,5.544,9.042l111.2,26.67
		c0.588,0.141,1.176,0.209,1.755,0.209c3.389,0,6.462-2.313,7.287-5.753C418.58,345.381,416.099,341.333,412.071,340.367z"/>
	<path d="M418.469,313.704l-132.136-31.691c-4.026-0.966-8.076,1.516-9.042,5.544s1.516,8.076,5.544,9.042l132.136,31.691
		c0.588,0.141,1.176,0.208,1.755,0.208c3.389,0,6.462-2.313,7.287-5.752C424.979,318.718,422.497,314.67,418.469,313.704z"/>
	<path d="M424.859,287.042l-15.823-3.795c-4.028-0.967-8.076,1.516-9.042,5.544s1.516,8.076,5.544,9.042l15.823,3.795
		c0.588,0.141,1.176,0.209,1.755,0.209c3.389,0,6.462-2.313,7.287-5.753C431.368,292.056,428.887,288.008,424.859,287.042z"/>
</g>
<g>
</g>
<g>
</g>
<g>
</g>
<g>
</g>
<g>
</g>
<g>
</g>
<g>
</g>
<g>
</g>
<g>
</g>
<g>
</g>
<g>
</g>
<g>
</g>
<g>
</g>
<g>
</g>
<g>
</g>
</svg>
