<svg width="256" height="256" viewBox="0 0 256 256" xmlns="http://www.w3.org/2000/svg" fill="currentColor">
  <path fill-rule="evenodd" clip-rule="evenodd" d="M45.0195 25H209.98C221.037 25 230 33.963 230 45.0195V209.98C230 221.037 221.037 230 209.98 230H45.0195C33.963 230 25 221.037 25 209.98V45.0195C25 33.963 33.963 25 45.0195 25ZM49 39C43.4772 39 39 43.4771 39 49V206C39 211.523 43.4771 216 49 216H206C211.523 216 216 211.523 216 206V49C216 43.4772 211.523 39 206 39H49Z" />
  <path fill-rule="evenodd" clip-rule="evenodd" d="M155.715 187.185V204.637C158.553 206.103 162.021 207.185 165.875 207.918C169.728 208.651 173.932 209 178.136 209C182.34 209 186.194 208.616 190.047 207.813C193.901 207.01 197.054 205.684 199.856 203.974C202.694 202.124 205.111 199.785 206.513 196.644C207.914 193.502 209 190.012 209 185.474C209 182.298 208.51 179.54 207.564 177.097C206.618 174.654 205.251 172.559 203.36 170.814C201.573 168.964 199.506 167.324 197.054 165.928C194.602 164.531 191.799 163.065 188.646 161.739C186.334 160.797 184.442 159.889 182.34 158.981C180.518 158.074 178.942 157.166 177.786 156.259C176.49 155.316 175.509 154.339 174.808 153.327C174.107 152.28 173.757 151.128 173.757 149.836C173.757 148.65 174.069 147.568 174.703 146.59C175.337 145.613 176.209 144.81 177.33 144.112C178.451 143.414 179.853 142.89 181.534 142.506C183.181 142.122 185.003 141.948 187.14 141.948C188.611 141.948 190.152 142.056 191.694 142.276C193.305 142.496 194.952 142.835 196.598 143.288C198.245 143.742 199.856 144.301 201.503 144.999C203.044 145.697 204.481 146.5 205.707 147.407V131.002C203.044 129.99 200.102 129.222 196.949 128.733C193.796 128.244 190.293 128 186.089 128C181.885 128 178.031 128.454 174.177 129.326C170.324 130.199 167.171 131.595 164.368 133.515C161.531 135.4 159.464 137.704 157.712 140.845C156.066 143.777 155.26 147.128 155.26 151.316C155.26 156.552 156.766 161.09 159.814 164.58C162.827 168.42 167.521 171.212 173.477 174.004C175.894 174.982 178.031 175.959 180.133 176.902C182.235 177.844 183.987 178.821 185.388 179.834C186.894 180.846 188.085 181.963 188.891 183.15C189.767 184.336 190.222 185.732 190.222 187.338C190.222 188.455 189.949 189.502 189.417 190.48C188.884 191.457 188.05 192.295 186.929 192.993C185.808 193.691 184.442 194.249 182.725 194.668C181.079 195.052 179.222 195.261 176.77 195.261C172.916 195.261 169.063 194.598 165.559 193.272C161.706 191.946 158.203 189.956 155.05 187.338L155.715 187.185ZM126.288 144.252H148.709V129.941H86V144.252H108.421V208.127H126.288V144.252Z" />
</svg>