<svg width="256" height="256" viewBox="0 0 256 256" fill="none" xmlns="http://www.w3.org/2000/svg">
<path d="M209.98 25H45.0195C33.963 25 25 33.963 25 45.0195V209.98C25 221.037 33.963 230 45.0195 230H209.98C221.037 230 230 221.037 230 209.98V45.0195C230 33.963 221.037 25 209.98 25Z" fill="#3178C6"/>
<path fill-rule="evenodd" clip-rule="evenodd" d="M151.924 187.959V207.978C155.167 209.66 159.131 210.901 163.535 211.742C167.939 212.583 172.744 212.983 177.549 212.983C182.354 212.983 186.758 212.543 191.162 211.622C195.566 210.701 199.17 209.18 202.373 207.218C205.616 205.096 208.379 202.413 209.98 198.809C211.582 195.206 212.823 191.202 212.823 185.997C212.823 182.353 212.263 179.19 211.182 176.388C210.101 173.585 208.539 171.182 206.377 169.181C204.335 167.058 201.973 165.177 199.17 163.575C196.367 161.973 193.164 160.292 189.561 158.77C186.918 157.689 184.756 156.648 182.354 155.607C180.271 154.566 178.47 153.525 177.148 152.484C175.667 151.403 174.546 150.282 173.745 149.121C172.944 147.92 172.544 146.598 172.544 145.117C172.544 143.756 172.9 142.515 173.625 141.393C174.35 140.272 175.347 139.351 176.628 138.551C177.909 137.75 179.511 137.149 181.433 136.709C183.314 136.268 185.396 136.068 187.839 136.068C189.521 136.068 191.282 136.192 193.044 136.445C194.886 136.697 196.768 137.085 198.649 137.606C200.531 138.126 202.373 138.767 204.255 139.568C206.017 140.368 207.658 141.289 209.06 142.33V123.512C206.017 122.351 202.653 121.47 199.05 120.909C195.446 120.349 191.442 120.069 186.638 120.069C181.833 120.069 177.429 120.589 173.024 121.59C168.62 122.591 165.017 124.193 161.813 126.395C158.57 128.557 156.208 131.199 154.206 134.803C152.324 138.166 151.403 142.01 151.403 146.815C151.403 152.821 153.125 158.026 156.608 162.03C160.052 166.434 165.417 169.637 172.224 172.84C174.986 173.961 177.429 175.082 179.831 176.163C182.233 177.244 184.235 178.365 185.837 179.527C187.559 180.688 188.92 181.969 189.841 183.33C190.842 184.692 191.362 186.293 191.362 188.135C191.362 189.416 191.05 190.617 190.441 191.739C189.833 192.86 188.88 193.821 187.599 194.621C186.317 195.422 184.756 196.063 182.794 196.543C180.912 196.984 178.79 197.224 175.987 197.224C171.583 197.224 167.179 196.463 163.175 194.942C158.771 193.42 154.767 191.138 151.163 188.135L151.924 187.959ZM118.291 138.711H143.916V122.295H72.2461V138.711H97.8711V211.982H118.291V138.711Z" fill="white"/>
</svg>
