<svg xmlns="http://www.w3.org/2000/svg" viewBox="0 0 1024.1 567.4">
  <g opacity=".3" fill="#090909">
    <path d="M941 49c-31.8 18.8-63 38.7-96 55.4-2 1-3.7 2.8-6.6.7-1.8-1.2-5.5 1-5.4 3.5.2 4-2.5 5-5 6.5-47 25-94 50.2-141 75.4-22.8 12.2-45.4 24.6-68 37-10 5.3-19.5 11.2-29.6 15.8-4.8 2.2-9.3 4.4-14 7-20.3 12.3-41.3 23.7-62 35.6-3 1.7-6.8 1.2-9 3.4-3.4 3.2-7.4 3.6-11.3 4.6-2 .5-5.3-1-5.8.3-1.5 3-4 3.4-6.5 4-11 3.3-22 6.4-33.3 9.2-23.8 6-47.8 10.5-72.5 11-7 0-14-1.2-20.2-3.3-5.7-2-11-3-17-2.5-7.4.5-14.8 0-22-4-6.6-3.8-14-3-21 .5-1.8 1-2.2 2.6-1 4.7 2 3.5 1.7 7.2 1.5 11-.6 10.8-3 21-6.2 31.2.2 0 .2-.2.3-.2 1.2-1 1.2-3 3-3.4.7 1.4.2 2.7 0 4-3.5 19-3.2 38.4-6.6 57.3-1 5-4.3 9.3-6.8 13.8-1 1.4-2.7 1.2-4.2 1.3-1.3 0-3 0-3.5 1.5-3.2 8-11.6 9.3-17.7 15.3l.7-3.5c2.6-4.2 5-8.6 6-13.6-2.4 4.3-5.2 8.5-6.5 13.3l-3 4.6c-3.5 5.2-9 7.7-14.4 6.4-1-.2-1.3 0-1.4.7-.5 2.7-2.6 2-4.3 2-3 0-3.8 2-2.3 4 1.8 2.3.3 3.3-1 5-2.7 3.7-7.2 4.3-11 6.2-4 2-4.3 3.5-.7 6.4h-9c2.4 1.5 5.3.2 8 1.6-9.2 3.3-16.6-3.7-25.7-3.7 2 3.2 5 1 6.5 2.7-5.3 0-10.6.2-15.8 0-5-.4-10 .5-14.7-.4-4.3-1-8.8-1-13-1.3-10.3-1-20.7-2.4-31-2.7-3.7 0-6.4-.4-7 4.6.4-5-2.3-5.7-5.8-6-10.4-.6-21-1.3-31.3-2.5-3.5-.4-5 .4-5.8 3.5.2 4-2 8 .7 11.8.7 1-.4 1-.8 1.3-1 .6-1.7 0-1.8-1-.6-4-1.2-8.3 1.8-12-12.8-3.3-26-4.3-38.8-7-2.4-.6-2 1.2-2.4 2.6-1.3 4.5 0 9.5-2 14-.7-.4-1-.6-1-.8-.3-2.3-.4-4.6-.5-7-.5-12.6.6-9.4-11-11.8-3.6-.8-7.3-1-7.5 4.7-.5-6.6-.6-6.7-7.7-6.5v101.5c0 3.8.7 4.6 4.5 4.6h1003.5c-3.3-2-7-1.4-11.7-3 2.6 0 4.2-.3 5.5.2 7.6 2.6 15 .6 22.4-.2v-8c-1-.7-1.6-2-2.6-2-4-.7-1-2.5-.3-4.8-8.7 2-17 2-25 0 1.2-1 3.3 0 4.6-1.7-1.7-2-4.4 0-6.4-1.5.6-3 3.8-1 5.3-2.8-2-2-4.4-1-7-1.7 1.4-2 3-3.8 2.7-6.7-.2-2-3.6-5.2 1.6-7.3 2.7-1 5-3 8-2.4 1-3 4-2.3 6.2-3.5-5.3-2-10.7 2-16 0 .2-1.5 2.5-.5 2.7-2.3L995 518c3-1.4 6-.5 8.6-2-.2-.5-.2-1-.4-1-1-1.3-4.5-.4-3.5-2.3 1-1.7 2.8-4.2 5.6-4.2 6.6 0 12.7-2.3 19-3.2v-26c-6.8 3.2-14.2 3-21.5 2.3-3.2-.3-7.3 1.7-9.5-.8-2.2-2.4-.8-6.4-1-9.7-1.6-20.5-3-41-4.5-61.7-.2-3.4-1.3-5.5-4.6-6.8-3.7-1.4-5.8-4-6-8.3-.3-5.2-1.4-10.3-1.3-15.4 0-5.4-2.7-7.4-7.5-8-1.8-.4-3.5-.8-5-1.6 3-1 6 0 8.7 1 1 .3 2 .7 2.4-.8.3-1-.2-2.3-1.4-2.2-6.4.5-10.6-6.5-17.2-5.2-.6 0-1.3 0-1.4-1-.6-3-.6-3-3.2-2.4-4.2 1-8.5 3-12.3 3.4-5 .4-7.7 2-10.4 5.8-1 1.4-4 2-6 2-7.5.6-13.8 4.7-20.7 6.8-2 .6-4.2 2-4 4 0 5-2 9.4-2 14.2 0 8-1 16.2-1.8 24.3-.2 2.2-2 2-3.4 2.2l-18.3 2.6c-2.6.3-3.4 1-3 4 .5 4.7 3.4 8.2 4.4 12.4 2.2 9.5 8 18 6.8 28.4-.5 4.7 3.8 1.3 6.4 3.5-7.7.2-14.3 4.7-21.2 0-1-.7-2-.4-3 0-8.6 2.5-18 1.6-26.6 4.6-2.7 1-4.4-.2-5.5-3 3.4-1.4 7-.4 10.3-.6 3.2-.2 6.3-.3 9.5-.7 6.4-.7 6.8-1.3 6-7.7l-.2-6.5c0-1 0-2.7 1.2-3 6.6-1 3-6.6 4.6-9.8.3-.6 0-1.8-1-2-1.3-.2-1.7.8-2 1.8-.3 2.4.2 5-1.8 7.4-1.6-1.4-.7-3.5-1.6-5.6-1.5 3.2-1.7 6-1 9 .7 2.8-.3 5.4-.7 8.2-1-16.2-2.7-32.4-4.3-48.6-.5-4.7 2.7-9.3 1-14-.7-1.8.4-4.8-2.6-4.5-2.6 0-6 0-7 3.4-1 3.6-2 7.3-3.5 10.8-1-14.6-2.3-29-3-43.7-.3-4.3-.8-7.5-6-7.8-3.4-.2-4-3-4-5.5 0-3.7-2-4.8-5.3-5-5.3 0-10.6-.7-15.8 1.3-2.6 1-4 2-4.4 4.7-.5 3.4-2 6.3-5.8 7.3-3.5 1-4.4 4-4.3 7 .2 11.4.7 22.7 1 34 0 1.3.5 2.3 1.3 3.3s.6 12.6-.2 13.5c-1 1.2-2.5.6-3.8.7h-1c-3.4-.4-6.8-.7-10.2-1.3H790c-4.5-2.7-9.4-2.2-14.4-2.7 1.6-2 3.7.6 5.3-1.3-1.6-2.5-4.2-1.3-6.2-1.5-2.8-.3-5.6-.4-6-4-.5-4.4-3.4-5.2-7-5-1.8 0-3.7.3-5.4.8-4 1-6.7.5-7.2-4.5-.2-2-1-4.4-3-6-.2 0-1 0-.3-.7 4.2-6 .3-12.5 1.3-18.8.2-1.3-1.7-1.3-2.8-1.5l-2.7-.4c-1 .2-1.8.2-2.7 0h2.3l-3.5-.5.6.3c-.3 0-.5-.2-.8-.3h-9.9c3.2-1 6.4-1 9.6 0h.4c3.5-.2 7.2 1 11.2-.6-2.5-2.4-5.3-1.7-7.7-2h-1l-.2-.2h.4l-1-.3h-13.2c0-.5 0-1 .2-1.4 3.5-.2 7 .3 10.3 1 .6 0 1.2 0 1.8.2l-1.6-.2 2.3.5h.3c1.6-.2 3.8.8 4.4-1.2.4-1.5-1.6-2.4-2.6-3.3l-5.8-6c-2.8-3.6-7.3-2.4-11.2-2.4-2.2 0-4.7 1.7-6.3-1.5-1.5 4 1 6.7 1.7 9.5 2 9 1.4 17.8 1.8 26.8 0 1.3.6 3.8-1.3 3.6-1.6-.3-3.7-2.3-4-4-.8-2.6-1-5.8 4-6.6-3.4-.2-4.5-1.3-4.5-4.2 0-6.6-1.8-13.5-.6-20 1.2-5.8-.3-11-1-16.4-.7-6-4-10.4-5.7-15.8-1.7 5-3.3 10.3-5.3 15-4.5 10.2-3.8 21-4.8 31.5-.7 7.4 0 15 0 22.4 0 2.4-.4 4.2-3.4 4-2.5 0-5.2-.4-7.4.3-2.4.8.2 4.6-2.7 6-1.8-2-.3-4.5-1.6-7.2l-.7 10.2c-2.4-4.3-.3-8-1.5-11.6-1.8 2.3-1.2 4.5-1 6.5.2 4.8-.2 8.7-6.4 7.7-.3 1.5.6 2 1.3 1.8 5.8-.7 6 2.7 6 7.3-.2 8 0 8-9 9.2 2.6 1.6 5.5.7 7.8 2.5-2.5 2.5-6.7-1.5-8.8 2l10.6.8c-3.4 2-6 0-8.4 1.8 1.2 2 3.3 1.7 5 1.8 2 .2 2.7 1.2 2.6 3 0 2-1.5 1.8-3 1.7-2 0-4-.6-6 .5 1 2 3 1.8 4.7 1.7 4.2-.4 5 1.7 5 5.4-.2 11.8 0 23.4 0 35 0 2.5-.5 5 .3 6.3-5 4.8-11.4 3.6-17 5.2-5 1.3-10 2-14.6-.7-1-.6-2-1-3.3-.4-8 3.3-16 3-24 0-1.7-.5-3 .2-4.3 1-3.3 2-6.3 1.3-10-1.3 4.4-2.4 8.5-3.6 13-4 3-.3 6-.4 9-.2 4.3.3 5.6-1.7 5.6-6-.2-20 .2-40-.2-60-.2-11.8 1.5-23.5 1.2-35.3 0-1.7 0-3.4 2-4 1.3-.5 2-1.3 2-2.7-.4-1.7-1.7-2-3-2.2-4.4-.8-9-1.4-13.4-1.4-1.4 0-3.7 0-3.6-1.7.2-2.3 2.4-1 3.6-1 4 .3 7.8.6 11.7.3-3.8-2.6-8.4-.8-12.6-2.8 4.3-1 8.3 1.7 13 .2-4-2-8-1.3-13-2.2 4.7-.8 8.3 0 11.8-.5-4-1.7-8.8-.4-13.4-2.8 5-.5 9.5 2 15 0l-12.2-1.3c-1.7 0-3 .4-.7-1.8 1.2-1 .4-1.8 2-1.6 3.5.3 7 .6 10.5-.2-4.5-.6-9-1-14.3-1.8 5.5-1.3 10.2 1.7 15.8-.2-4.2-2.8-8.3-2-12-2.3-5-.4-6-2.4-6-7 .2-6.4-.3-6.6-6.5-4-5.3 2-10.4 4.3-15.7 6.3-3 1.2-4.4 3-4.3 6.4.2 6.8 0 13.7.2 20.5 0 4-1 5.6-5.5 5-7.2-1-14.5-2-21.3 2.4-3 2-4.4 3.8-4.4 7.2 0 7 0 13.8-.4 20.7-3-6.2-4.7-12.4-3.5-19.2-2.6 1.3-1.7 3.5-2.4 5.8-.3-3.7.6-7.8-4.7-7.6-7.8.4-7.8.4-8 7-1.2-2.3.7-5-1.7-7.4-1.4-1.3 1-1.8 2-2 2.6-.2 5.3 1 8.2-.2-2-2.6-3.6-4.7-7-4.4-.6 0-1.5 0-1.8-.2-7-7-16-3.5-24-5-4.5-.8-7.8.6-11 3.3-2.4 2-3.5 4-3.5 7 0 4.4-.4 9-.2 13.4.2 3.7-1.6 5.5-5 5.5-4.6 0-6.2 2.7-6.8 6.8-.6 3.8-2 7.3-2 11.2 0 2-1.3 3.6-3.2 2-2.4-2.2-5-1.4-7.6-1 1 0 2.3.4 3.6.6-1.2 2.3-3.8.4-5 2.4 1.8 2.8 4.8 2.2 7.5 2.4 1.6 0 3.7 0 3.5 2.5-.2 2.5-2.2 2-3.8 1.6-4.5-1-9 .4-13.5 0-4.2-.6-2.2 3-3.2 5.7l-1.4-8.8c-2 5.4-.5 11-2.6 17.4-.2-9.2.2-17.3 1.2-25.7-6.8 1-3.5 6.7-5.5 10.4-.2-7.2-4.8-7-9.4-6.2-4.3.8-8.5-.4-12.8-.7h-3.2c1-.2 2 0 3.2 0h4c.2-.2.6 0 1 0 1.6 0 3.2.3 5 .8-4.5-6.4-2.6-12.5-2.7-18.3 0-4.2-1.3-6.2-5.6-6-5 0-10.2-.8-15.3 0l-1.2 20c-.2 3.2-.5 6-5 3-1.8-1.3-4-.8-5.3 1.7-1 2-1.7 4.3-1.8 6.6l-1 23c0 2-.5 4-3 3.4-2.5-.6-6 .5-7.2-3-.5-1.2-.3-3.2 1.3-3.8 2-1 1.8 1.8 3 3 2.2-4.8 1-9.8 2.3-14.4-6-3.8-1.8-9.5-2.7-14.3-.4-2 .5-4 3.2-4 1.5-.2 4 .4 4-2s-.2-5.2-2.6-6.6c-1.6-1-4-1-3.7-3.5.2-2.6 2.5-3.4 4.5-4 5-1.6 9.6-4.4 15-5h.2c4.5-3.3 10-4.5 15-6.4 68-25.6 137-49.3 205.3-74.2C683.3 319 721 305.2 759 292l50.5-17.5c19.7-7 39.5-13.8 59-21.4 4.2-1.5 8.5-2.8 13-3.7 3.7-.8 7.6-1.8 10.8-4.5 3-2.6 7.5-2 11-3.4 12.8-4.7 25.5-9.6 38.2-14.4l83.2-31.5V.5c-28.3 16-56 32.3-83.6 48.6zM69 489.5c-.7 0-1.2-.3-1.8-.4h-5.8c2-1 3.8-1 5.6 0h.2l1.8-.5v1zm945.4 63.2c-1 1-2 1-3.5 1 1-1 2-1.4 3.4-1zm.7 5.6c-3.5 2-7.5 1.4-11.4 1 4-.2 7.7-.6 11.5-1zm-12-3.6c-1.4.8-2.8 2.7-5 .6 1.7-1.6 3.4-.8 5-.6zm-23.4-97.3c-3.3-.2-6.5-.2-9.8-.5 3.3-.3 6.7-2.7 9.8.5zm-10.5 5c.8-1.5 2.8-.7 4.2-.8h6.6c-4 2.4-9.8-1-8.7 6.7-2.3-2.4-2.6-4.3-2-5.8zM956.3 484c.3 0 .4.7.5 1.2 0 .5 0 1-1 1-.2-.6-.5-1.2-.5-1.8 0-.5.6-1 1-.5zm-4.6 1c.2.3.5.5.5.8.2.6 0 1-.7.8-.2 0-.3-.5-.3-.8 0-.3.4-.5.6-.8zm-13-21c-2.6 1-5.3 1.2-9 .4 3.6-2 6.3-1.5 9-.3zm-8-3c2.7-1.2 5.4-1.4 8 0-2.6 1.3-5.3 1-8 0zm9 6c-3 1-6 1.2-10.4 0 4.3-1.3 7.4-1 10.4 0zm.2 6.3c-2.8 1.3-5.6 1-8.6.3.8-2.2 3-.4 4-1.7-.3-2.3-3.6 0-3.8-2.5 3-.4 5.6-1 8.3 0-1 1.3-1 2.6 0 3.8zm0 2.7c-.4 1.8-2.5.3-3.3 2 1.4.5 2.4.8 3.5 1v1c-3 0-6.2.2-10 .4 5.8-5.4 5.8-5.4 9.8-4.4zm-9.2-18c2.6-1 5.3-1.4 9.5 0-4 1.3-6.7 1-9.4 0zm3.6-52.8c-1.7.8-2.7.6-4-.6 1.5-.8 2.5-.7 4 .6zm-5-4.2c1-1.3 2.2-1 3-.4.6.3.7 1 0 1-1 .5-2 .3-3-.6zm.3-3c1.2-2 2.2-.7 3.6 0-1.4 1.4-2.4 1-3.5 0zm1-9.3l.4.2-.4.6-.7-.4c0-.2.3-.4.5-.5zm.3 4l-1-.4.6-.7h.4v1zm1.8 2.8c-1.3.7-2.4 1-3.3-.7 1.4-.8 2.4-.7 3.3.7zm-1 11.4c1.2.2 2.7 0 2.7 1.5 0 1.8 1.8 3.7-1.6 3.3-1.5-.2-3.7.2-3.6-2 .2-.7 0-3.6 2.6-3zm4.5 7c-3 1-4.7 1-7 0 2.4-1.2 4-1 7 0zm1 3c-3.5 1.3-5.4 1-8.5 0 3.2-1.4 5-1 8.4 0zm-5.2 4.6c-.5-1.6-2.6-.3-3-1.8.6-1.6 2.5-.7 9 4.2-1.4 1.4-3 .7-4.7 1 2.4.8 5 1.3 5 5-3 0-6.2-.2-9.6-.4.8-2.4 3-.8 3.8-2.2-1-1.2-3 0-4-1.6 1.6-1.3 3.3-.7 5-1l-5-1.7c.6-1.6 2.8 0 3.6-1.4zm-3 10.5c2.8-1.3 5.5-1 8.3.4-2.7.8-5.4.8-8.2-.3zm8.2 3.4c-2.5.8-5 1-7.5-.4 2.6-1.3 5 0 7.5.4zm0 2.7c-2.5 1.2-5 1.4-7.6-.5l7.7.6zm.8 3.8c1.2 1 3.7 4.6 0 7-1 .8-.2 1 .4 1.5 2 1.2 2.2 3.5 1 4.6-2.5 2-5.8 1.2-8.6.4-2-.6-1.2-3-1-4.4 1-4.7 1.2-4.7 7-5.4-3-1-5.2 0-7.3-1.4 1.2-1.8 3.4-.7 5.2-1.7l-6.4-1.2c4.4-2 7.7-1.2 9.8.5zm-9.2 58.3c2.2-1.2 2.6-4.8 7.3-3.8l-2.6-1.6c-1.8-1-5-2-5-3 0-2.8 1-5.5 2.2-8 1.3-3 9.3-3.4 10.2-.6 1 3.4 3.4 3 6 3.2-1.4.8-4 .2-3.2 2.7.4 1.4 1 3.3 2.7 4 2.8 1 3-2 4.3-4 1.6 4.5 3.4 5.3 7 2 2-2 5.6-1.3 8.5-1 3.2 0 3.2.3 4-2.5.6-1.5 2-1 3-1.3 2.2-.4 4.5.6 7-.6-1.6-1.8-3.6-.5-5-1.6-1.2 1-2.5.7-4 .2l4-.2c-.4-1.3-1-2.5-2.8-1.8-1 .3-2.2 1-2-.7 0-.8-.3-2.5 1.6-2.6 2-.2 4.3-.6 6.4-1-.8-4.4-4.3-3-7.5-3.3 2.3-1.5 4.5.2 6.4-1.4-1.4-2.2-3.5-.5-5.6-.8 1-2 1.7-4 2.6-6 1.8-.2 1.7 3.3 3.8 2 .6-.5 1-1.4 1.2-2 .5-2.4-2-1.3-3-2.3 2.7-.3 4.4-.2 4.3 3.2-.2 4.8 1.2 9.8-.4 14.5-.4 1 0 .7.3 1.2 1.5 2.4 2.6 4.7-2 4.5-1 0-2.7 0-2.5 1.6.2 2 1.8 1 2.8.7 3.6-.7 6.7 1.7 10.4 1.5 2.5 0 5.2.4 8.5.6-2.2 1.5-4 1.5-5.8 1.2-12.2-2.3-24.4.4-36.5.7-1.3 0-2.7 0-3.4 1.5 2 .6.2 3.7 2.6 4 1 .3 2.2 1 2 2.5 0 1-.8 1.4-1.6 1.5l-19 2.4c-.3-2.2 1.6-1.5 1.7-2.8-.4 0-.8-.4-1.3-.4-2.2 0-4.3.3-6.5 0-2 0-3-1.6-1-2.7zm41.7-23l1-1 .6.7-1 .7c-.2.2-.5-.3-.7-.5zm-48 18.8c.8 0 2 .3 2.6.8.5.4-.2 1.2-.6 1.6-1 1-2 1.7-3.5.8l-5.5-3.3h6.7zm-21 2c-1.4 1.6-3 1-5.4.4 2.2-1.6 3.8-.6 5.3-.5zm-52-3.5c-.3-.3-.8-.6-.8-1 0-.2.5-.6 1-1 .3.4.8.8.7 1 0 .4-.6.7-1 1zm.7 6.5c1.5-.6 3-1.3 5.5 0H850zm7.8-1.2l6.4-.5c-2.5 1.2-4 2-6.4.6zm6.6 9.8c-1.3 1.4-2.4.7-3.5-.2l3.4.2zm-4.7 47c1.5-.7 3-.8 5-.3-2 1.8-3.5 1.4-5 .3zM875 492c0 .5-.6.8-1 1.3-.4-.3-1-.6-1-1-.2-.7.4-1 1.2-1 .5 0 1 .2.8.8zm11.6 5.4l1.3.3c0 .8-.6 1-1 1l-1.3-.6c.2-.2.5-.6 1-.6zm-3-19.2c-2.7 4.6-8 5.6-12.8 3 4.2-1.4 8.4-.6 12.7-3zM871 535.6c-3 1.2-5.2 1.4-7.6 1 2-4.7 4.5-1.6 7.7-1zm-9-47.4h3v.3h-3v-.3zm-3.3-8.4c-4.5 5.3-18.8 5.3-25.2 0 8.3 1 16.7 3 25.2 0zm-25.3-15v.7l-4.7.7v-.7c1.5 0 3-.4 4.7-.6zm-42-4.7l-.5-4c1.4 1 1.5 2.2.5 4zm-13 17v.8c-1 0-2 0-3.7-.2l3.7-.6zm-3.7-2.4v-.2h2.3v.2h-2.3zm0-3.3c2.2-.8 5 .6 7.4-1.5-2.2-2-5-.3-7.2-1.5 9-.5 9-.5 7.7 5.7-1.5-4.5-5.5-1-7.8-2.7zm.3-27.7c.8 0 1.6-.3 2.3-.3 1.5 0 3 .4 4.5.6-.6 1.4-2.6-.2-3 1.5 1 1.8 3.6-.4 4.7 2-2.3-.2-4.3-.7-6.4-.6-2.3 0 .2-3.6-2-3.4h-.5.5zm-1.5-3v-.3h4v.6l-4-.4zm14-2.6h3.6c-1.3 1-2.4.6-3.5 0zm2.6 3.3v.3h-2.6v-.6c1 0 1.8.2 2.7.3zm-7.5-5.8c2.7-1.4 5.4-.2 8.2 0h-8.2zm8.3-5.8l-17-1v-.7l17 1v.7zm-16.3 1.4l16 1v1c-5.4-.4-10.7-.8-16-1v-1zm9.2 7c-2.2 1.2-3.7-.7-4.2-.5.4 0 2.2-.6 4.2.6zm7.7 12c-5.4 1.2-10.7.3-16.8-.4 6-1 11.4 1.2 16.8.4zm-8.2 6.5H776v-.6h7.2v.5zm3.4 3h-12c4-1.5 8-.3 12 0zm-8.4 6.2c4.4-1.3 7.6-.3 10.7 0H778zm-3.2-3v-.5H790v.4H775zm8.3-9.7h-.2c-2 .7-4 .8-7-.5 3-.2 5-.5 7 .5H791.7c-2.7.6-5.5 1-8.3 0zm8.4-8.6h-5v-.4h5v.4zm-1.5-21.7c1.7 0 .5 1.5.8 2.2-1 3.5-3.7.3-5.3 1.3 1.5-1.4 4 .7 5.3-1.3-4.7-3-10.3-1-16.2-3l15.4.7zm-16.6 2.2c2.6 0 5 .2 7.7.4v.7c-2.6 0-5-.3-7.7-.5v-.6zm4.6 9.4c-1.7 1.5-5.6-2-5 3-.4-3.3-.4-3.3 5-3zM768 484c-.4.6-1 1.4-1 1.6.6 1 1.4.3 2 0 1-.7 1.7-1.5 1-2.5-.7-.6-1.2.4-1.7.7l-2.6-3.6c4.5 0 8 .2 11.7 0 1.3 0 2.4 0 2.3 1.8 0 1.8-2 .5-2 .8-1.5 2.3-5.4-3-5.3 1.3 0 3.6 3.7.4 5.5 1.3 2.3 1 5-.7 7.5 1 1.3.8 1.4-.3 1.6-1 1.6-4.4 5-5.4 9-4.7 3.3.6 6.5 0 9.5.6 5.4 1 10.3-2.2 17-1-5.5 3.3-8 8-15 7.8-9.2-.4-18.4 1.2-27.7 2l-11.4.7c-2.8.3-5.6.5-8 2.6-1.8 1.7-4.3 2-7.5 2.3 1-1.4 1.8-2.2 3-3.6-4.8-.3-9-1.2-12-4.8 8-2.3 15.8-3.2 24-3zm-24-3.7c2.3 0 4.5 0 5.8 2 .4.7 0 1.6-.7 1.7-2 0-4.5.8-6.3-1.3l-1.8-2 3-.4zm-24.4 31.2l-.5-.7c.3 0 .6-.4.8-.3.2 0 .3.4.5.6l-.7.5zm13-115h-4.2v-.4l4.3.4zm-4.7-2.8c1-.6 2.3-.8 3.5 0-1.3 1.4-2.5.6-3.6 0zm2-2.3c-.8 0-1.6.3-2.5.4v-.8c.8 0 1.7.3 2.6.4zm5 95.4c-4.5 4-8.2 8-15.2 6.6 4.2-4.6 8-8.2 15-6.6zm-22.3-113l.3-.2v21.6h-.3v-21.5zm-3.7-30.5c.3-1.4-.5-3 1-4 2.2.5 2 2.4 2 4 0 1.3.4 3.3-2 3-2.3 0-1.2-1.8-1-3zm12.3 68.5c-4.7 1.2-9-.7-13.7-1.5 4.6-.7 9 .8 13.7 1.5zm-20-2.7c0 27.2 1.2 54.4 1.6 80.8-3.7-26.5-2.4-53.6-1.8-80.7zm-2.5 83.4c1 0 1.4.7 1.5 1.6 0 .6-.3 1-1 1-.6-.4-1.4-.8-1.5-1.8 0-.2.7-.8 1-.8zm-47.8 14c-1.6-2.7-5-.6-7.4-2.5 2.7-1 4.7-1.5 7.3-1.4 10.2.4 20.5.3 31 .3 2 0 4-2.8 6.6-.8.8.6 1.2-1.5 1.3-2.7.3-6 .4-6 5-3.6 2.4 1 4.8 1.2 7.4.8 5-1 5.8-.2 5.6 5l-.2 6.6c0 1.7-.4 3.7 2.6 3-10.7 5.8-22 6-33.6 6.2-5.7 0-11.3 0-17 1-1.3.3-3.7.7-4-.8-1.3-6.4-6.3-4.5-10.3-5-.3 0-.6-.2-2.3-1 20.7.5 40-.2 59.2-1.7-19.4-1.3-39 .5-59.3-.6 2.7-3.3 5.8-1 8-3zm-37.3 3.8c.7-.3.8.2.8.7 0 .2-.3.4-.5.6l-.6-.6c0-.3 0-.7.3-.8zm18.2-126c-3.5.8-6.7.2-9.8-1 3.3.2 6.5.6 9.7 1zm-11.3 2c.2 0 .4.2.7.5l-.8 1c0-.3-.3-.6-.2-.8 0-.4.2-.6.3-1zM709 183.5c-.5.3-1 .7-1.8 1l-.3-.5c.5-.2 1.2-.5 1.8-1l.3.6zM663.5 208l-.6.5c0-.2-.3-.4-.4-.6l.3-.4.7.4zM383.7 368.4l4.3-4c.4 3.3-1 4.8-4.3 4zm5 59c1 0 1.6.4 1.5 1.4-1 1-.6 3-2.4 3-1.2-.2-1.5-1.3-1.4-2.4.2-1.3 1-2 2.4-2zm-2.5 9.3c3.2-3.5 6.5-1.7 9.6-1.2 3.3.6 1.8 3.8 2 6 .3 4.2-1.4 8.4-.4 12.8.5 2.2-1 2.4-2.7 2.5-1 0-2.7-.5-2.4 1.4 0 1-.7 2.3.5 2.7 1 .3 2.5 1 3.3-1 .7-1.5 1.5-1 2 .2.4 1-3.3 10.3-4.2 10.4-1.7.2-3.4-1.6-5.2-.2l-.4.3.4-.3c1.7-1.5 2.5-3.4 1.4-4.7-2.5-3-1.8-6.4-1.3-9.5.7-4.8-3-7.8-4-12-.6-2.7-5-2.6-8-2.8-3.3-.3-5-1.6-4-5.6 1.7 1.6 6-1.5 5.3 3.7 3 0 6.4-.8 8.2-2.8zm6.8-13c2-1.5 3.5-2.7 5.5-2.4-1 2-1.4 2-5.5 2.5zm5.3 8.5c0 1.3-1 1-1.8.8-.8-.2-1.8-.3-1.3-1.5.3-.7.8-1.2 1.5-2.2.7 1.2 1.5 2 1.6 3zm-4 66.2h-7.5v-.8l7.4.8zm-17-67.8c.7-1.7 1.6-2.3 3.5-2.3-.6 1.7-1.3 2.5-3.6 2.3zm-27-107.2c.4-2 2-1 3.5-1l12.8 2.5c1 0 2.3 0 2 1.4 0 1.2-1.2 2.2-2.4 2l-14.7-2.3c-1.5-.2-1.7-1.5-1.3-2.6zM311 318c-.8-.4.6-1.5 1.6-1.5 5.3.2 10.5 1 15.6 2.2 1.4.3 4-.3 4 2-.2 2.6-2.8 2-4.8 2-5-.6-10-1.5-15.2-1.8-2.8-.2.2-2-1.2-3zm25.3 188.3c2 .5 4.4 1 4.8 3.3.4 1.5-1.3 2.5-2.6 1.7-2-1.3-6 1-6.5-2.6-.3-1.5 2.3-2.3 4.3-2.4zM149.5 492c1-.6-.8-2 .6-2.2.8 0 1.5.6 1.7 1.5 0 1.2-.8 1.7-2 1.7-.8 0-1.2-.4-.2-1zm18 19.5c-6.7-.5-12.2-.6-18.2-2.5 7-.6 12.6 0 18.2 2.5zm-8-21.2c-1-1.6-2.7-1.5-4.4-1.4.2 1 1.2 2.3 0 3.5-1-1.3-.4-2.4 0-3.5h.2l1-3c-.6-1-1-2-.4-3.2 1 1 .8 2 .4 3v.2c1.3 1.2 2.7 2 4.5 1.5.8 0 2 0 1.8 1 0 1-.4 2-1 2.6-1 1-1.6 0-2-.7zm-79-3.7c-.3 0-.5-.3-.8-.5 1-.8 2.4-.7 2.5 0 .3 1.2-1 .5-1.8.6zm13.4 2.8v-.5c2.5 0 5 .3 7 .4h-7zm19.6-1.7c0-1 0-1.7-.2-2.6h.4c0 1 .3 1.7.4 2.6h-.6zm2 2.7c7.7 1 15.6 1.7 23.4 2.6-8 1.5-15.8-.4-23.5-2.6zm33.4 4.8c-2 1-3.7.8-5.5-.8 2-.4 3.7-.7 5.5.8zm19 55.4c-7-4-14.7 1-21.8-1.5-1-.4-2-.5-2-1.7 0-.3.8-.7 1-.7 1.4.4.8 1.5 1 2.4 7-.4 14-2.8 21-1 1 .4 2 .2 2.2 1.6 0 .8-1 1.2-1.5 1zm13.4.3c-.2 0-.4-.3-.5-.5.2 0 .5-.2.7 0 .2 0 .4 0 .6.3-.3 0-.6.2-1 0zM160 496.4c1.3-1.5 2.5-1 3.4-.7 3 .7 3.4-.8 2.7-3.3-.4-1.7-1.2-3.6 1.3-4.6 2.3-1 4.6-1.3 6.6.5 1 1 2 2.6 4.2 3-2.8 2-5.6 1-8 1.6 1.3 4.6 4 5.5 7.2 2.8 2.2-2 4.3-3.3 6 .7 1.5 3.6 5.6 1 7.7 4-10.2-1.5-20.3-2.7-31-4zm36.5 1.4c1.2-5.5.5-11 1.4-18 1 6 .2 14.7-1.5 18zm5 3c7.2 0 14.3-.2 21.2 1.8-7.3 2-14.4 2-21-2zm35-21.7c-6 2-11.8 0-19 .5 6.8-6 13.2-2.7 19.4-2h-8.6v1c2.7 0 5.4.3 8 .5zm14.5-28c0-1.8 1-2 2-2.8 0 1.7-1 1.8-2 3zm50.5-49.8l-.5-.7.7-.4c.2 0 .3.4.5.6l-.7.5zM321.7 515c0 .2-.4-.2-.7-.4l1-1 .7.8-1 .7zm4.7-111c-.2.2-.5.4-.8.4-.6-.2-.6-.7-.3-1 0-.3.6-.5.7-.5.6 0 .7.6.4 1zm1.4-63c-2.5-.6-2.5-3.3-5-3.5-.5 3-2.5 6 .6 9.2 1.3 1.4-.5 3.4-1.2 5-3 6.5-7.2 12.4-9 19.3-1.7 1-2.2 2.3-2 4 1.4-1 2-2.3 2-4 3.2-2.6 4-6.8 6-10 1-1.3 1-3.3 3-3 2.2.2-.4 2.7 1.2 3.5h.5c1.7-1.2 1.7-5 4-4.3 2.4.7 2.4 4 2.4 6 0 11-.3 21.7-1.7 32.4-.2 1.8-1.6 3.3-3.4 3-1.7 0-1-2-1-3.3-.2-2.7 0-5.3.6-8 .3-1.6 1-3.4-.8-5.2-1.7 1.6-1.3 3.5-1.2 5.2 0 3-2 4.2-4 3.3-5.6-2.3-4 1.3-4 4 .2.8.2 1.6.7 2.7 0-3.3 1.6-4.5 4.7-4 2 .3 2.7 1.2 2.3 3-.6 2.6 0 6.4-4.6 6.4-2.4 0-5-.7-7.4.5.7 1.6 4.8 2 1.6 4.8-1 1-2.4 2.3-4 1.7-1.4-.6-.6-2.3-.7-3.6-1-10.3 3.4-18.8 8.6-27 0 2.8.6 5.2 3.4 6.4.5.2 1.2 0 1.8-.3l.2-.7c-3.6-2.6-.4-6.3-1.7-9.3 6-2.5 1-6.8 2-10.2-2.5 3.4-5 6.8-5.5 11l1.7-1c0 1.6-1 2.8-1.8 4v-3c-3.4 3.2-4 8.2-7.2 12-1.7-5 1.5-8.8 2.2-13-3 .7-5.5 2.2-6.3 5.5-.2.6-1 1.5-.8 1.7 4.5 4.6-.8 6.6-2.5 9.6-1.4 2.4-1.3 5.5-4.4 8 .4-3.6 0-6.8 2-9.5.5-.4 1-.4 1-1.4-2-13.3 0-26.2 2.6-39.2.7-4 0-8.5.5-12.7v-1.5c0-4.2 4.7-5.3 5.4-9.7.8-5.4 6.5-2.3 10-2.3 3 0 6.2 1 9.2 1.7-5.3.7-10.4-2-16.5-1 4.4 2.7 8.7 2 12.6 3 3.7 1 7.7 7 6 9.6-1 1.7-5.2.6-2.5 4.5zm34 165.2c-.2-.2-.5-.4-.5-.6l.2-1 .5.7c0 .3 0 .6-.2 1zm1-15.5h-.3v-4.4h.4c-.2 1.4-.2 3-.3 4.4zm.6-11.8c-1-2.7.8-5.8-.4-7.7-1.5-2.4 1-3.7 1-5.4l-.5-1.2c.3.4.4.7.4 1 1.2 4 1 8.2-.6 13zm1.5-17.7c-2-2.5-3.2-3.4-4.8 0-2.2 4.7.4 9 0 13.6-.5 3.8 1.3 7.8-2.3 11.3-1.6 1.5 2 2.3 1.4 3.6-2.6 6.2 1.3 12.8-1.3 19 .5 1.4 1.3 3-.7 3.8-1.8-1-3.7-1.4-5.8-.4 1.6 2.8 3.4 2.5 5.4 1 .6 1.5 1.2 3-.4 4-1.4 1.2-2.4.2-3.5-.6-1-.8-2-1-3.2-.7-5.8 1.5-11.5 0-18.4-.5l2.4-.4c9.7.7 11-.5 9.2-10-1.3-6.6.3-13 1-19.5.3-3.8-1-7.6 1-11.4 1.7-3.7 3.6-7 7.2-9 .5-6 5.3-9.4 8.2-15.3l1 5.8c4.2-.3 2.3-3.8 3.5-6.4 1.5 4.6.2 8 0 12.3zM346.5 390c.2-1.2 1-1.8 2-1.8s1.4.5 1.2 1.5c0 1-.5 2-1.8 1.8-1 0-1.6-.6-1.4-1.6zm17 55.8l.8-.6.5.7c0 .4-.2 1-1 .6l-.3-.8zm2.8-99c-1-1.6-1.6-3.7-4.2-4 .5 2.5 2.6 3 3.6 4.5-.3 2-1 2.6-2.4.8l-3.8-5c-.7-1-1.6-1.4-2.6-.8-1.2.7-.4 1.3-.2 2.3 1.3 5.7 2 11.2-2.5 16.3-3.2 3.7-5.4 8.3-7 13.3 2-2.6 3.8-5.2 5.6-8l5-8c1.5-2.6 3-3.2 4.4 0 2 4 2.8 8.2 3.3 12.5.2 1.6-.4 3-1.7 4l-25.6 16.3c1.8-16.5.6-32 3.3-47.2.4-2.2.5-4.8 4.6-4.6-3.2-2-5-2-2.3-6 5.6-7.7 11.8-3.5 17.8-2.4.8 0 1.5.2 2.3.3-.7 0-1.4-.2-2.2-.4l-11.3-1.4c2.2 3 5.4 2.6 8.2 3 7.7 1 11.2 7.3 7.7 14.5zm2 8.3c-1.4-1.6-1.6-3.3-.3-5.2 1.3 2 .4 3.7.3 5.3zm2 162.8c4.3-.2 8.7-1 13 1.2l-13-1.2zm28-14c-8.5-.7-17.2.8-25.6-2-1.4-.5-3.3-.3-2.8-2.5 1-4.6-.3-9.3.3-14 .3-2 0-4.8 3.8-4 1.3 0 3-1.8 3.2-3.3.2-1.5-2-.6-2.8-1.6.2-1.8 2.5-.5 3-2.3-1.3-1.2-2.7-2.8-4.5-4-1-.5-1.8-.8-1.5-2 .3-1.4 1.4-1 2.4-1h5.7c-.6-.7-.8-1-1-1-7-1.5-9-5-6.4-11.8.5-1.3 1.3-1.8 2.6-1.7 1 0 2 .3 2-1.3-.2-1-1-2-2-1.8-3.3.7-2.7-1.5-2.6-3.3 0-2.3 1.4-3 3.6-3 6.5 0 8 1.4 8 7.7 0 7 .7 14-.4 21-1.4 8.3 1.8 16.6 0 25-.8 3 1.2 4 4 4.2 8 .3 16 .8 24 1.3 1.7 0 3.6 0 5.8 2-7 1.2-13 .2-19-.4zm20.4 13.5c2.6-1.5 4-2.6 6-2-1.4 2.4-3.2 1.4-6 2zm-19.2-17.8c9-2.7 17.8-1.5 26.8 0h-26.8zm40.6 19.2c-1 0-2.6 0-2.6-1.5 0-2.2 2-1.7 3.3-1.7 1 0 2.2.3 2.3 1.8-.4 1.8-2 1.4-3 1.4zm6.2-.7c3-1 5-1.4 7 .7-2.4 1.3-4.2.6-7-.7zm0-16.4l.2-.7c2.3 0 4.6 0 6.8.2v.3h-7zm22 18.3c-1.4 0-3 .3-3.3-1.4 0-1.6 1.4-2 2.8-2.2 1.2 0 2.4-.2 2.7 1.4 0 1.5-1 2-2.2 2zm10-1c-1 1.5-2.5.8-5.3 1 2.2-2 3.2-3.4 5-3 .4.2.7 1.5.4 2zm.2-15.4l7.6.7c-2.7 1-5.2.8-7.6-.7zm7.8 8.2c.4 1.4-1 .6-1.5.7-.5 0-.8-.4-1.3-.7 1-.6 2.5-.6 2.7 0zm.4 7c-1.3 1.4-2.8.8-4.6.7 1-2 2.6-2.4 4.3-2 .3.2.5 1 .3 1.3zm39 1.6c-11.6 0-23 0-34.7-.8 3.3-3.6 8.8-3 10.7-2.2 6.7 3.2 5.3-2 6.4-5 1 6.4 2.4 7.5 9 5.8 3-.7 6-.3 9-.2.7 0 1.3.5 1.2 1.2 0 1-.7 1.2-1.4 1.2zm20-18.7c.2 1.3-1.7 2.4.2 3.8-2-1.2-1.8-2.6-.3-3.8zm2.6 18.8c-.5 0-1.2-.3-1-.8.5-.6 1.3-1 2-1.2.3 0 .7.5 1 .7-.4 1.3-1.2 1.4-2 1.3zm16.8-12.3l-.5-.6.2-.3.6.2c0 .3-.3.5-.4.7zm40 1c-12 1.4-23.8 1.3-35.6 0-2-.2-2.4-2-2.5-3.8 0-.8 0-1.7 1-2 1.8-.4 3 .5 3.7 2 .4.6 1 1.8 1.5 1.8 4.6-.4 9.3 0 14 0 1.6 0 1-2 1.2-3.2 0-1 .4-2 1.7-2 1.5 0 2.4.6 2 2-.5 3.3 1.6 3 3.7 3.2 3.2.2 6.6-.7 10 1l-.5 1zm-.6-10.3c-2.5.7-5 1-7.7.2-.4 0-.6 0-1-.2h-3.8c1.3-1 2.6-.8 3.8 0h1c2.5.5 5-1.6 7.6 0zm-7.5-61.3c4 .7 8 .6 11.7 1.3-4.2 1.3-8 .8-11.6-1.3zm12.5 8.6c-.3 1.3-1.5 1-2.4.6-2-.7-1-.8-.3-2.2 1-2-2.3-1.2-3.5-3.3 2 .4 3.8.4 5.2 1 2 .7 1.4 2.4 1 3.8zm-28.6-23c3.7-1 20 .7 28 3.2-5 1.3-9-1.7-13.8 0 4.6 2.7 9.8.5 13.8 3.2-9.4 0-18.6-1.2-27.7-3.5 3.2-1.5 6.5 1 10.2-.5-3.2-2-7-1.2-10.6-2.3zm19-20h1c.4.2.4.4 0 .4h-1v-.3zm-19.5 8.3l26.8 3.7.2-1.3-26-4.5v-1l5.6-.5c-1.7-1.6-4.5-.8-6.7-4 10.2 1.8 19.5 3.3 29 4.8l-.3 1.8c-7.4-.2-14.5-3.3-22-2.5 4.7 2.3 9.7 2.5 14.6 3.3l5 .6c2 .2 3.3 1 3 3.4-.2 2.8-2.2 1.8-3.7 1.6-5.3-.7-10.6-1.4-16-1.2l18.8 3.2c-9 1-17.5-1.3-26.2-2 0 .4 0 .8-.2 1.2l26 4.3v1c-3.6-.3-7.2-.7-10.7-1.2L584 420c-1.7-.3-3.7-.2-3.7-2.6 0-2.6 2-2 3.7-2.2.5 0 1-.3 1.7-.5-1-1.7-3.3-1.2-5.2-3zm3 17.6c8.5.5 17 1.6 25.2 4.4l-25.4-3-.2 1.4 25.5 3.6v1l-13.4-1c-3.8-.5-7.6-2-11.7-1.7-1.5 0-3-.7-3-2.7s1.6-2.2 3.2-2zm-3 74c-4.8.3-7-3.2-9.8-6.8 5.5 0 7.3 4.2 10 7zm-10-14c-3.8 2.5-4.5 2.3-7.6-2l7.5 2zm-9 29.7c.3 0 .7.2 1.4.5-.7.4-1 .8-1.3.8-.4 0-1-.3-1-.6-.3-.5.2-1 .7-.8zm-3.2-13.5c.2 0 .4.3.6.4-.3 0-.6.2-.8.3l-.3-.7h.3zm-8-102.4l.6 1-.3 1c0-.3-.4-.7-.4-1v-1zm-6 5h.4v1c-.2.4-.4.3-.5-.2l.2-1zm5.7 9s-.2 0-.3-.2c-1.2-1-3.5 0-4.3-2-.3-.6.3-1.2 1-1.4 2-.4 4.3-.5 5.6 1 1.3 1.7 3 1.8 6 3-5.5 2-9.8 2.2-14.6 1.2 1.8-2.5 4.4-1.2 6.6-1.6zm-15.8 68.3h7.3v.4h-7.3v-.4zm.8 2.7h3.6c5-1 9 4.4 14.4 3.4.4 0 1.2.7 1.3 1.2 0 1-.6 2-1.6 2-3.6 0-8 2.6-10.2-2.6-1.8-4.2-4.4-2-6.8-.8-.8.4-.5 3-2.2 1.4-.7-.7-1-2-1-3.2-.2-1.6 1.4-1.3 2.5-1.4zm0 28.2c1-2.7 2.5-2 3 .7h1c1-2.6 3.6-3 5.8-4.3-.3 4.2-3.4 3.6-5.7 4.2l3.6 2.8c-4 1.4-4.5-.4-4.5-2.8-1.3-1-2.4-.8-2.8 1-.4 2-1.2 3-4 2 1.8-1 3-2 3.7-3.8zm-16-83v-.5c1-2-1-5.8 2-5.5 2.4.2 6.4-.4 8 2.8 1.3 3 1.8 6.4-1.6 9-1.7 1.3-1.4 3.2-1.4 5v12.5c-1-1.8-1.3-4-2.8-5.6-2.2-2.2-2-3.8.2-5.8 1.8-1.5 1.7-3-1-3.8-4.6-1.2-6.8-3.6-3.5-8.2zm4 21.5c0 .3-.3.5-.4.8l-.8-1 .7-.6c.2.2.4.4.4.7zM512 417c2.2-.7 1.8 1.5 2.7 2.5-1.5.6-3 1-3.7-.5-.2-.3.5-1.8 1-2zm-24.8 63.2c0-1.4.4-3 2-3 4.7 0 4-3 4.3-6 2-16.5 2-33 2.5-49.4 0-4 1.7-5 5.2-4.4 3 .6 7.2-1.2 8.8 3.6.2.7 2 .8 3 1 4 1 5 3 2.4 6.5-1.8 2.5-3.6 4.8-3.6 8 0 1.8.4 4-1.8 4.7-2 .7-4.2.3-5.7-1.7-.5-.6-1-.8-2-.5.2 6 2 12.3-1 18.3-.3 1 .5 2 1.6 2.2 1.3.3 2.8.4 3-1.4.4-1.6 1-2.6 3-2.5 2 0 2 1.6 2 2.8.5 2 2 2.2 3.5 2 1.2 0 2.3 0 3.5-.2 9-.8 11 1.3 10 10.4-.2 2 .4 3.6.7 5.3 1 4.7-.6 6.4-5.5 6.8-1.8.2-3.5 1-5.3 1.5-1.4.7-2.8 1.2-3 3-.7 4.2-5.4 6.5-5 11.4.3 2-3.2 1.5-5 1.4-2-.2-2.8-1.3-1.2-3 .8-1 .6-2-.3-2.6-1-.7-1.8 0-2.7.3-6.7 2-9.5-.4-8.3-6.7.2-1-.2-1.6-1-2-.7-.5-1.4 0-1.7.5-.8 1.2-2.4 2.5-1.2 4 1.5 1.7 3 3 1 5.5-1.8 2.3-4.3 2.4-6.8 2-3-.3-7.4 2-8.6-3.2-.3-1.2-1.2-2.8 1-3.2 1.3-.3 2.6 0 3 1.8 0 1.5.4 2.6 2.3 2.5 2 0 2-1.6 2.8-2.8 3-4 3.5-8.4 4-12.8zm-1-26l-.6.4-.7-.3c.2 0 .5 0 .8-.2 0 .2.2.2.3.3zm-6.8-2.8h6.3v.4h-6.3v-.4zm.5 2c-2.6.7-5.2.7-7.7 0h7.6zm-11.5 6.3l6.8 1c-3.2 0-5 0-6.8.8v-1.8zm1 28c-2.5-.7-2.2-3.6-4-4.6 3.2 0 2.3 3.2 4 4.6zM467 504l-5-1c2-.8 3-.8 5 1zm-6.4-51.2v5.3l-.5.4c-1-1.5 0-2.8.6-5.6zm-1 59l.3.5-.4.2c-.2 0-.4-.3-.6-.4.2 0 .4-.2.5-.3zm-2.8 6.3c0-.8.7-2.7 2-1.4 1 1 3-2 3 1 0 1.6-1 2.2-2.6 2-1 0-2.6.2-2.4-1.5zm-3.6-50.8c.3.2.5.6.8 1-.3 0-.5.2-1 .4 0-.4-.3-.7-.5-1 .3-.2.6-.5.7-.4zm-1.5-14.7c-.3 3.5-2.3 1.2-4.7 1.7 2-1.4 3-2 4.2-3 .3.6.6 1 .5 1.3zm-.7-5.6c-.5 1.6-1.7 1.5-4.4 1.6 2.3-1 2.8-2.5 4.4-1.7zm.7 12c-.3 3-3 2.5-5 2.6 4.8-1.8 3-3.7-1-6.3 3.3.7 6.2.5 6 3.8zm-3 5.8v.5c-.3 0-.6-.3-.8-.4-.5-.4-.5-.6 0-.6.2 0 .4.3.6.4zm-3.4 28.3c1.3 0 3.7 1.2 2.8-2 0-1 .7-.6 1-.4.2.3.6.8.6 1.2 0 2-1.8 2-3.3 2h-9v-.7c2.8.2 5.4.2 8 0zm-7.7-13v2.4c-.3 0-.8 0-.8-.2-.3-.8 0-1.5.8-2.3zm-1.7 20.6c-1.5.2-2.8.3-4-.5v-.4c1.5-.7 2.6.8 4 1zm-4.6-68.3c.3 0 .6 0 1 .2-.4 0-.6.3-.8.3-.3 0-.5 0-.8-.2l.6-.3zM430 515h.2c.5-3.4-1.5-6.8.4-10 0 3.2 1.6 6.6-.4 10 0 2 1.6 2 3 2.4-4.2.6-4.2.6-3-2.3zm-1.4-56.3c0-.2.4-.3.8-.6 0 .6 0 1-.2 1.5 0 .2-.4.3-.5.5v-1.3zm0 5.3c0-.3.3-.5.5-.8l.2 1c-.2 0-.4.4-.6.7v-1zm0 16.5c.3 0 .5.5.5.8l-.3.6c-.2-.3-.5-.5-.5-.7 0-.4 0-1 .5-.8zm-.8 6.6c.5-.4.8 0 .8.6 0 .4-.3 1-.5 1.3 0-.3-.4-.4-.4-.6 0-.4 0-1 .2-1.3zm-20.3-13.5h1-1c-2.4 0-2 2.7-2.6 4.5-2-4.4-2-4.8 2.5-4.5zm-7 6.7c1.6 0 3 0 4.6-.2 1.5 0 2-2 3.4-1.8.2.3.6.7.5.8-2.4 4.8.3 6 4.3 5.8 6-.2 8 6.5 13.5 7.7-12-3-24.6 1.4-36.4-3.4 1-1.5 2.3-1 3.3-1 2-.3 4 0 3-3.4-.7-2.4 1-4.4 4-4.4zm3.2-49c-.2-.2-.5-.5-.5-.8l.4-.7c0 .3.2.5.4.8l-.3.8zm15.2-81c-4.5 1.6-7.6 7-13.4 4.6h-.4c1.2 6.2-6.3 2.2-7.3 6.4-.5 1.5-3.6 1-5.7 1 2.4-2.2 4.4-4.4 8-5.3 2.5-.6 5.4-3.7 8-5.6 2.8-2 5.6-3.8 8.5-5.3 1.4-.7 3.4-.8 4.5 1 1.3 2-1 2.7-2.4 3.2zm-41 15c-1.3-5-.3-9.6.3-14 .3-2 2-2.3 3.4-1.7 2.3 1 1.4 2 .2 3.3-1 0-2.4-.8-2.7.3-.4 1.4 1 1.3 2 1.4l2-.3c4-3.6 3.4-5.2-3-8 5.5-1.3 9.2-8.7 6-13.4-1.2-2 .5-3.4-1-4.7 1.5-1.4 3 0 4.3 0 13.5.2 26.5 4.6 40 4.2 0 .4.3 1 .4 1.3-17 10.5-34.2 21-52 31.6zm42.5-36.2h16.7c-2.2 1.7-2.2 1.7-16.7 0zm19.5 10c-.4-.2-.6-.5-.8-.8-2.4-2.8-2-3 1-4.5-.4 1.6-2 3-1 4.5.3.2.5.5.8 1zm8.4-8.6c-1.8.3-1.8 2.2-2.5 3.4-.7 1-1 2.2-2.2 2.5-.8-.2-1.3-1.2-1.2-1.3 3.3-.8 2.7-4.7 5-6.2 1-.7 2.7-.7 3 .5.5 2.4-1.3 1-2.2 1zm9.2-5.8c-.4 0-1 0-1.3-.4-.3-.6.3-.7 1-.7.2 0 .8.2 1 .5.4.8-.3.7-.7.6zm-8-2.7c-5.4 3-12 2-18 2.4-12.4 1-24.7 1-37 .4-1.5 0-3.8.5-4-2-.3-2.5 2-3 4-3.4 11-1.5 22-2.8 32.8-5 17.2-3.5 34.3-7.7 51-12.6l8-2.3.3.6c-12.3 7.5-24.5 15-37 22zm51.2-16.5c-1 1-1.3.2-1.7-.5-1-1-1.5-2.3-1-4 1.6 1.2.8 2.7 1 4h.2l2-.7c0 .4 0 1-.4 1.2zm6.8-6c-.2 1-1 1.4-1.8 1.5-1 0-2.2.5-2.5-.8-.3-1.5 0-3 1-4 1.3.6-1 4.5 2.7 2.6.7-.5.8.3.6.8zm5-1c-.4.6-1 1.3-1.7 1.6-1 .5-1.6-.3-1.8-1.2-.3-1.8-.5-3.6.7-6 .5 2.2-.6 4.6 2.3 4.6 1.6 0 .7 1 .4 1zm3.5-3.4c-1-1.4-1-2.4-.3-3.5 1.4 1 1.2 2 .4 3.6zm12.2-7c0 .2-.5 0-.8 0l.3-1.3c.4.2.8.3.8.5 0 .3 0 .7-.3 1zm1.3 8.3c-.2 0-.4-.5-.5-.7l.5-.6.6.6c.2.4.3 1-.5.7zm7-9.6c-1 0-1.6-.6-2-1.4-.3-1.3.5-1.8 1.6-1.8 1 0 2 0 2 1 .2 1-.8 1.6-1.4 2.2zm5.2-5c.7-.3 1.5-1.3 2.3-.2l-2.3.2zm-1.5-4.7l-.4.2c-1.3.8-2.7 1.3-4.4 1 1-2.4 3-.6 4.4-1l.4-.2c.8-1.4 1.3-3 3.3-3 .2 0 .6.5.5.7-.5 2-2.4 1.8-3.8 2.3zm8-4c.8-1 .6-2.7 2.3-3.2.4 2-.7 2.8-2.3 3zm7-1.8c-.8 0-1-.8-1-1.4 0-1.2.3-2.4 1.8-2.5.7 0 1 .7 1 1.5 0 1-.4 2.2-1.8 2.4zm7-7.3c.5 1.3 1 2.7 0 4-1.2-1.4-.7-2.7 0-4 .5-1.5 1.5-2.3 3-3 0 2.2-2 2-3 3zm8 .8c-2.7-1-1.2-2.8-1.2-4.3 1.7 1.2 2.4 2.5 1 4.3zm4.2-2c-.2-.4-.7-.8-.7-1 0-.5.4-.8.7-1.2 0 .3.2.5.4 1l-.4 1zm8.3-6c-.2.8-.4 1.4-1.2 1-4-2.2-3.2 1.6-4 4-2.8-4.3 1-6.2 2-8.8.2-.5 1.4-.8 1.5 0 0 1.7 2.3 2.2 1.7 4zm7-3.6c-5.7-2.8-1.3 4.8-5 3.7-.4-1.5-.8-3.3 0-5 .3-1.2 1-2.2 2.4-2 1.2 0 2.5 0 3 1.4 0 .7 0 2-.3 1.8zm5.4-5.2v.4c-1.8 1.4-1.7 3.3-1 4.8 1.4 2.5 2.3-2.5 4 0 0 2-1.8 2.8-3.5 2-2.3-1.2-2-4-2.2-6.3-.2-2.3 1.7-1 2.8-1 0-1.6-1.4-3.6 2-4.4-1 2.2 0 3.8 2 5-1.8.6-2.6-1.6-4-.6zm6 3c.4-3.4-1-6.2 1-9h.2c.2-.7.5-1.5 1.5-1.2.3 0 .4.7.6 1-.7.2-1.4.2-2 .2 1.4 3 .8 5.7-1.3 9zm15.2-8c-3 4.8-4.3 5-7.4.7-1.5.7-1.2 2.2-1.6 3.4-.5 1.3-.5 2.8-2.2 3-1-4.3 5.4-7.3 2-12 1.2 0 2.7-.2 4-1h.2c.4-2 1.7-2.8 4-3.6-1 2.4-1 4.4-4 3.5 1.4 2.5-1.2 5.3.4 8 1.6-.2 2.6-2 4.6-2-.6-1.8-1-3.6 0-6.3.7 2.7.6 4.5 0 6.3zm4.3-5h-1.3c-1.3-2.4-1-4.5 1-6.4-.7 2 3 4 .3 6.3zm5.2-3s-.3-.3-.3-.6l.3-.7s0 .3.2.4c0 .5-.2.8-.3 1zm3 0c-.4-2-1.6-4 .3-5.7.4-.4 2-.2 2.2 0 .8 2.7-2 3.7-2.6 5.8zm4 1c-.7.4-1.4.6-1.3-.4 0-.5.7-1 1.2-1.2l1.6.5c-.7.4-1 .8-1.6 1zm9.3-4.8c-1 .2-1-.5-.8-1.2.2-.8.5-1.7 1.5-1.8.8 0 1 .7 1 1.4 0 1-1 1.5-1.7 1.6zm3.5-4.7c-5.7-5.2-4.7 1.7-7 3.7l-1.3-3.4c-2 .4-2 2-2.6 3.3-.7-1.6.7-3 .5-5-2-.4-2.8 2.2-5.2.8 3.4-3 7.7-3.5 11.6-4.3 2-.3 5 1 4 5zm3.4-5c-1.2-.4-1.6-1.3-1.6-2.4 0-.6.3-1 1.2-1 1 .5 1.6 1.2 1.6 2.3 0 .8-.5 1.3-1.3 1zm3 4.8c-1 .4-1.2-.4-1-1 0-.4.7-.8 1-.8.4 0 .7.5 1.2.8l-1.3 1zm3-4c-1-2.5-3-4-4.5-5.7-.6-.6-1-1.5-.3-2 1-.8 2.2-1.6 3-1.4 1.7.5 0 1.3-.2 2-.5 1 .5 1.4 1 1.8 2.4 1.3 2 3 1 5.3zm3.6-2.4c-.8-2.8-1.4-5-1-7 .2-1.7 1.6-3.6 3.2-2.5 2.7 1.8-2.2 0-1 1.8 1.6 2.5 1 5-1.2 7.6zm4 .2c-.3 0-1-.5-1-.8 0-1 .4-2 1.8-2.4.3.4 1 .8 1 1.3.2 1.3-.8 1.7-1.8 2zm3.5-4c-1.5-1-2-2-1.2-3.5 0-.2.7-.3 1-.2 1 1 1 2.2.3 3.8zm3-1.8c-.8-2.5-1-5-.6-8 6.5 2.2 0 5.5.7 8zm3.3-8.6c-.4 0-1.2-.8-1.3-1.3-.2-2.4 1.6-2.2 3.5-2.6-.4 1.7 0 3.5-2.2 3.8zm3.4 3c-.8-1.7-.4-3 1-4.5.6 1.7 1.2 3-1 4.6zm4-.2c-.4-3-1.6-6 .3-9 1-1.3 2.6-1 3.5 0-3.5 2.2 1.3 7.4-4 9zm3.3 1c.6-2 .5-3.8 2.5-3.8.4 0 1.3 1 1.3 1.2-.3 1.8-2 2-3.8 2.5zm5.2-5c-1.6-.6-2.6-1.5-2-3.3.2-.3 1-.6 1.3-.5 1.5 1 1.4 2.4.7 4zm2.8-1.3c1-2.8-4.4-7.2 2.6-8.3-1-3-.3-5 3.5-5.2 0 5.4-4.4 8.8-6 13.5zm10.7-13.3c0-1.6.8-3.4 3-3 2 .2 1.7 1.8 1.4 3.3-.5 2.6-1 5-3.5 7.8-.3-3.2-.8-5.6-.8-8zm4.3 7.6c.7-2 .6-3.8 2.7-3.8.4 0 1.3 1 1.2 1.3-.4 2-2 2-4 2.6zm4.8-5.8c-.5-.2-1-.8-1.3-1.3-.3-.6 0-1.3.8-1.4 1 .2 1.4.8 1.5 1.7 0 .7 0 1.4-1 1zm3.5-8.5l1.2 8c-1-2.5-2.3-5-1.2-8zm8.5 3c-3.7-6.3 5-6.6 4.3-11v-.5.5c1 4.4-2.8 7-4.2 11zm7.8-1c.6-2 .5-3.8 2.5-4.2.5 0 1.3.8 1.4 1.3 0 2.2-1.6 2.4-3.8 3zm22-16c-.8-1.2-1.2-2.4-.7-4 1 1.3 1 2.5.7 4zm7.4 11.3c0-.2-.3-.3-.4-.5l.4-.2c.2 0 .5 0 .7.2l-.7.6zm24.5-28c-.7 0-1.4-.6-1.2-1.3.2-1 1.3-.8 2-.8.8 0 1.4.4 1.3 1.2-.5 1-1.2 1-2 1zm11.8-9c-.6.2-.8-.2-.8-.7 0-.5 0-1 .2-1.8.4.7.7 1 .8 1.5 0 .2 0 .7-.2.8zm14.7-12.3c0 2.6 0 5.2.4 8-1.3-2.7-1.2-5.3-.4-8zm15.5-2.2c-.6-.7-1.4-1.5-.5-2.5 1 .7.5 1.7.5 2.6zm14.5-11.7c-1 0-.6-1-.5-1.4 0-.4.5-.7.8-1l.6 1.2c-.5.4-.8 1-1 1zm10.7 18l-.6-.4c.3-.3.4-.6.7-.7l.7.3-.7.6zm3.3-17l-.5-1c.3 0 .6-.2.8 0 .2 0 .3.3.4.6-.3 0-.5.2-.7.3zm18.7-14c-.4-3-1-4.6.5-7l-.5 7zm6.7 11.8c.6-.7 1.3-1 2.4-1-.7.8-1.4 1.2-2.4 1zm76 37l-.8-.7c.3-.3.5-.6 1-.8l.5.5c0 .4-.4.7-.7 1zm8.4 55.4c.6-2.8 1.8-3.4 4.5-2.5-1.2 2-2.7 1.8-4.5 2.4zm8-62.8l-.5-.5 1-.7c.2 0 .5.3 1 .6l-1.4.6zm34.6-15l-.4-.2c0-.3 0-.5.2-.8.3 0 .5.3.8.4l-.6.6zm4.5 60c-1.3.2-2.2 0-2.3-1 0-1 .8-1.7 1.8-1.7s2.2.2 2.2 1.3c0 1.2-1.3 1-1.8 1.4zM289 356z"/>
    <path d="M60.5 463.3c9 1.4 18.7-1 26.5 5.7.6.5 2 .6 2.7-.4 1-1.4-1.7-1.2-1.4-2.3l94.4 7c-5.2-3.8-5.3-4.3-.8-7.3-4 0-4.8-2-4.3-5.3.5-3.4.5-7 .6-10.5 0-2-.2-3.7-2.7-4-2.3 0-3.8.5-4.2 3-.7 4.2-1.7 8.3-2.5 12.3-.8 3.4-2.3 7.2 3.5 7.5v1c-4.5.5-9-1.2-13.4-1.8-3-.4-8.7-.5-8.2-7.4 1.7-25.4 4.2-50.8 6.8-76 2.2-22 4.8-43.8 8-65.6.3-2.7-.8-3-3-3.4-3.5-.4-4.3 1.8-4.7 4.4-.7 4.3-1.2 8.6-1.8 13-3.2 26.7-7.2 53.3-8.5 80.3 0 1 .5 2.4-2 3 2.8-34 6.8-67.3 10.6-100.8-5.2 32.8-9.2 65.8-12.8 99 1-17 3-33.6 4.6-50.3 1.7-16.4 5-32.8 5-49.3-4.5 33.3-9 66.4-12.4 99.7 2.4-32.2 6-64.2 9.7-96.2-5.4 31.7-8.8 63.6-12.5 95.5 2.4-32 6-63.7 9.6-95.5-5.3 31.8-8.8 63.8-12.6 95.7 2.3-32 6-63.8 10.6-96.6-2 1.7-2 3-2 4-3.8 27.3-7.3 54.5-9.8 82-.4 4 .5 8.6-2.7 12v.2l-.7.7-14.3-9v-.5c-1-3.2-3.3-2.2-3.8-.6-1.5 4-5.3 4.3-8.6 6.2 3-31 6.7-61.5 11.2-92 .3-1.8.5-3.6.6-5.5 0-1-.4-2-1.6-2-1.3-.3-2.4 0-3 1.3l-.7 3.4-6.3 47.5c-1.6 12.3-3 24.7-4.7 37 .3-15.4 3.6-30.5 4.5-45.8h-1.2c-2 18-4.3 36-6.4 54h-1.4L96 393c.2-1.6 1.7-4-1-4.6-2.4-.5-2.4 2-3 3.3-.6 1-1 2.5-2 2.7-4 .8-3.7 3.8-4 6.6-.6 3.8-1 7.6-1.8 11.3-.3 1.6.2 4.2-2.7 3.8-2.3-.2-3.4-1.8-3.5-4 0-4 0-7.7.6-11.5.5-3.7 1.8-7.5.4-11.3-2.6 7-1.2 14.6-3.8 22-1.2-7.7 1-15 .2-22.2-1.3 6.7-2 13.5-2.8 20.2-.2 2-.3 3.8-3.2 3-1.8-.7-4.6.8-4-3.5 1.2-10.7 1-21.5 4.3-32 .6-2-.3-3.2-1.8-4-2.8-1.7-6-2-8.8-1.3-2.8.7-1.5 4-1.5 6.2 0 2.5.2 5-.2 7.4-1 5.2.6 10.7-1.6 15.7 1 1.7 0 4.2 2.3 5.2-2 1.3-1.8 4-3 5.6-1.6 2-4 1-6 .5-2-.3-2-2-2-3.5.2-6.4.4-6.6 8.7-7.8-1.2-1-2.7-1.2-4-1.4-2-.3-2.6-1.4-3-3.4-.2-2.2 2.2-5.3-1.6-6.5-2.4-.8-4.7 0-7 .3l-4.4.8c-1.7-4 .8-7.3 2-10.6 3.5-10.5 3.3-11.2-7.8-12.8-1 0-2-.3-3-.5-2.2-.5-3.4 0-4 2.8-1.4 8-3 15.7-2.5 24 0 1.7-.7 4-2.8 4-2.4.2-1.5-2-1.6-3.4 0-2 .2-4.2-3.2-2.8-.8.3-2-.2-3-.4-1.2-.3-2.5-1-3.6.2-1.3 1.5 0 2.8 1.4 4.8l-8-3.2v30c3-1.6 3-2 3-5.7 1.3.3 3 0 2.5 2.5-.4 2 .4 3 2.6 3 2.5.2 3.3-1 3.3-3.3v-3c.2-.4.7-1 1-1 1 0 1.3.7 1 1.4-1 3.6-1 7.4-1.3 11-.2 2.8-2.3 2.2-4 1 .3 3-1.7 3.8-5.2 4 3 2.3 4.7 6.5 7.7.8 1.6 2.5.4 4.4 0 6.4-1.8.5-1-2.2-2.5-1.7-1.5.6-1.4 2.2-1.4 3.4 0 2 1.7 5.4-3 3-.7-.4-2.4 1.3-3.6 2v6l2.8 1c19.3 4 38.5 7 57.7 10zm-44.3-38.6l1-7.2c.2 2.6 1.5 5.3-1 7.2zm-.7 13.7c-.2-3.6-.4-6 .6-8.7.4 2.5 1.5 5-.5 8.7zm0 8c0 .2-.5.2-.8.3l-.4-3.5c1.2 1.6 1.6 2.3 1.2 3.2zm11.8-51.7c.4 0 .7.4 1 .7-.2 0-.5 0-1 .3 0-.2-.5-.5-.8-.8.2 0 .5-.3.8-.3zm-1-2.2c-.2 0-.4.2-.6.4l-.8-.3s.3-.3.5-.3h.8zm15 35c.7 1.2 1.5 1.6 3 1 1-.7.7-1.6 1-2.6.3-3 .5-5.8 1-8.7 1 4.5.3 8.8-.3 13.2-.2 1.3-1 2.4-2.3 1-1-1.2-2.3-2-3.6-2.5-1-.5-1-1.3-.4-2 .7-1 1.4-.6 1.8.4zm1-14.6c1.7-.3 3 0 4 1.2-1.8.8-2.8 0-4-1.3zm.5 37c0 .7-.2 1.4-.3 2-.8-.7-.3-1.4.3-2zm-4.5-7c0-.3.4-.5 1-1.3L39 445c-1.2-.5-.6-1.4-.5-2zm42.4-17.4l.6-.3c.3 0 .5.2.8.4 0 0-.3.4-.5.3-.3 0-.6-.3-.8-.4zm-46.2-25.4l-.7-1 .6-.6 1 1-1 .6zm92.4 21.3c.3.2.5 1.4.3 1.7-1 1-2 .5-3.8-.3 1.5-.8 2-2.4 3.4-1.5zm-3 14.5c.3-.7.2-1.6 1-2l.4.3c0 1-.6 1.3-1.3 1.7-.6 1.4-.6 3.2-2 4.2-1-4-.5-4.8 2-4.2zm.5 15.2l-.4.7c0-.3-.4-.4-.5-.6l.4-.7c0 .2.3.3.5.5zm-3-20.2c0-.8.6-.4 1-.2l.3.7c-.3 0-.6.2-.8 0-.2 0-.6-.3-.5-.5zm-.8-6c1.6-.4 2 .7 3.2 1.2-2 .6-2.5-.2-3.3-1zm.8 18.6c1.5 1.8-.3 3.5.5 6.3-3.3-2.2-3.2-4-2.2-6 .2-.3 1.5-.6 1.7-.4zM163.3 319c-3.8 36.2-8.6 72.5-11.4 109 1-36.6 6-73 11.3-109zm-2.8 0c-3.4 32-7.5 64-10.8 96 2.2-32.2 5.5-64.2 10.8-96zM99 403v6.7c-1-2.3-1-4.5 0-6.6zM50 419.8c0 .3 0 .5.2.8 0 .2-.2.4-.4.6 0-.3-.2-.6 0-.8 0-.2 0-.4.2-.6zM36 391c0 1.5.2 3-.8 4.4-2-2.3-.5-3.3 1-4.4zm-1-20.7v.3h-.8c-.5 0-.6-.2 0-.3h.8zM5.3 414.6c-.7-.2-1.8-.3-2.2-.8-1.7-2.4 1.8-2.2 2-3.7v-.3c-1-1.3-1-1.4 1-3.8.6 1.4-1.4 2.3-1 3.7l.2.2c2.4 1.4-.4 3 0 4.6zm6.7-14.2s0-.4-.2-.7c1.2-1 2.3-.5 4.7.4l-4.5.4zm2 3.4c1 2 .4 3 0 5-1-2.3-.8-3.4 0-5zM1005.5 546.4c3.5 1 5.4 3.6 8.3 2.6 3.4-1 7-.7 10.3-1v-4c-6-.8-11.8-.2-18.5 2.4zM1024 533v-2c-3.3 1-7 .2-10.2 2.5 3.6 1.2 7 .2 10.3-.5zM1020 512.2l4-.2v-2c-1.4.2-3 0-4 2.2zM1019.5 566.8c1.6-.4 4.5 2.5 4.6-1.8-1.7.2-3.4.8-5 2l.5-.2z"/>
    <path d="M131 415.8c.5-3 1-5.8 1.3-8.7l7.5-67.3c.8-7.4 2-14.7 3-22-1.4.5-1.6 1.2-1.8 2-4.4 30.5-8 61-11 91.6-.2 1.6-.5 3.3 1 4.6v-.2zM127.7 314c-3-1.5-5.8-4.3-10.7-3.8 3.8 3.6 8.2 4.5 12 7.4h-8c-1.7 0-3.3 0-3.4 2.3 0 2 1.4 2 3 2.5 4 1 7.7-1 11.7-.4 1 .3 2.2-.7 2-1.7-1-2.8 1.2-5 1.5-8-3.6 3.8-3.6 3.6-8 1.6zM43 359.3c-3.4 0-6.6-1.2-10-.8-1.8.3-2.8 1-3.2 3-1 4.6.4 5.8 7.5 6 3.8.5 5.5-2.2 7-5.2.4-1.3.5-3-1.4-3zM61 362.7c-1.8-.2-4.4-2.3-5 .6-.6 2.8.2 6 4 7 1 .3 2.3.3 3.2.5 3 .2 4.2-1.4 4.2-4 0-4.8-3.8-3.8-6.5-4zM103 352l1.5.3 5.3-37.6c-.5 0-1 0-1.5-.2L103 352zM289 356zM289 356c-4.6 8.8-7.5 18.2-10.2 27.6 4-8.7 8.5-17.2 10.2-26.7v-.2-.7zM53.3 373c-2.7-1.7-5.3-.2-8 .6l6.8 2c1 .3 2 1 2.5-.4.4-1-.3-1.7-1.2-2.3zM205 468zM195 467.6c.6.7 1.6 1.2 2.5 1.3 2.4.4 5 .8 7.4 0 0 1.4 0 2.8.3 5 1-2.4.7-3.8-.2-5v-1c-1.2.3.2-5.2-2.7-1.2-1 1.4-2.3 1-3-.7-1-2-2.4 0-3.5 0-.5.2-1.2 1-.8 1.6zM164.4 410.4c-.3.2-.6.8-.6 1.2 0 .3.6.7 1 .8l8.2 1.6c-.7-2.7-6.5-5-8.6-3.6zM52 350.4c1.8 0 1.5-2.3 2-3.8-.2-1 .3-2.6-1.3-2.6-2 0-1.8 2-2 3.4 0 1-.5 3 1.4 3zM164 421.7c1.4-3 1.8-5 0-8-1.4 2.8-1.4 5 0 8zM195.2 426.7c1-.5 2.3-.7 2.2-2.2-.3-1-1-1.2-2-1-1.2 0-1.8 1-1.8 2.3 0 1.2.8 1.5 1.6 1zM270.8 405c-1.6 1.2-2.4 2.6-1.5 4.4l1.5-4.5zM265 418c1-1 1.8-2 1.7-4-1.4 1.5-1.6 2.7-1.6 4-1.4 1.5-2.3 3.3-2.8 6.4 2.2-2.4 2.8-4.3 3-6.4zM145.2 472.7c-1.6-1.4-3-1.3-5.2-.2 2 1 3.5 1.4 5.2.2zM82.5 391c-1 1-.7 2.2 0 4 1-1.6 1.7-2.6 1.2-4 0-.2-1-.3-1.2 0zM187 469.8c1 0 1.2-.5 1.2-1.2 0-.8-.7-1-1.3-1-.5.2-1 .7-1 1 0 .7.3 1.2 1 1.2zM189 474l.6-1.4s-.5-.5-.7-.5c-.5.2-.8.5-1 .8.2.3.4.6 1 1zM215 469.7l1-1c-.2-.4-.6-1-1-1-.2 0-.8.6-.8 1 0 .2.5.5 1 1zM205 468z"/>
    <path d="M206.4 466.3c0-.2-1-.6-1-.4-.7.5-.3 1.3-.3 2 .7-.5 1.6-.8 1.4-1.7zM670 436zM669.3 430.7c-.3-13-.4-26.2 0-39.3 2.7.2 5.7-.6 7 3 .3 1 1.5 1 2.4.8 1.5-.5 1.4-2 .8-2.8-1.7-2.8-1.5-5.5-.4-8.4h.2c.2-1 0-2 1-2.4l.6.5c.2 1.3-.7 1.7-1.6 2 .7.7 1.7 1 2 .4 1.6-2.6 2.3-5.6 4.2-8 .5-.7.3-2-.6-2.8-1 2.3-3-2.4-4 .5 0 .8-.3 1.5-1 1.3-1-.3-1-1.2-1-2l1.4-12.5c.4-2.8 1-5.6-1.2-8.2-.8 6-1.2 12-4.5 17.2-4.2 6.4-4.6 13.7-5.7 21-3.8 3.6-8 1.8-12.2 1-3.6-.6-3-3.5-3-6 0-1.3-.5-2-2-2-2.4 0-4.7 0-7 .2-1 0-2 .7-2 1.8-.4 1-.2 2 1 2.4 3 .6 2.8 3 3 5 1 25.4.6 50.7.7 76 0 2.6-1 3.5-3.5 3.6-2 0-4.4-.6-7 1 3.5 2.3 7 .5 10.4 1.7-2 1.3-3.6.4-5.2.7-1.5.3-3.4-.6-4.5 1.6 2.4 1.2 5 .4 8 1 .7 0 1.4.3 2.2.7l-1.8.5c-3.3.5-6.5-.5-10 2l10.3.8c-.8 2-3.2.3-3.8 2.6 3.4 0 5 1.4 5.2 5.2 0 2.8 3 2.5 5.2 2.2 3-.4 2.3-3 2.2-4.6-1.6-15-.3-30.2-.7-45.3 0-3.8 1.5-5.2 5-4.8 2.6.3 5.3.8 7.8-.6-3-1.6-5.8-1.5-8.8-1.6-2.2 0-3.8-.6-4-3.3-1-11.8-.6-23.6-.6-35.4 0-1.7.5-2.7 2.4-3 9-1 12 1.5 12 10.5V440h1l1-4c-1.3-1.7-1-3.5-1-5.3zM788.2 402c-.5-7-1-14.3-1.3-21.4-.2-1.7.7-5-1.3-4.5-2.7.6-7-1.8-8.3 3 0-1.7.4-2.8 1.4-4 2-3 5.6-5 5-9.2 0-1 .7-2.5-.6-3.2-1.2-.6-2.2.6-3 1.3-5.4 4.2-8.2 9.8-8.2 16.7 0 4.8 0 9.7.2 14.5.5 10 .8 10 10.7 11.6 4.2.5 5.5-1 5.2-4.8zm-9-2.5l.4 3c-2-.7-.6-2-.3-3zm1.2-16l-.8-.3.7-.6c.2 0 .5 0 .7.2-.2.3-.4.6-.6.6zM669.3 457.2V454c-.4 1.4-.4 2.5 0 3.2zM669.3 457.2v36.4c.7 0 1.4 0 2-.2-2-4.5-1.2-9-1.2-13.7 0-7.4 0-7.4 7.7-7.8.6 0 1.4-.2 1-1.3-2-2-5 0-7.6-1.8 2.8-1.6 6 .6 8.7-1.6-2.2-1.7-4.5-.6-6.5-1-1.5-.4-3-.3-3-2.5 0-2.3 1.4-2.7 3.2-3 2-.2 4 1 7-1.6-5 0-10 .3-11-2.2zM856.5 428.3c-1 0-1.4 1-1.4 1.7 0 2.7-.8 5.5 1 9.8 1-4 1.8-6.8 2.3-9.6 0-.7-.7-2-1.8-2zM852.2 424c2.4 0 .7-2.3 1.2-3.5v-.5c-.2-2 2.7-5.4-.2-6-2.3-.3-1.7 4-2.3 6 0 1.6-.6 4 1.2 4zM689.5 377.8c0-1 .2-2.8-1.6-2.3s-2.4 2-1.4 3.6c1 1.7 2.4 3 3.8 4.8 1.5-2.5-1-4-1-6z"/>
    <path d="M667 466.7c-3.4-1.2-7-1.4-11.4-.3 4.5 2 8 2 11.5.3zM655 415.6c3.7 1.2 7.5.5 11.2-.4l-11-1v1.4zM637.2 447.3c2.5 1.3 5 2 8.6.2-3.4-1.2-6-2-8.6-.2zM645 444.3c-2.6-1.6-5.3-1.6-8-.7 2.5 1.7 5.2 1.4 8 .7zM667.6 441.4c-4-2-7.4-1.4-10.5-.8 3.3.3 6.3 2.3 10.6.8zM672.3 464c2.2 1 4.5 1.6 7.4 0-3-1.4-5.2-1.3-7.4 0zM678.6 454.2c-1.7-2.7-4-2.3-6-1.6v1.3c2 0 4 0 6 .2zM646 429.7c-3.8-1.6-6.2-2-10-1.4 3 2.7 5.8 1.7 10 1.4zM644.6 412c.2-.5.3-1 .5-1.2-2.3-1.4-5-1.2-7.7 0l7.3 1zM669.5 406.4c3 1.6 5 1.8 8.7.6-3.4-1.2-5.4-1.5-8.7-.6zM866.2 440c1-2.8.8-4.6-1.3-7.3-.4 3-1 5 1.2 7.4zM645 432.8c-2.2-1.3-4.6-1.5-8-.2 3.3.8 5.5 1.6 8 .2zM676.5 491.3c-1.2-.2-2.4-.4-3 .8-.7 1 .2 1.6 1 1.8 1.2.2 2.4.4 3.5-1-.2-.7-.6-1.3-1.5-1.5zM645.5 414.5c-3.2-1.4-5.5-2-9-1 3.2 1.6 5.5 2 9 1zM862.6 424.7c1-1.7 1-3.4-1-5-1 1.7-1.7 3.2-.6 5 .4.7 1.3.6 1.6 0zM868.7 448.2c-.8 2.3-1 4.2 1 5.8.6-2 1.5-4-1-5.8zM636.5 369.3c-3.2-1-5.4-1.7-9-.7 3.4 1 5.6 2 9 .7zM671.6 410c2 1.5 3.6 1.8 6.2 1-2.2-1.4-3.7-2.4-6.2-1zM670.7 403.2c4 1.6 4 1.6 7-.4-2.5 0-4.4-1.5-7 .4zM478 442.2c2.4 1 4 1.4 6.6 0-2.4-1.2-4-2-6.6 0zM661.5 470.3c-2.3-1.3-4-1.5-6 0 2 1 3.7 1 6 0zM673 489.2c2.5 1.3 4.5 1.2 7-.2-2.5-.8-4.4-1.7-7 .2zM637.6 459l7.6.5c-2.5-2-5-2-7.6-.5zM665.5 489c.2 0 0-.7 0-.8-1.6-1-3.3-1-4.8.7 1.6 0 3.2 1.7 4.8 0zM643.4 491.2c-1.7-.2-3-1.3-4.3 1 1.7.5 3 1.2 4.4-1zM639.6 462.3c0-.8-.7-1-1.4-1s-1.4.2-1.4 1c0 1 .8.8 1.4 1 .6-.2 1.4-.2 1.4-1zM691 395.5c-.4.7-.7 1-.6 1.5 0 .3.6.5 1 .8 0-.4.5-.8.5-1.2l-1-1zM469 439c-.4.7.2 1 .7 1 .6.2 1.4.3 1.5-.6 0-.4-.4-.8-.6-1.2-1 .4-1.5.6-1.7 1zM781.7 373.3c0 .4.5.7 1 1 .3-.5.7-.8.7-1.2 0-.3-.4-1-.7-1-.8 0-1 .6-1 1.3zM661 492.3c0 .2.5.6.5.6.3-.3.8-.6.8-1 0-.3-.4-.7-1-1.2-.2.7-.4 1-.4 1.5zM664 492.6c0 .3.6.6 1 .8 0-.3.6-.7.6-1 0-.3-.5-.6-1-1-.2.5-.6.8-.5 1.2zM1017.2 522.8c-4 .5-7.8 2.8-12 2.2-1.5 1.4-1.3 2.3.8 2.2l11.8-1c1.2-.3 3-.7 2.7-2.4-.4-1.8-2-1.2-3.3-1zM1005.2 525zM1007.3 539c4 .8 7.4.3 10.8 0 1.2 0 2.7-.3 2.2-2-.4-1.4-2-1.6-2.8-.7-2 2-4.2 1.3-6.4 1-1.3 0-2.7-.4-3.7 1.8zM1018.2 520.2c.7 0 1.8 0 1.6-1 0-.6-1-1-1-1-1.2-.2-1.7 0-1.8 1 0 .7.5 1 1.2 1zM1007 542.7c2.3.8 3.7 1 5.6-1-2-.2-3.6-.3-5.6 1zM1016.3 511.5c-.4 0-1 .2-1.2.5-.3.8.4 1.2 1 1.2.5 0 1-.4 1.5-.7-.5-.5-.8-1-1.2-1zM10.8 425.7c0-1-.7-1.7-1.6-1.3-1.6.7-1.8 2-1.3 3.6v1c3 .5 2.8-1.5 2.8-3.3zM8 429zM2 429c-.4-.6-1-1.2-2-1v10c2.3-2.6 1.5-6 2-9zM5.3 430.3c1.7-1.3-.2-3-.3-5L2 429c1 1 2.2 2.2 3.3 1.3zM519 479c1.8-3.7-2-7.3.3-10.8.4-.6-.5-1-1.2-1-1-.2-1.7.2-2 1.5-.4 3.7-1 7.5 3 10.2zM506 473c2.2.2 1.7-1.6 2-2.7.4-1.2-.4-2-1.5-1.7-1 .2-3.2-.2-1.3 2-.4 1-1.5 2.4 1 2.5zM508.4 476.3c-4.6.6-4.5 2.7-3.7 5.3-.3-2.3 2-2.8 3.7-5.3zM499.2 446.3c0-.2-1-.3-1.2 0-.8 1.2-1 2.6.5 4 1.7-1.2 1.3-2.6.7-4zM498.7 424.4c.6.2 1.4 0 1.5-.8 0-.8-.5-1-1.2-1.2-.7 0-1.3.3-1.3 1 0 .4.6 1 1 1zM498.6 456c.2-.5.6-1 .5-1.2 0-.3-.5-.7-1-.8-.7 0-1 .5-.7 1.2.2.4.8.5 1.3.8zM498 429c.3.3.5.8.8 1 .3 0 .7-.3 1.4-.5l-1.3-.8c-.3-.2-.6 0-1 .3zM498.5 451.2c-.5 0-1 .2-.6.8 0 .2.4.4.7.3.2 0 .3-.4.5-.6-.3 0-.5-.4-.7-.5zM518 484zM516.3 482.3c-.2 0-.5.5-.4.8 0 1.6 1 1.2 2 1-.3-.8-.2-2-1.7-1.7zM494.5 481.6c0-.2-.7-.4-1.2-.7-.4 0-.7.3-1 .5.2.3.6.6 1 .7.5.2 1.3.4 1.2-.6zM420.3 335.4c0 .3.2.5.3.8l.3-1c-.3 0-.4-.2-.6-.3v.4zM350.4 477c1.3.4 1.8-.4 1.5-1.7-.4-1 .5-2.6-1.4-2.6-1.3 0-3 .5-3.2 1.8-.3 2 1.7 2 3 2.5zM347.2 481.3c2.4 3 4.5 3 7.2.2-2.6-1-4.7-1-7.2-.2zM347.3 491c1.3 1.2 2.2 3 4.6 3.4-.6-3.3-2.5-3.6-4.7-3.4zM352 465c1.2 1.5 2.4 1.6 3.8.5.2 0 0-1-.2-1.2-1.3-.8-2.4-.2-3.5.7zM352 465zM355.2 507c0 2 1.2 2.4 3 2-.7-1-1.3-2.2-3-2zM354 469.5c0 .3.5.8.8.8.3 0 .7-.5 1-.8l-1-1c-.4.4-1 .7-1 1zM349.7 508.2c-.4.6.2 1 .6 1 .4 0 1-.3 1.8-.5-.6-.4-1-.7-1.4-.7-.3 0-.8 0-1 .2zM671.2 507.4l1.5.3c1.6 0 4 1 4-1.3.2-2.2-2.5-1.3-4-1.6h-1.5c-1.6.6-4.7-1-4.7 1-.2 3.3 3 1 4.7 1.6zM685.3 507.2c2.6.7 5 .7 7.4-1l.2-1c-3-.3-5.5-1-8 .4-.4 0-.4 1.4.3 1.6zM659.3 506.4c-1.5-1-2.6-1.6-4-.6 0 .2-.2 1 0 1.3 1.4 1.3 2.7 1 4-.6zM374.7 495.8c0 .3.4.7.6 1 .3 0 1-.3 1-.6s-.3-.8-.5-1.4c-.5.4-1 .7-1 1zM945.7 499.2c-4.2-.6-7-1-10.3 1.3 3.8 1.2 6.5 1.4 10.3-1.3zM939.2 486c.2-2-2-1-3.2-1-1.4 0-3.7-.4-3.8 1.2-.3 2.2 2 .7 3 1.2 1.3-.6 3.8.8 4-1.5zM947 495.7c-2.3-1-4.7-1.4-7.4.8 3 1.2 5.3 1.3 7.5-.8zM938.7 493.2c.4-.5 0-1-.5-1-1.2-.4-2.2 0-3 1.5 1.4.6 2.6 1 3.5-.5zM933 501c.2 0 .8-.4.8-.7 0-.3-.4-.7-.8-1.2-.4.5-1 .8-1 1 0 .5.6 1 1 1zM394.8 455.8c1-1.2.3-2.4-1-4.2-.8 1.7-1.7 2.7-.7 4 .4.4 1.6.5 1.8.2zM934.7 452c-1 .2-2.2.2-3.3.3 1.2 1.2 2.2 1 3.3-.2zM937.2 453.4c.3 0 .7-.4 1-.5 0-1-.5-1.2-1-1-.4 0-.8.4-.8.5.2.3.5.8.8 1zM554.3 417h-4c.8.7 1.8 1.3 4 0zM550.2 417z"/>
  </g>
</svg>
